<?xml version="1.0" encoding="UTF-8" standalone="no"?>
<svg
   width="755mm"
   height="123mm"
   viewBox="-1 -122 755 123"
   version="1.1"
   id="svg2683"
   sodipodi:docname="bh-inside.svg"
   inkscape:version="1.2.1 (9c6d41e410, 2022-07-14)"
   xmlns:inkscape="http://www.inkscape.org/namespaces/inkscape"
   xmlns:sodipodi="http://sodipodi.sourceforge.net/DTD/sodipodi-0.dtd"
   xmlns="http://www.w3.org/2000/svg"
   xmlns:svg="http://www.w3.org/2000/svg">
  <defs
     id="defs2687" />
  <sodipodi:namedview
     id="namedview2685"
     pagecolor="#ffffff"
     bordercolor="#666666"
     borderopacity="1.0"
     inkscape:pageshadow="2"
     inkscape:pageopacity="0.0"
     inkscape:pagecheckerboard="0"
     inkscape:document-units="mm"
     showgrid="false"
     inkscape:zoom="4.6594211"
     inkscape:cx="98.188163"
     inkscape:cy="124.6936"
     inkscape:window-width="2560"
     inkscape:window-height="1389"
     inkscape:window-x="0"
     inkscape:window-y="27"
     inkscape:window-maximized="1"
     inkscape:current-layer="svg2683"
     inkscape:showpageshadow="2"
     inkscape:deskcolor="#d1d1d1" />
  <title
     id="title2679">OpenSCAD Model</title>
  <g
     id="g11820"
     transform="translate(-547,-6.885)">
    <path
       d="m 581.843,-66.1389 -0.482,-0.0715 -0.472,-0.1184 -0.459,-0.1642 -0.441,-0.2084 -0.417,-0.2504 -0.392,-0.2901 -0.361,-0.3273 -0.327,-0.3611 -0.29,-0.3913 -0.251,-0.4178 -0.208,-0.4406 -0.164,-0.4588 -0.119,-0.4725 -0.071,-0.4821 -0.024,-0.4866 0.024,-0.4866 0.071,-0.482 0.119,-0.4726 0.164,-0.4588 0.208,-0.4406 0.251,-0.4178 0.29,-0.3912 0.327,-0.3611 0.361,-0.3273 0.392,-0.2902 0.417,-0.2504 0.441,-0.2084 0.459,-0.1642 0.472,-0.1183 0.482,-0.0715 0.487,-0.0239 0.487,0.0239 0.482,0.0715 0.472,0.1183 0.459,0.1642 0.441,0.2084 0.417,0.2504 0.392,0.2902 0.361,0.3273 0.327,0.3611 0.29,0.3912 0.251,0.4178 0.208,0.4406 0.164,0.4588 0.119,0.4726 0.071,0.482 0.024,0.4866 -0.024,0.4867 -0.071,0.482 -0.119,0.4725 -0.164,0.4588 -0.208,0.4406 -0.251,0.4178 -0.29,0.3913 -0.327,0.3611 -0.361,0.3273 -0.392,0.2901 -0.417,0.2504 -0.441,0.2084 -0.459,0.1642 -0.472,0.1184 -0.482,0.0715 -0.487,0.0239 z"
       id="path2794"
       style="fill:none;stroke:#000000;stroke-opacity:1" />
    <path
       d="m 556.843,-66.1389 -0.482,-0.0715 -0.472,-0.1184 -0.459,-0.1642 -0.441,-0.2084 -0.417,-0.2504 -0.392,-0.2901 -0.361,-0.3273 -0.327,-0.3611 -0.29,-0.3913 -0.251,-0.4178 -0.208,-0.4406 -0.164,-0.4588 -0.119,-0.4725 -0.071,-0.4821 -0.024,-0.4866 0.024,-0.4866 0.071,-0.482 0.119,-0.4726 0.164,-0.4588 0.208,-0.4406 0.251,-0.4178 0.29,-0.3912 0.327,-0.3611 0.361,-0.3273 0.392,-0.2902 0.417,-0.2504 0.441,-0.2084 0.459,-0.1642 0.472,-0.1183 0.482,-0.0715 0.487,-0.0239 0.487,0.0239 0.482,0.0715 0.472,0.1183 0.459,0.1642 0.441,0.2084 0.417,0.2504 0.392,0.2902 0.361,0.3273 0.327,0.3611 0.29,0.3912 0.251,0.4178 0.208,0.4406 0.164,0.4588 0.119,0.4726 0.071,0.482 0.024,0.4866 -0.024,0.4867 -0.071,0.482 -0.119,0.4725 -0.164,0.4588 -0.208,0.4406 -0.251,0.4178 -0.29,0.3913 -0.327,0.3611 -0.361,0.3273 -0.392,0.2901 -0.417,0.2504 -0.441,0.2084 -0.459,0.1642 -0.472,0.1184 -0.482,0.0715 -0.487,0.0239 z"
       id="path2792"
       style="fill:none;stroke:#000000;stroke-opacity:1" />
    <path
       d="m 556.843,-91.1389 -0.482,-0.0715 -0.472,-0.1184 -0.459,-0.1642 -0.441,-0.2084 -0.417,-0.2504 -0.392,-0.2901 -0.361,-0.3273 -0.327,-0.3611 -0.29,-0.3913 -0.251,-0.4178 -0.208,-0.4406 -0.164,-0.4588 -0.119,-0.4725 -0.071,-0.4821 -0.024,-0.4866 0.024,-0.4866 0.071,-0.482 0.119,-0.4726 0.164,-0.4588 0.208,-0.4406 0.251,-0.4178 0.29,-0.3912 0.327,-0.3611 0.361,-0.3273 0.392,-0.29 0.417,-0.251 0.441,-0.208 0.459,-0.164 0.472,-0.119 0.482,-0.071 0.487,-0.024 0.487,0.024 0.482,0.071 0.472,0.119 0.459,0.164 0.441,0.208 0.417,0.251 0.392,0.29 0.361,0.3273 0.327,0.3611 0.29,0.3912 0.251,0.4178 0.208,0.4406 0.164,0.4588 0.119,0.4726 0.071,0.482 0.024,0.4866 -0.024,0.4867 -0.071,0.482 -0.119,0.4725 -0.164,0.4588 -0.208,0.4406 -0.251,0.4178 -0.29,0.3913 -0.327,0.3611 -0.361,0.3273 -0.392,0.2901 -0.417,0.2504 -0.441,0.2084 -0.459,0.1642 -0.472,0.1184 -0.482,0.0715 -0.487,0.0239 z"
       id="path2770"
       style="fill:none;stroke:#000000;stroke-opacity:1" />
    <path
       d="m 581.843,-91.1389 -0.482,-0.0715 -0.472,-0.1184 -0.459,-0.1642 -0.441,-0.2084 -0.417,-0.2504 -0.392,-0.2901 -0.361,-0.3273 -0.327,-0.3611 -0.29,-0.3913 -0.251,-0.4178 -0.208,-0.4406 -0.164,-0.4588 -0.119,-0.4725 -0.071,-0.4821 -0.024,-0.4866 0.024,-0.4866 0.071,-0.482 0.119,-0.4726 0.164,-0.4588 0.208,-0.4406 0.251,-0.4178 0.29,-0.3912 0.327,-0.3611 0.361,-0.3273 0.392,-0.29 0.417,-0.251 0.441,-0.208 0.459,-0.164 0.472,-0.119 0.482,-0.071 0.487,-0.024 0.487,0.024 0.482,0.071 0.472,0.119 0.459,0.164 0.441,0.208 0.417,0.251 0.392,0.29 0.361,0.3273 0.327,0.3611 0.29,0.3912 0.251,0.4178 0.208,0.4406 0.164,0.4588 0.119,0.4726 0.071,0.482 0.024,0.4866 -0.024,0.4867 -0.071,0.482 -0.119,0.4725 -0.164,0.4588 -0.208,0.4406 -0.251,0.4178 -0.29,0.3913 -0.327,0.3611 -0.361,0.3273 -0.392,0.2901 -0.417,0.2504 -0.441,0.2084 -0.459,0.1642 -0.472,0.1184 -0.482,0.0715 -0.487,0.0239 z"
       id="path2768"
       style="fill:none;stroke:#000000;stroke-opacity:1" />
    <path
       d="m 546,-49.115 h 52 v -66 h -52 z"
       id="path2681"
       style="fill:none;stroke:#000000;stroke-width:1.00582;stroke-opacity:1"
       sodipodi:nodetypes="ccccc" />
  </g>
</svg>
