<?xml version="1.0" encoding="UTF-8" standalone="no"?>
<svg
   width="755mm"
   height="123mm"
   viewBox="-1 -122 755 123"
   version="1.1"
   id="svg2683"
   sodipodi:docname="bh-inside.svg"
   inkscape:version="1.2.1 (9c6d41e410, 2022-07-14)"
   xmlns:inkscape="http://www.inkscape.org/namespaces/inkscape"
   xmlns:sodipodi="http://sodipodi.sourceforge.net/DTD/sodipodi-0.dtd"
   xmlns="http://www.w3.org/2000/svg"
   xmlns:svg="http://www.w3.org/2000/svg">
  <defs
     id="defs2687" />
  <sodipodi:namedview
     id="namedview2685"
     pagecolor="#ffffff"
     bordercolor="#666666"
     borderopacity="1.0"
     inkscape:pageshadow="2"
     inkscape:pageopacity="0.0"
     inkscape:pagecheckerboard="0"
     inkscape:document-units="mm"
     showgrid="false"
     inkscape:zoom="1.8304577"
     inkscape:cx="958.50345"
     inkscape:cy="72.932579"
     inkscape:window-width="1600"
     inkscape:window-height="841"
     inkscape:window-x="0"
     inkscape:window-y="0"
     inkscape:window-maximized="1"
     inkscape:current-layer="svg2683"
     inkscape:showpageshadow="2"
     inkscape:deskcolor="#d1d1d1" />
  <title
     id="title2679">OpenSCAD Model</title>
  <path
     d="m -0.5,-56.5 h 293 v -65 h -293 z"
     id="path2681"
     style="fill:none;stroke:#000000;stroke-width:0.990706;stroke-dasharray:none;stroke-opacity:1"
     sodipodi:nodetypes="ccccc" />
  <path
     d="m 208.383,-63.883833 -0.151,-0.0224 -0.148,-0.0369 -0.143,-0.0514 -0.138,-0.0652 -0.131,-0.0783 -0.122,-0.0907 -0.113,-0.1023 -0.102,-0.113 -0.091,-0.1223 -0.078,-0.1305 -0.065,-0.1379 -0.052,-0.1435 -0.037,-0.1477 -0.022,-0.1507 -0.007,-0.1522 0.007,-0.1521 0.022,-0.1508 0.037,-0.1476 0.052,-0.1436 0.065,-0.1379 0.078,-0.1305 0.091,-0.1223 0.102,-0.1129 0.113,-0.1024 0.122,-0.0907 0.131,-0.0783 0.138,-0.0652 0.143,-0.0513 0.148,-0.037 0.151,-0.0224 0.152,-0.0074 0.152,0.0074 0.151,0.0224 0.148,0.037 0.143,0.0513 0.138,0.0652 0.13,0.0783 0.123,0.0907 0.113,0.1024 0.102,0.1129 0.091,0.1223 0.078,0.1305 0.065,0.1379 0.052,0.1436 0.037,0.1476 0.022,0.1508 0.007,0.1521 -0.007,0.1522 -0.022,0.1507 -0.037,0.1477 -0.052,0.1435 -0.065,0.1379 -0.078,0.1305 -0.091,0.1223 -0.102,0.113 -0.113,0.1023 -0.123,0.0907 -0.13,0.0783 -0.138,0.0652 -0.143,0.0514 -0.148,0.0369 -0.151,0.0224 -0.152,0.0075 z"
     id="path957"
     style="fill:none;stroke:#000000;stroke-opacity:1" />
  <path
     d="m 183.383,-63.883833 -0.151,-0.0224 -0.148,-0.0369 -0.143,-0.0514 -0.138,-0.0652 -0.131,-0.0783 -0.122,-0.0907 -0.113,-0.1023 -0.102,-0.113 -0.091,-0.1223 -0.078,-0.1305 -0.065,-0.1379 -0.052,-0.1435 -0.037,-0.1477 -0.022,-0.1507 -0.007,-0.1522 0.007,-0.1521 0.022,-0.1508 0.037,-0.1476 0.052,-0.1436 0.065,-0.1379 0.078,-0.1305 0.091,-0.1223 0.102,-0.1129 0.113,-0.1024 0.122,-0.0907 0.131,-0.0783 0.138,-0.0652 0.143,-0.0513 0.148,-0.037 0.151,-0.0224 0.152,-0.0074 0.152,0.0074 0.151,0.0224 0.148,0.037 0.143,0.0513 0.138,0.0652 0.13,0.0783 0.123,0.0907 0.113,0.1024 0.102,0.1129 0.091,0.1223 0.078,0.1305 0.065,0.1379 0.052,0.1436 0.037,0.1476 0.022,0.1508 0.007,0.1521 -0.007,0.1522 -0.022,0.1507 -0.037,0.1477 -0.052,0.1435 -0.065,0.1379 -0.078,0.1305 -0.091,0.1223 -0.102,0.113 -0.113,0.1023 -0.123,0.0907 -0.13,0.0783 -0.138,0.0652 -0.143,0.0514 -0.148,0.0369 -0.151,0.0224 -0.152,0.0075 z"
     id="path955"
     style="fill:none;stroke:#000000;stroke-opacity:1" />
  <path
     d="m 158.383,-63.883833 -0.151,-0.0224 -0.148,-0.0369 -0.143,-0.0514 -0.138,-0.0652 -0.131,-0.0783 -0.122,-0.0907 -0.113,-0.1023 -0.102,-0.113 -0.091,-0.1223 -0.078,-0.1305 -0.065,-0.1379 -0.052,-0.1435 -0.037,-0.1477 -0.022,-0.1507 -0.007,-0.1522 0.007,-0.1521 0.022,-0.1508 0.037,-0.1476 0.052,-0.1436 0.065,-0.1379 0.078,-0.1305 0.091,-0.1223 0.102,-0.1129 0.113,-0.1024 0.122,-0.0907 0.131,-0.0783 0.138,-0.0652 0.143,-0.0513 0.148,-0.037 0.151,-0.0224 0.152,-0.0074 0.152,0.0074 0.151,0.0224 0.148,0.037 0.143,0.0513 0.138,0.0652 0.13,0.0783 0.123,0.0907 0.113,0.1024 0.102,0.1129 0.091,0.1223 0.078,0.1305 0.065,0.1379 0.052,0.1436 0.037,0.1476 0.022,0.1508 0.007,0.1521 -0.007,0.1522 -0.022,0.1507 -0.037,0.1477 -0.052,0.1435 -0.065,0.1379 -0.078,0.1305 -0.091,0.1223 -0.102,0.113 -0.113,0.1023 -0.123,0.0907 -0.13,0.0783 -0.138,0.0652 -0.143,0.0514 -0.148,0.0369 -0.151,0.0224 -0.152,0.0075 z"
     id="path953"
     style="fill:none;stroke:#000000;stroke-opacity:1" />
  <path
     d="m 133.383,-63.883833 -0.151,-0.0224 -0.148,-0.0369 -0.143,-0.0514 -0.138,-0.0652 -0.131,-0.0783 -0.122,-0.0907 -0.113,-0.1023 -0.102,-0.113 -0.091,-0.1223 -0.078,-0.1305 -0.065,-0.1379 -0.052,-0.1435 -0.037,-0.1477 -0.022,-0.1507 -0.007,-0.1522 0.007,-0.1521 0.022,-0.1508 0.037,-0.1476 0.052,-0.1436 0.065,-0.1379 0.078,-0.1305 0.091,-0.1223 0.102,-0.1129 0.113,-0.1024 0.122,-0.0907 0.131,-0.0783 0.138,-0.0652 0.143,-0.0513 0.148,-0.037 0.151,-0.0224 0.152,-0.0074 0.152,0.0074 0.151,0.0224 0.148,0.037 0.143,0.0513 0.138,0.0652 0.13,0.0783 0.123,0.0907 0.113,0.1024 0.102,0.1129 0.091,0.1223 0.078,0.1305 0.065,0.1379 0.052,0.1436 0.037,0.1476 0.022,0.1508 0.007,0.1521 -0.007,0.1522 -0.022,0.1507 -0.037,0.1477 -0.052,0.1435 -0.065,0.1379 -0.078,0.1305 -0.091,0.1223 -0.102,0.113 -0.113,0.1023 -0.123,0.0907 -0.13,0.0783 -0.138,0.0652 -0.143,0.0514 -0.148,0.0369 -0.151,0.0224 -0.152,0.0075 z"
     id="path951"
     style="fill:none;stroke:#000000;stroke-opacity:1" />
  <path
     d="m 108.383,-63.883833 -0.151,-0.0224 -0.148,-0.0369 -0.143,-0.0514 -0.138,-0.0652 -0.131,-0.0783 -0.122,-0.0907 -0.113,-0.1023 -0.102,-0.113 -0.091,-0.1223 -0.078,-0.1305 -0.065,-0.1379 -0.052,-0.1435 -0.037,-0.1477 -0.022,-0.1507 -0.007,-0.1522 0.007,-0.1521 0.022,-0.1508 0.037,-0.1476 0.052,-0.1436 0.065,-0.1379 0.078,-0.1305 0.091,-0.1223 0.102,-0.1129 0.113,-0.1024 0.122,-0.0907 0.131,-0.0783 0.138,-0.0652 0.143,-0.0513 0.148,-0.037 0.151,-0.0224 0.152,-0.0074 0.152,0.0074 0.151,0.0224 0.148,0.037 0.143,0.0513 0.138,0.0652 0.13,0.0783 0.123,0.0907 0.113,0.1024 0.102,0.1129 0.091,0.1223 0.078,0.1305 0.065,0.1379 0.052,0.1436 0.037,0.1476 0.022,0.1508 0.007,0.1521 -0.007,0.1522 -0.022,0.1507 -0.037,0.1477 -0.052,0.1435 -0.065,0.1379 -0.078,0.1305 -0.091,0.1223 -0.102,0.113 -0.113,0.1023 -0.123,0.0907 -0.13,0.0783 -0.138,0.0652 -0.143,0.0514 -0.148,0.0369 -0.151,0.0224 -0.152,0.0075 z"
     id="path949"
     style="fill:none;stroke:#000000;stroke-opacity:1" />
  <path
     d="m 83.383,-63.883833 -0.151,-0.0224 -0.148,-0.0369 -0.143,-0.0514 -0.138,-0.0652 -0.131,-0.0783 -0.122,-0.0907 -0.113,-0.1023 -0.102,-0.113 -0.091,-0.1223 -0.078,-0.1305 -0.065,-0.1379 -0.052,-0.1435 -0.037,-0.1477 -0.022,-0.1507 -0.007,-0.1522 0.007,-0.1521 0.022,-0.1508 0.037,-0.1476 0.052,-0.1436 0.065,-0.1379 0.078,-0.1305 0.091,-0.1223 0.102,-0.1129 0.113,-0.1024 0.122,-0.0907 0.131,-0.0783 0.138,-0.0652 0.143,-0.0513 0.148,-0.037 0.151,-0.0224 0.152,-0.0074 0.152,0.0074 0.151,0.0224 0.148,0.037 0.143,0.0513 0.138,0.0652 0.13,0.0783 0.123,0.0907 0.113,0.1024 0.102,0.1129 0.091,0.1223 0.078,0.1305 0.065,0.1379 0.052,0.1436 0.037,0.1476 0.022,0.1508 0.007,0.1521 -0.007,0.1522 -0.022,0.1507 -0.037,0.1477 -0.052,0.1435 -0.065,0.1379 -0.078,0.1305 -0.091,0.1223 -0.102,0.113 -0.113,0.1023 -0.123,0.0907 -0.13,0.0783 -0.138,0.0652 -0.143,0.0514 -0.148,0.0369 -0.151,0.0224 -0.152,0.0075 z"
     id="path947"
     style="fill:none;stroke:#000000;stroke-opacity:1" />
  <path
     d="m 58.383,-63.883833 -0.151,-0.0224 -0.148,-0.0369 -0.143,-0.0514 -0.138,-0.0652 -0.131,-0.0783 -0.122,-0.0907 -0.113,-0.1023 -0.102,-0.113 -0.091,-0.1223 -0.078,-0.1305 -0.065,-0.1379 -0.052,-0.1435 -0.037,-0.1477 -0.022,-0.1507 -0.007,-0.1522 0.007,-0.1521 0.022,-0.1508 0.037,-0.1476 0.052,-0.1436 0.065,-0.1379 0.078,-0.1305 0.091,-0.1223 0.102,-0.1129 0.113,-0.1024 0.122,-0.0907 0.131,-0.0783 0.138,-0.0652 0.143,-0.0513 0.148,-0.037 0.151,-0.0224 0.152,-0.0074 0.152,0.0074 0.151,0.0224 0.148,0.037 0.143,0.0513 0.138,0.0652 0.13,0.0783 0.123,0.0907 0.113,0.1024 0.102,0.1129 0.091,0.1223 0.078,0.1305 0.065,0.1379 0.052,0.1436 0.037,0.1476 0.022,0.1508 0.007,0.1521 -0.007,0.1522 -0.022,0.1507 -0.037,0.1477 -0.052,0.1435 -0.065,0.1379 -0.078,0.1305 -0.091,0.1223 -0.102,0.113 -0.113,0.1023 -0.123,0.0907 -0.13,0.0783 -0.138,0.0652 -0.143,0.0514 -0.148,0.0369 -0.151,0.0224 -0.152,0.0075 z"
     id="path945"
     style="fill:none;stroke:#000000;stroke-opacity:1" />
  <path
     d="m 33.383,-63.883833 -0.151,-0.0224 -0.148,-0.0369 -0.143,-0.0514 -0.138,-0.0652 -0.131,-0.0783 -0.122,-0.0907 -0.113,-0.1023 -0.102,-0.113 -0.091,-0.1223 -0.078,-0.1305 -0.065,-0.1379 -0.052,-0.1435 -0.037,-0.1477 -0.022,-0.1507 -0.007,-0.1522 0.007,-0.1521 0.022,-0.1508 0.037,-0.1476 0.052,-0.1436 0.065,-0.1379 0.078,-0.1305 0.091,-0.1223 0.102,-0.1129 0.113,-0.1024 0.122,-0.0907 0.131,-0.0783 0.138,-0.0652 0.143,-0.0513 0.148,-0.037 0.151,-0.0224 0.152,-0.0074 0.152,0.0074 0.151,0.0224 0.148,0.037 0.143,0.0513 0.138,0.0652 0.13,0.0783 0.123,0.0907 0.113,0.1024 0.102,0.1129 0.091,0.1223 0.078,0.1305 0.065,0.1379 0.052,0.1436 0.037,0.1476 0.022,0.1508 0.007,0.1521 -0.007,0.1522 -0.022,0.1507 -0.037,0.1477 -0.052,0.1435 -0.065,0.1379 -0.078,0.1305 -0.091,0.1223 -0.102,0.113 -0.113,0.1023 -0.123,0.0907 -0.13,0.0783 -0.138,0.0652 -0.143,0.0514 -0.148,0.0369 -0.151,0.0224 -0.152,0.0075 z"
     id="path943"
     style="fill:none;stroke:#000000;stroke-opacity:1" />
  <path
     d="m 8.383,-63.883833 -0.151,-0.0224 -0.148,-0.0369 -0.143,-0.0514 -0.138,-0.0652 -0.131,-0.0783 -0.122,-0.0907 -0.113,-0.1023 -0.102,-0.113 -0.091,-0.1223 -0.078,-0.1305 -0.065,-0.1379 -0.052,-0.1435 -0.037,-0.1477 -0.022,-0.1507 -0.007,-0.1522 0.007,-0.1521 0.022,-0.1508 0.037,-0.1476 0.052,-0.1436 0.065,-0.1379 0.078,-0.1305 0.091,-0.1223 0.102,-0.1129 0.113,-0.1024 0.122,-0.0907 0.131,-0.0783 0.138,-0.0652 0.143,-0.0513 0.148,-0.037 0.151,-0.0224 0.152,-0.0074 0.152,0.0074 0.151,0.0224 0.148,0.037 0.143,0.0513 0.138,0.0652 0.13,0.0783 0.123,0.0907 0.113,0.1024 0.102,0.1129 0.091,0.1223 0.078,0.1305 0.065,0.1379 0.052,0.1436 0.037,0.1476 0.022,0.1508 0.007,0.1521 -0.007,0.1522 -0.022,0.1507 -0.037,0.1477 -0.052,0.1435 -0.065,0.1379 -0.078,0.1305 -0.091,0.1223 -0.102,0.113 -0.113,0.1023 -0.123,0.0907 -0.13,0.0783 -0.138,0.0652 -0.143,0.0514 -0.148,0.0369 -0.151,0.0224 -0.152,0.0075 z"
     id="path941"
     style="fill:none;stroke:#000000;stroke-opacity:1" />
  <path
     d="m 233.383,-63.883833 -0.151,-0.0224 -0.148,-0.0369 -0.143,-0.0514 -0.138,-0.0652 -0.131,-0.0783 -0.122,-0.0907 -0.113,-0.1023 -0.102,-0.113 -0.091,-0.1223 -0.078,-0.1305 -0.065,-0.1379 -0.052,-0.1435 -0.037,-0.1477 -0.022,-0.1507 -0.007,-0.1522 0.007,-0.1521 0.022,-0.1508 0.037,-0.1476 0.052,-0.1436 0.065,-0.1379 0.078,-0.1305 0.091,-0.1223 0.102,-0.1129 0.113,-0.1024 0.122,-0.0907 0.131,-0.0783 0.138,-0.0652 0.143,-0.0513 0.148,-0.037 0.151,-0.0224 0.152,-0.0074 0.152,0.0074 0.151,0.0224 0.148,0.037 0.143,0.0513 0.138,0.0652 0.13,0.0783 0.123,0.0907 0.113,0.1024 0.102,0.1129 0.091,0.1223 0.078,0.1305 0.065,0.1379 0.052,0.1436 0.037,0.1476 0.022,0.1508 0.007,0.1521 -0.007,0.1522 -0.022,0.1507 -0.037,0.1477 -0.052,0.1435 -0.065,0.1379 -0.078,0.1305 -0.091,0.1223 -0.102,0.113 -0.113,0.1023 -0.123,0.0907 -0.13,0.0783 -0.138,0.0652 -0.143,0.0514 -0.148,0.0369 -0.151,0.0224 -0.152,0.0075 z"
     id="path939"
     style="fill:none;stroke:#000000;stroke-opacity:1" />
  <path
     d="m 8.342,-84.723333 -0.19,-0.0283 -0.187,-0.0468 -0.182,-0.065 -0.174,-0.0825 -0.166,-0.0991 -0.155,-0.1148 -0.142,-0.1296 -0.13,-0.1429 -0.115,-0.1548 -0.099,-0.1653 -0.082,-0.1744 -0.065,-0.1816 -0.047,-0.187 -0.029,-0.1908 -0.009,-0.1926 0.009,-0.1926 0.029,-0.1907 0.047,-0.187 0.065,-0.1816 0.082,-0.1745 0.099,-0.1653 0.115,-0.1548 0.13,-0.1429 0.142,-0.1296 0.155,-0.1148 0.166,-0.0991 0.174,-0.0825 0.182,-0.065 0.187,-0.0468 0.19,-0.0283 0.193,-0.0094 0.193,0.0094 0.19,0.0283 0.187,0.0468 0.182,0.065 0.174,0.0825 0.166,0.0991 0.154,0.1148 0.143,0.1296 0.13,0.1429 0.115,0.1548 0.099,0.1653 0.082,0.1745 0.065,0.1816 0.047,0.187 0.028,0.1907 0.01,0.1926 -0.01,0.1926 -0.028,0.1908 -0.047,0.187 -0.065,0.1816 -0.082,0.1744 -0.099,0.1653 -0.115,0.1548 -0.13,0.1429 -0.143,0.1296 -0.154,0.1148 -0.166,0.0991 -0.174,0.0825 -0.182,0.065 -0.187,0.0468 -0.19,0.0283 -0.193,0.0095 z"
     id="path933"
     style="fill:none;stroke:#000000;stroke-opacity:1" />
  <path
     d="m 33.342,-84.723333 -0.19,-0.0283 -0.187,-0.0468 -0.182,-0.065 -0.174,-0.0825 -0.166,-0.0991 -0.155,-0.1148 -0.142,-0.1296 -0.13,-0.1429 -0.115,-0.1548 -0.099,-0.1653 -0.082,-0.1744 -0.065,-0.1816 -0.047,-0.187 -0.029,-0.1908 -0.009,-0.1926 0.009,-0.1926 0.029,-0.1907 0.047,-0.187 0.065,-0.1816 0.082,-0.1745 0.099,-0.1653 0.115,-0.1548 0.13,-0.1429 0.142,-0.1296 0.155,-0.1148 0.166,-0.0991 0.174,-0.0825 0.182,-0.065 0.187,-0.0468 0.19,-0.0283 0.193,-0.0094 0.193,0.0094 0.19,0.0283 0.187,0.0468 0.182,0.065 0.174,0.0825 0.166,0.0991 0.154,0.1148 0.143,0.1296 0.13,0.1429 0.115,0.1548 0.099,0.1653 0.082,0.1745 0.065,0.1816 0.047,0.187 0.028,0.1907 0.01,0.1926 -0.01,0.1926 -0.028,0.1908 -0.047,0.187 -0.065,0.1816 -0.082,0.1744 -0.099,0.1653 -0.115,0.1548 -0.13,0.1429 -0.143,0.1296 -0.154,0.1148 -0.166,0.0991 -0.174,0.0825 -0.182,0.065 -0.187,0.0468 -0.19,0.0283 -0.193,0.0095 z"
     id="path931"
     style="fill:none;stroke:#000000;stroke-opacity:1" />
  <path
     d="m 58.342,-84.723333 -0.19,-0.0283 -0.187,-0.0468 -0.182,-0.065 -0.174,-0.0825 -0.166,-0.0991 -0.155,-0.1148 -0.142,-0.1296 -0.13,-0.1429 -0.115,-0.1548 -0.099,-0.1653 -0.082,-0.1744 -0.065,-0.1816 -0.047,-0.187 -0.029,-0.1908 -0.009,-0.1926 0.009,-0.1926 0.029,-0.1907 0.047,-0.187 0.065,-0.1816 0.082,-0.1745 0.099,-0.1653 0.115,-0.1548 0.13,-0.1429 0.142,-0.1296 0.155,-0.1148 0.166,-0.0991 0.174,-0.0825 0.182,-0.065 0.187,-0.0468 0.19,-0.0283 0.193,-0.0094 0.193,0.0094 0.19,0.0283 0.187,0.0468 0.182,0.065 0.174,0.0825 0.166,0.0991 0.154,0.1148 0.143,0.1296 0.13,0.1429 0.115,0.1548 0.099,0.1653 0.082,0.1745 0.065,0.1816 0.047,0.187 0.028,0.1907 0.01,0.1926 -0.01,0.1926 -0.028,0.1908 -0.047,0.187 -0.065,0.1816 -0.082,0.1744 -0.099,0.1653 -0.115,0.1548 -0.13,0.1429 -0.143,0.1296 -0.154,0.1148 -0.166,0.0991 -0.174,0.0825 -0.182,0.065 -0.187,0.0468 -0.19,0.0283 -0.193,0.0095 z"
     id="path929"
     style="fill:none;stroke:#000000;stroke-opacity:1" />
  <path
     d="m 83.342,-84.723333 -0.19,-0.0283 -0.187,-0.0468 -0.182,-0.065 -0.174,-0.0825 -0.166,-0.0991 -0.155,-0.1148 -0.142,-0.1296 -0.13,-0.1429 -0.115,-0.1548 -0.099,-0.1653 -0.082,-0.1744 -0.065,-0.1816 -0.047,-0.187 -0.029,-0.1908 -0.009,-0.1926 0.009,-0.1926 0.029,-0.1907 0.047,-0.187 0.065,-0.1816 0.082,-0.1745 0.099,-0.1653 0.115,-0.1548 0.13,-0.1429 0.142,-0.1296 0.155,-0.1148 0.166,-0.0991 0.174,-0.0825 0.182,-0.065 0.187,-0.0468 0.19,-0.0283 0.193,-0.0094 0.193,0.0094 0.19,0.0283 0.187,0.0468 0.182,0.065 0.174,0.0825 0.166,0.0991 0.154,0.1148 0.143,0.1296 0.13,0.1429 0.115,0.1548 0.099,0.1653 0.082,0.1745 0.065,0.1816 0.047,0.187 0.028,0.1907 0.01,0.1926 -0.01,0.1926 -0.028,0.1908 -0.047,0.187 -0.065,0.1816 -0.082,0.1744 -0.099,0.1653 -0.115,0.1548 -0.13,0.1429 -0.143,0.1296 -0.154,0.1148 -0.166,0.0991 -0.174,0.0825 -0.182,0.065 -0.187,0.0468 -0.19,0.0283 -0.193,0.0095 z"
     id="path927"
     style="fill:none;stroke:#000000;stroke-opacity:1" />
  <path
     d="m 133.342,-84.723333 -0.19,-0.0283 -0.187,-0.0468 -0.182,-0.065 -0.174,-0.0825 -0.166,-0.0991 -0.155,-0.1148 -0.142,-0.1296 -0.13,-0.1429 -0.115,-0.1548 -0.099,-0.1653 -0.082,-0.1744 -0.065,-0.1816 -0.047,-0.187 -0.029,-0.1908 -0.009,-0.1926 0.009,-0.1926 0.029,-0.1907 0.047,-0.187 0.065,-0.1816 0.082,-0.1745 0.099,-0.1653 0.115,-0.1548 0.13,-0.1429 0.142,-0.1296 0.155,-0.1148 0.166,-0.0991 0.174,-0.0825 0.182,-0.065 0.187,-0.0468 0.19,-0.0283 0.193,-0.0094 0.193,0.0094 0.19,0.0283 0.187,0.0468 0.182,0.065 0.174,0.0825 0.166,0.0991 0.154,0.1148 0.143,0.1296 0.13,0.1429 0.115,0.1548 0.099,0.1653 0.082,0.1745 0.065,0.1816 0.047,0.187 0.028,0.1907 0.01,0.1926 -0.01,0.1926 -0.028,0.1908 -0.047,0.187 -0.065,0.1816 -0.082,0.1744 -0.099,0.1653 -0.115,0.1548 -0.13,0.1429 -0.143,0.1296 -0.154,0.1148 -0.166,0.0991 -0.174,0.0825 -0.182,0.065 -0.187,0.0468 -0.19,0.0283 -0.193,0.0095 z"
     id="path925"
     style="fill:none;stroke:#000000;stroke-opacity:1" />
  <path
     d="m 158.342,-84.723333 -0.19,-0.0283 -0.187,-0.0468 -0.182,-0.065 -0.174,-0.0825 -0.166,-0.0991 -0.155,-0.1148 -0.142,-0.1296 -0.13,-0.1429 -0.115,-0.1548 -0.099,-0.1653 -0.082,-0.1744 -0.065,-0.1816 -0.047,-0.187 -0.029,-0.1908 -0.009,-0.1926 0.009,-0.1926 0.029,-0.1907 0.047,-0.187 0.065,-0.1816 0.082,-0.1745 0.099,-0.1653 0.115,-0.1548 0.13,-0.1429 0.142,-0.1296 0.155,-0.1148 0.166,-0.0991 0.174,-0.0825 0.182,-0.065 0.187,-0.0468 0.19,-0.0283 0.193,-0.0094 0.193,0.0094 0.19,0.0283 0.187,0.0468 0.182,0.065 0.174,0.0825 0.166,0.0991 0.154,0.1148 0.143,0.1296 0.13,0.1429 0.115,0.1548 0.099,0.1653 0.082,0.1745 0.065,0.1816 0.047,0.187 0.028,0.1907 0.01,0.1926 -0.01,0.1926 -0.028,0.1908 -0.047,0.187 -0.065,0.1816 -0.082,0.1744 -0.099,0.1653 -0.115,0.1548 -0.13,0.1429 -0.143,0.1296 -0.154,0.1148 -0.166,0.0991 -0.174,0.0825 -0.182,0.065 -0.187,0.0468 -0.19,0.0283 -0.193,0.0095 z"
     id="path923"
     style="fill:none;stroke:#000000;stroke-opacity:1" />
  <path
     d="m 183.342,-84.723333 -0.19,-0.0283 -0.187,-0.0468 -0.182,-0.065 -0.174,-0.0825 -0.166,-0.0991 -0.155,-0.1148 -0.142,-0.1296 -0.13,-0.1429 -0.115,-0.1548 -0.099,-0.1653 -0.082,-0.1744 -0.065,-0.1816 -0.047,-0.187 -0.029,-0.1908 -0.009,-0.1926 0.009,-0.1926 0.029,-0.1907 0.047,-0.187 0.065,-0.1816 0.082,-0.1745 0.099,-0.1653 0.115,-0.1548 0.13,-0.1429 0.142,-0.1296 0.155,-0.1148 0.166,-0.0991 0.174,-0.0825 0.182,-0.065 0.187,-0.0468 0.19,-0.0283 0.193,-0.0094 0.193,0.0094 0.19,0.0283 0.187,0.0468 0.182,0.065 0.174,0.0825 0.166,0.0991 0.154,0.1148 0.143,0.1296 0.13,0.1429 0.115,0.1548 0.099,0.1653 0.082,0.1745 0.065,0.1816 0.047,0.187 0.028,0.1907 0.01,0.1926 -0.01,0.1926 -0.028,0.1908 -0.047,0.187 -0.065,0.1816 -0.082,0.1744 -0.099,0.1653 -0.115,0.1548 -0.13,0.1429 -0.143,0.1296 -0.154,0.1148 -0.166,0.0991 -0.174,0.0825 -0.182,0.065 -0.187,0.0468 -0.19,0.0283 -0.193,0.0095 z"
     id="path921"
     style="fill:none;stroke:#000000;stroke-opacity:1" />
  <path
     d="m 208.342,-84.723333 -0.19,-0.0283 -0.187,-0.0468 -0.182,-0.065 -0.174,-0.0825 -0.166,-0.0991 -0.155,-0.1148 -0.142,-0.1296 -0.13,-0.1429 -0.115,-0.1548 -0.099,-0.1653 -0.082,-0.1744 -0.065,-0.1816 -0.047,-0.187 -0.029,-0.1908 -0.009,-0.1926 0.009,-0.1926 0.029,-0.1907 0.047,-0.187 0.065,-0.1816 0.082,-0.1745 0.099,-0.1653 0.115,-0.1548 0.13,-0.1429 0.142,-0.1296 0.155,-0.1148 0.166,-0.0991 0.174,-0.0825 0.182,-0.065 0.187,-0.0468 0.19,-0.0283 0.193,-0.0094 0.193,0.0094 0.19,0.0283 0.187,0.0468 0.182,0.065 0.174,0.0825 0.166,0.0991 0.154,0.1148 0.143,0.1296 0.13,0.1429 0.115,0.1548 0.099,0.1653 0.082,0.1745 0.065,0.1816 0.047,0.187 0.028,0.1907 0.01,0.1926 -0.01,0.1926 -0.028,0.1908 -0.047,0.187 -0.065,0.1816 -0.082,0.1744 -0.099,0.1653 -0.115,0.1548 -0.13,0.1429 -0.143,0.1296 -0.154,0.1148 -0.166,0.0991 -0.174,0.0825 -0.182,0.065 -0.187,0.0468 -0.19,0.0283 -0.193,0.0095 z"
     id="path919"
     style="fill:none;stroke:#000000;stroke-opacity:1" />
  <path
     d="m 233.342,-84.723333 -0.19,-0.0283 -0.187,-0.0468 -0.182,-0.065 -0.174,-0.0825 -0.166,-0.0991 -0.155,-0.1148 -0.142,-0.1296 -0.13,-0.1429 -0.115,-0.1548 -0.099,-0.1653 -0.082,-0.1744 -0.065,-0.1816 -0.047,-0.187 -0.029,-0.1908 -0.009,-0.1926 0.009,-0.1926 0.029,-0.1907 0.047,-0.187 0.065,-0.1816 0.082,-0.1745 0.099,-0.1653 0.115,-0.1548 0.13,-0.1429 0.142,-0.1296 0.155,-0.1148 0.166,-0.0991 0.174,-0.0825 0.182,-0.065 0.187,-0.0468 0.19,-0.0283 0.193,-0.0094 0.193,0.0094 0.19,0.0283 0.187,0.0468 0.182,0.065 0.174,0.0825 0.166,0.0991 0.154,0.1148 0.143,0.1296 0.13,0.1429 0.115,0.1548 0.099,0.1653 0.082,0.1745 0.065,0.1816 0.047,0.187 0.028,0.1907 0.01,0.1926 -0.01,0.1926 -0.028,0.1908 -0.047,0.187 -0.065,0.1816 -0.082,0.1744 -0.099,0.1653 -0.115,0.1548 -0.13,0.1429 -0.143,0.1296 -0.154,0.1148 -0.166,0.0991 -0.174,0.0825 -0.182,0.065 -0.187,0.0468 -0.19,0.0283 -0.193,0.0095 z"
     id="path917"
     style="fill:none;stroke:#000000;stroke-opacity:1" />
  <path
     d="m 108.342,-84.723333 -0.19,-0.0283 -0.187,-0.0468 -0.182,-0.065 -0.174,-0.0825 -0.166,-0.0991 -0.155,-0.1148 -0.142,-0.1296 -0.13,-0.1429 -0.115,-0.1548 -0.099,-0.1653 -0.082,-0.1744 -0.065,-0.1816 -0.047,-0.187 -0.029,-0.1908 -0.009,-0.1926 0.009,-0.1926 0.029,-0.1907 0.047,-0.187 0.065,-0.1816 0.082,-0.1745 0.099,-0.1653 0.115,-0.1548 0.13,-0.1429 0.142,-0.1296 0.155,-0.1148 0.166,-0.0991 0.174,-0.0825 0.182,-0.065 0.187,-0.0468 0.19,-0.0283 0.193,-0.0094 0.193,0.0094 0.19,0.0283 0.187,0.0468 0.182,0.065 0.174,0.0825 0.166,0.0991 0.154,0.1148 0.143,0.1296 0.13,0.1429 0.115,0.1548 0.099,0.1653 0.082,0.1745 0.065,0.1816 0.047,0.187 0.028,0.1907 0.01,0.1926 -0.01,0.1926 -0.028,0.1908 -0.047,0.187 -0.065,0.1816 -0.082,0.1744 -0.099,0.1653 -0.115,0.1548 -0.13,0.1429 -0.143,0.1296 -0.154,0.1148 -0.166,0.0991 -0.174,0.0825 -0.182,0.065 -0.187,0.0468 -0.19,0.0283 -0.193,0.0095 z"
     id="path915"
     style="fill:none;stroke:#000000;stroke-opacity:1" />
  <path
     d="m 8.342,-105.97333 -0.19,-0.0283 -0.187,-0.0468 -0.182,-0.065 -0.174,-0.0825 -0.166,-0.0991 -0.155,-0.1148 -0.142,-0.1296 -0.13,-0.1429 -0.115,-0.1548 -0.099,-0.1657 -0.082,-0.174 -0.065,-0.182 -0.047,-0.187 -0.029,-0.19 -0.009,-0.193 0.009,-0.193 0.029,-0.19 0.047,-0.187 0.065,-0.182 0.082,-0.174 0.099,-0.166 0.115,-0.154 0.13,-0.143 0.142,-0.13 0.155,-0.115 0.166,-0.099 0.174,-0.082 0.182,-0.065 0.187,-0.047 0.19,-0.028 0.193,-0.01 0.193,0.01 0.19,0.028 0.187,0.047 0.182,0.065 0.174,0.082 0.166,0.099 0.154,0.115 0.143,0.13 0.13,0.143 0.115,0.154 0.099,0.166 0.082,0.174 0.065,0.182 0.047,0.187 0.028,0.19 0.01,0.193 -0.01,0.193 -0.028,0.19 -0.047,0.187 -0.065,0.182 -0.082,0.174 -0.099,0.1657 -0.115,0.1548 -0.13,0.1429 -0.143,0.1296 -0.154,0.1148 -0.166,0.0991 -0.174,0.0825 -0.182,0.065 -0.187,0.0468 -0.19,0.0283 -0.193,0.01 z"
     id="path913"
     style="fill:none;stroke:#000000;stroke-opacity:1" />
  <path
     d="m 33.342,-105.97333 -0.19,-0.0283 -0.187,-0.0468 -0.182,-0.065 -0.174,-0.0825 -0.166,-0.0991 -0.155,-0.1148 -0.142,-0.1296 -0.13,-0.1429 -0.115,-0.1548 -0.099,-0.1657 -0.082,-0.174 -0.065,-0.182 -0.047,-0.187 -0.029,-0.19 -0.009,-0.193 0.009,-0.193 0.029,-0.19 0.047,-0.187 0.065,-0.182 0.082,-0.174 0.099,-0.166 0.115,-0.154 0.13,-0.143 0.142,-0.13 0.155,-0.115 0.166,-0.099 0.174,-0.082 0.182,-0.065 0.187,-0.047 0.19,-0.028 0.193,-0.01 0.193,0.01 0.19,0.028 0.187,0.047 0.182,0.065 0.174,0.082 0.166,0.099 0.154,0.115 0.143,0.13 0.13,0.143 0.115,0.154 0.099,0.166 0.082,0.174 0.065,0.182 0.047,0.187 0.028,0.19 0.01,0.193 -0.01,0.193 -0.028,0.19 -0.047,0.187 -0.065,0.182 -0.082,0.174 -0.099,0.1657 -0.115,0.1548 -0.13,0.1429 -0.143,0.1296 -0.154,0.1148 -0.166,0.0991 -0.174,0.0825 -0.182,0.065 -0.187,0.0468 -0.19,0.0283 -0.193,0.01 z"
     id="path911"
     style="fill:none;stroke:#000000;stroke-opacity:1" />
  <path
     d="m 58.342,-105.97333 -0.19,-0.0283 -0.187,-0.0468 -0.182,-0.065 -0.174,-0.0825 -0.166,-0.0991 -0.155,-0.1148 -0.142,-0.1296 -0.13,-0.1429 -0.115,-0.1548 -0.099,-0.1657 -0.082,-0.174 -0.065,-0.182 -0.047,-0.187 -0.029,-0.19 -0.009,-0.193 0.009,-0.193 0.029,-0.19 0.047,-0.187 0.065,-0.182 0.082,-0.174 0.099,-0.166 0.115,-0.154 0.13,-0.143 0.142,-0.13 0.155,-0.115 0.166,-0.099 0.174,-0.082 0.182,-0.065 0.187,-0.047 0.19,-0.028 0.193,-0.01 0.193,0.01 0.19,0.028 0.187,0.047 0.182,0.065 0.174,0.082 0.166,0.099 0.154,0.115 0.143,0.13 0.13,0.143 0.115,0.154 0.099,0.166 0.082,0.174 0.065,0.182 0.047,0.187 0.028,0.19 0.01,0.193 -0.01,0.193 -0.028,0.19 -0.047,0.187 -0.065,0.182 -0.082,0.174 -0.099,0.1657 -0.115,0.1548 -0.13,0.1429 -0.143,0.1296 -0.154,0.1148 -0.166,0.0991 -0.174,0.0825 -0.182,0.065 -0.187,0.0468 -0.19,0.0283 -0.193,0.01 z"
     id="path909"
     style="fill:none;stroke:#000000;stroke-opacity:1" />
  <path
     d="m 83.342,-105.97333 -0.19,-0.0283 -0.187,-0.0468 -0.182,-0.065 -0.174,-0.0825 -0.166,-0.0991 -0.155,-0.1148 -0.142,-0.1296 -0.13,-0.1429 -0.115,-0.1548 -0.099,-0.1657 -0.082,-0.174 -0.065,-0.182 -0.047,-0.187 -0.029,-0.19 -0.009,-0.193 0.009,-0.193 0.029,-0.19 0.047,-0.187 0.065,-0.182 0.082,-0.174 0.099,-0.166 0.115,-0.154 0.13,-0.143 0.142,-0.13 0.155,-0.115 0.166,-0.099 0.174,-0.082 0.182,-0.065 0.187,-0.047 0.19,-0.028 0.193,-0.01 0.193,0.01 0.19,0.028 0.187,0.047 0.182,0.065 0.174,0.082 0.166,0.099 0.154,0.115 0.143,0.13 0.13,0.143 0.115,0.154 0.099,0.166 0.082,0.174 0.065,0.182 0.047,0.187 0.028,0.19 0.01,0.193 -0.01,0.193 -0.028,0.19 -0.047,0.187 -0.065,0.182 -0.082,0.174 -0.099,0.1657 -0.115,0.1548 -0.13,0.1429 -0.143,0.1296 -0.154,0.1148 -0.166,0.0991 -0.174,0.0825 -0.182,0.065 -0.187,0.0468 -0.19,0.0283 -0.193,0.01 z"
     id="path907"
     style="fill:none;stroke:#000000;stroke-opacity:1" />
  <path
     d="m 108.342,-105.97333 -0.19,-0.0283 -0.187,-0.0468 -0.182,-0.065 -0.174,-0.0825 -0.166,-0.0991 -0.155,-0.1148 -0.142,-0.1296 -0.13,-0.1429 -0.115,-0.1548 -0.099,-0.1657 -0.082,-0.174 -0.065,-0.182 -0.047,-0.187 -0.029,-0.19 -0.009,-0.193 0.009,-0.193 0.029,-0.19 0.047,-0.187 0.065,-0.182 0.082,-0.174 0.099,-0.166 0.115,-0.154 0.13,-0.143 0.142,-0.13 0.155,-0.115 0.166,-0.099 0.174,-0.082 0.182,-0.065 0.187,-0.047 0.19,-0.028 0.193,-0.01 0.193,0.01 0.19,0.028 0.187,0.047 0.182,0.065 0.174,0.082 0.166,0.099 0.154,0.115 0.143,0.13 0.13,0.143 0.115,0.154 0.099,0.166 0.082,0.174 0.065,0.182 0.047,0.187 0.028,0.19 0.01,0.193 -0.01,0.193 -0.028,0.19 -0.047,0.187 -0.065,0.182 -0.082,0.174 -0.099,0.1657 -0.115,0.1548 -0.13,0.1429 -0.143,0.1296 -0.154,0.1148 -0.166,0.0991 -0.174,0.0825 -0.182,0.065 -0.187,0.0468 -0.19,0.0283 -0.193,0.01 z"
     id="path905"
     style="fill:none;stroke:#000000;stroke-opacity:1" />
  <path
     d="m 133.342,-105.97333 -0.19,-0.0283 -0.187,-0.0468 -0.182,-0.065 -0.174,-0.0825 -0.166,-0.0991 -0.155,-0.1148 -0.142,-0.1296 -0.13,-0.1429 -0.115,-0.1548 -0.099,-0.1657 -0.082,-0.174 -0.065,-0.182 -0.047,-0.187 -0.029,-0.19 -0.009,-0.193 0.009,-0.193 0.029,-0.19 0.047,-0.187 0.065,-0.182 0.082,-0.174 0.099,-0.166 0.115,-0.154 0.13,-0.143 0.142,-0.13 0.155,-0.115 0.166,-0.099 0.174,-0.082 0.182,-0.065 0.187,-0.047 0.19,-0.028 0.193,-0.01 0.193,0.01 0.19,0.028 0.187,0.047 0.182,0.065 0.174,0.082 0.166,0.099 0.154,0.115 0.143,0.13 0.13,0.143 0.115,0.154 0.099,0.166 0.082,0.174 0.065,0.182 0.047,0.187 0.028,0.19 0.01,0.193 -0.01,0.193 -0.028,0.19 -0.047,0.187 -0.065,0.182 -0.082,0.174 -0.099,0.1657 -0.115,0.1548 -0.13,0.1429 -0.143,0.1296 -0.154,0.1148 -0.166,0.0991 -0.174,0.0825 -0.182,0.065 -0.187,0.0468 -0.19,0.0283 -0.193,0.01 z"
     id="path903"
     style="fill:none;stroke:#000000;stroke-opacity:1" />
  <path
     d="m 158.342,-105.97333 -0.19,-0.0283 -0.187,-0.0468 -0.182,-0.065 -0.174,-0.0825 -0.166,-0.0991 -0.155,-0.1148 -0.142,-0.1296 -0.13,-0.1429 -0.115,-0.1548 -0.099,-0.1657 -0.082,-0.174 -0.065,-0.182 -0.047,-0.187 -0.029,-0.19 -0.009,-0.193 0.009,-0.193 0.029,-0.19 0.047,-0.187 0.065,-0.182 0.082,-0.174 0.099,-0.166 0.115,-0.154 0.13,-0.143 0.142,-0.13 0.155,-0.115 0.166,-0.099 0.174,-0.082 0.182,-0.065 0.187,-0.047 0.19,-0.028 0.193,-0.01 0.193,0.01 0.19,0.028 0.187,0.047 0.182,0.065 0.174,0.082 0.166,0.099 0.154,0.115 0.143,0.13 0.13,0.143 0.115,0.154 0.099,0.166 0.082,0.174 0.065,0.182 0.047,0.187 0.028,0.19 0.01,0.193 -0.01,0.193 -0.028,0.19 -0.047,0.187 -0.065,0.182 -0.082,0.174 -0.099,0.1657 -0.115,0.1548 -0.13,0.1429 -0.143,0.1296 -0.154,0.1148 -0.166,0.0991 -0.174,0.0825 -0.182,0.065 -0.187,0.0468 -0.19,0.0283 -0.193,0.01 z"
     id="path901"
     style="fill:none;stroke:#000000;stroke-opacity:1" />
  <path
     d="m 183.342,-105.97333 -0.19,-0.0283 -0.187,-0.0468 -0.182,-0.065 -0.174,-0.0825 -0.166,-0.0991 -0.155,-0.1148 -0.142,-0.1296 -0.13,-0.1429 -0.115,-0.1548 -0.099,-0.1657 -0.082,-0.174 -0.065,-0.182 -0.047,-0.187 -0.029,-0.19 -0.009,-0.193 0.009,-0.193 0.029,-0.19 0.047,-0.187 0.065,-0.182 0.082,-0.174 0.099,-0.166 0.115,-0.154 0.13,-0.143 0.142,-0.13 0.155,-0.115 0.166,-0.099 0.174,-0.082 0.182,-0.065 0.187,-0.047 0.19,-0.028 0.193,-0.01 0.193,0.01 0.19,0.028 0.187,0.047 0.182,0.065 0.174,0.082 0.166,0.099 0.154,0.115 0.143,0.13 0.13,0.143 0.115,0.154 0.099,0.166 0.082,0.174 0.065,0.182 0.047,0.187 0.028,0.19 0.01,0.193 -0.01,0.193 -0.028,0.19 -0.047,0.187 -0.065,0.182 -0.082,0.174 -0.099,0.1657 -0.115,0.1548 -0.13,0.1429 -0.143,0.1296 -0.154,0.1148 -0.166,0.0991 -0.174,0.0825 -0.182,0.065 -0.187,0.0468 -0.19,0.0283 -0.193,0.01 z"
     id="path899"
     style="fill:none;stroke:#000000;stroke-opacity:1" />
  <path
     d="m 233.342,-105.97333 -0.19,-0.0283 -0.187,-0.0468 -0.182,-0.065 -0.174,-0.0825 -0.166,-0.0991 -0.155,-0.1148 -0.142,-0.1296 -0.13,-0.1429 -0.115,-0.1548 -0.099,-0.1657 -0.082,-0.174 -0.065,-0.182 -0.047,-0.187 -0.029,-0.19 -0.009,-0.193 0.009,-0.193 0.029,-0.19 0.047,-0.187 0.065,-0.182 0.082,-0.174 0.099,-0.166 0.115,-0.154 0.13,-0.143 0.142,-0.13 0.155,-0.115 0.166,-0.099 0.174,-0.082 0.182,-0.065 0.187,-0.047 0.19,-0.028 0.193,-0.01 0.193,0.01 0.19,0.028 0.187,0.047 0.182,0.065 0.174,0.082 0.166,0.099 0.154,0.115 0.143,0.13 0.13,0.143 0.115,0.154 0.099,0.166 0.082,0.174 0.065,0.182 0.047,0.187 0.028,0.19 0.01,0.193 -0.01,0.193 -0.028,0.19 -0.047,0.187 -0.065,0.182 -0.082,0.174 -0.099,0.1657 -0.115,0.1548 -0.13,0.1429 -0.143,0.1296 -0.154,0.1148 -0.166,0.0991 -0.174,0.0825 -0.182,0.065 -0.187,0.0468 -0.19,0.0283 -0.193,0.01 z"
     id="path897"
     style="fill:none;stroke:#000000;stroke-opacity:1" />
  <path
     d="m 208.342,-105.97333 -0.19,-0.0283 -0.187,-0.0468 -0.182,-0.065 -0.174,-0.0825 -0.166,-0.0991 -0.155,-0.1148 -0.142,-0.1296 -0.13,-0.1429 -0.115,-0.1548 -0.099,-0.1657 -0.082,-0.174 -0.065,-0.182 -0.047,-0.187 -0.029,-0.19 -0.009,-0.193 0.009,-0.193 0.029,-0.19 0.047,-0.187 0.065,-0.182 0.082,-0.174 0.099,-0.166 0.115,-0.154 0.13,-0.143 0.142,-0.13 0.155,-0.115 0.166,-0.099 0.174,-0.082 0.182,-0.065 0.187,-0.047 0.19,-0.028 0.193,-0.01 0.193,0.01 0.19,0.028 0.187,0.047 0.182,0.065 0.174,0.082 0.166,0.099 0.154,0.115 0.143,0.13 0.13,0.143 0.115,0.154 0.099,0.166 0.082,0.174 0.065,0.182 0.047,0.187 0.028,0.19 0.01,0.193 -0.01,0.193 -0.028,0.19 -0.047,0.187 -0.065,0.182 -0.082,0.174 -0.099,0.1657 -0.115,0.1548 -0.13,0.1429 -0.143,0.1296 -0.154,0.1148 -0.166,0.0991 -0.174,0.0825 -0.182,0.065 -0.187,0.0468 -0.19,0.0283 -0.193,0.01 z"
     id="path895"
     style="fill:none;stroke:#000000;stroke-opacity:1" />
  <path
     d="m 276.83957,-72.98902 -0.4854,-0.072 -0.47533,-0.11924 -0.46223,-0.16535 -0.44411,-0.20987 -0.41994,-0.25217 -0.39477,-0.29214 -0.36354,-0.32961 -0.32931,-0.36365 -0.29204,-0.39406 -0.25277,-0.42074 -0.20947,-0.44371 -0.16515,-0.46203 -0.11984,-0.47583 -0.0715,-0.4855 -0.0242,-0.49003 0.0242,-0.49003 0.0715,-0.4854 0.11984,-0.47593 0.16515,-0.46203 0.20947,-0.44371 0.25277,-0.42074 0.29204,-0.39396 0.32931,-0.36365 0.36354,-0.32961 0.39477,-0.29204 0.41994,-0.25277 0.44411,-0.20947 0.46223,-0.16515 0.47533,-0.11984 0.4854,-0.0715 0.49043,-0.0242 0.49043,0.0242 0.4854,0.0715 0.47533,0.11984 0.46223,0.16515 0.44411,0.20947 0.41994,0.25277 0.39477,0.29204 0.36354,0.32961 0.32931,0.36365 0.29204,0.39396 0.25277,0.42074 0.20947,0.44371 0.16515,0.46203 0.11984,0.47593 0.0715,0.4854 0.0242,0.49003 -0.0242,0.49013 -0.0715,0.4854 -0.11984,0.47583 -0.16515,0.46203 -0.20947,0.44371 -0.25277,0.42074 -0.29204,0.39406 -0.32931,0.36365 -0.36354,0.32961 -0.39477,0.29214 -0.41994,0.25217 -0.44411,0.20987 -0.46223,0.16535 -0.47533,0.11924 -0.4854,0.072 -0.49043,0.0241 z"
     id="path1852"
     style="fill:none;stroke:#000000;stroke-width:1.00705;stroke-dasharray:none;stroke-opacity:1" />
  <path
     d="m 251.83957,-72.98902 -0.4854,-0.072 -0.47533,-0.11924 -0.46223,-0.16535 -0.44411,-0.20987 -0.41994,-0.25217 -0.39477,-0.29214 -0.36354,-0.32961 -0.32931,-0.36365 -0.29204,-0.39406 -0.25277,-0.42074 -0.20947,-0.44371 -0.16515,-0.46203 -0.11984,-0.47583 -0.0715,-0.4855 -0.0242,-0.49003 0.0242,-0.49003 0.0715,-0.4854 0.11984,-0.47593 0.16515,-0.46203 0.20947,-0.44371 0.25277,-0.42074 0.29204,-0.39396 0.32931,-0.36365 0.36354,-0.32961 0.39477,-0.29204 0.41994,-0.25277 0.44411,-0.20947 0.46223,-0.16515 0.47533,-0.11984 0.4854,-0.0715 0.49043,-0.0242 0.49043,0.0242 0.4854,0.0715 0.47533,0.11984 0.46223,0.16515 0.44411,0.20947 0.41994,0.25277 0.39477,0.29204 0.36354,0.32961 0.32931,0.36365 0.29204,0.39396 0.25277,0.42074 0.20947,0.44371 0.16515,0.46203 0.11984,0.47593 0.0715,0.4854 0.0242,0.49003 -0.0242,0.49013 -0.0715,0.4854 -0.11984,0.47583 -0.16515,0.46203 -0.20947,0.44371 -0.25277,0.42074 -0.29204,0.39406 -0.32931,0.36365 -0.36354,0.32961 -0.39477,0.29214 -0.41994,0.25217 -0.44411,0.20987 -0.46223,0.16535 -0.47533,0.11924 -0.4854,0.072 -0.49043,0.0241 z"
     id="path1894"
     style="fill:none;stroke:#000000;stroke-width:1.00705;stroke-dasharray:none;stroke-opacity:1" />
  <path
     d="m 276.83957,-97.98907 -0.4854,-0.072 -0.47533,-0.11924 -0.46223,-0.16535 -0.44411,-0.20987 -0.41994,-0.25217 -0.39477,-0.29214 -0.36354,-0.32961 -0.32931,-0.36365 -0.29204,-0.39406 -0.25277,-0.42074 -0.20947,-0.44371 -0.16515,-0.46203 -0.11984,-0.47583 -0.0715,-0.4855 -0.0242,-0.49003 0.0242,-0.49003 0.0715,-0.4854 0.11984,-0.47593 0.16515,-0.46203 0.20947,-0.44371 0.25277,-0.42074 0.29204,-0.39396 0.32931,-0.36365 0.36354,-0.32961 0.39477,-0.29204 0.41994,-0.25277 0.44411,-0.20947 0.46223,-0.16515 0.47533,-0.11984 0.4854,-0.0715 0.49043,-0.0242 0.49043,0.0242 0.4854,0.0715 0.47533,0.11984 0.46223,0.16515 0.44411,0.20947 0.41994,0.25277 0.39477,0.29204 0.36354,0.32961 0.32931,0.36365 0.29204,0.39396 0.25277,0.42074 0.20947,0.44371 0.16515,0.46203 0.11984,0.47593 0.0715,0.4854 0.0242,0.49003 -0.0242,0.49013 -0.0715,0.4854 -0.11984,0.47583 -0.16515,0.46203 -0.20947,0.44371 -0.25277,0.42074 -0.29204,0.39406 -0.32931,0.36365 -0.36354,0.32961 -0.39477,0.29214 -0.41994,0.25217 -0.44411,0.20987 -0.46223,0.16535 -0.47533,0.11924 -0.4854,0.072 -0.49043,0.0241 z"
     id="path1896"
     style="fill:none;stroke:#000000;stroke-width:1.00705;stroke-dasharray:none;stroke-opacity:1" />
  <path
     d="m 251.83957,-97.98907 -0.4854,-0.072 -0.47533,-0.11924 -0.46223,-0.16535 -0.44411,-0.20987 -0.41994,-0.25217 -0.39477,-0.29214 -0.36354,-0.32961 -0.32931,-0.36365 -0.29204,-0.39406 -0.25277,-0.42074 -0.20947,-0.44371 -0.16515,-0.46203 -0.11984,-0.47583 -0.0715,-0.4855 -0.0242,-0.49003 0.0242,-0.49003 0.0715,-0.4854 0.11984,-0.47593 0.16515,-0.46203 0.20947,-0.44371 0.25277,-0.42074 0.29204,-0.39396 0.32931,-0.36365 0.36354,-0.32961 0.39477,-0.29204 0.41994,-0.25277 0.44411,-0.20947 0.46223,-0.16515 0.47533,-0.11984 0.4854,-0.0715 0.49043,-0.0242 0.49043,0.0242 0.4854,0.0715 0.47533,0.11984 0.46223,0.16515 0.44411,0.20947 0.41994,0.25277 0.39477,0.29204 0.36354,0.32961 0.32931,0.36365 0.29204,0.39396 0.25277,0.42074 0.20947,0.44371 0.16515,0.46203 0.11984,0.47593 0.0715,0.4854 0.0242,0.49003 -0.0242,0.49013 -0.0715,0.4854 -0.11984,0.47583 -0.16515,0.46203 -0.20947,0.44371 -0.25277,0.42074 -0.29204,0.39406 -0.32931,0.36365 -0.36354,0.32961 -0.39477,0.29214 -0.41994,0.25217 -0.44411,0.20987 -0.46223,0.16535 -0.47533,0.11924 -0.4854,0.072 -0.49043,0.0241 z"
     id="path1898"
     style="fill:none;stroke:#000000;stroke-width:1.00705;stroke-dasharray:none;stroke-opacity:1" />
</svg>
