<?xml version="1.0" encoding="UTF-8" standalone="no"?>
<svg
   width="965mm"
   height="228mm"
   viewBox="-1 -227 965 228"
   version="1.1"
   id="svg6"
   sodipodi:docname="bh-side.svg"
   inkscape:version="1.2.1 (9c6d41e410, 2022-07-14)"
   xmlns:inkscape="http://www.inkscape.org/namespaces/inkscape"
   xmlns:sodipodi="http://sodipodi.sourceforge.net/DTD/sodipodi-0.dtd"
   xmlns="http://www.w3.org/2000/svg"
   xmlns:svg="http://www.w3.org/2000/svg">
  <defs
     id="defs10" />
  <sodipodi:namedview
     id="namedview8"
     pagecolor="#ffffff"
     bordercolor="#666666"
     borderopacity="1.0"
     inkscape:showpageshadow="2"
     inkscape:pageopacity="0.0"
     inkscape:pagecheckerboard="0"
     inkscape:deskcolor="#d1d1d1"
     inkscape:document-units="mm"
     showgrid="false"
     inkscape:zoom="3.0612585"
     inkscape:cx="340.21955"
     inkscape:cy="237.81069"
     inkscape:window-width="2560"
     inkscape:window-height="1389"
     inkscape:window-x="0"
     inkscape:window-y="27"
     inkscape:window-maximized="1"
     inkscape:current-layer="svg6" />
  <title
     id="title2">OpenSCAD Model</title>
  <g
     id="g4018"
     transform="translate(0,-42.987)">
    <path
       style="fill:none;stroke:#000000;stroke-opacity:1"
       d="m 154.52,-174.0833 v 3 h -6.17 v -3 z"
       id="path1097" />
    <path
       style="fill:none;stroke:#000000;stroke-opacity:1"
       d="m 142.04,-174.0833 v 3 h -6.17 v -3 z"
       id="path1093" />
    <path
       style="fill:none;stroke:#000000;stroke-opacity:1"
       d="m 129.56,-174.0833 v 3 h -6.17 v -3 z"
       id="path1089" />
    <path
       style="fill:none;stroke:#000000;stroke-opacity:1"
       d="m 117.08,-174.0833 v 3 h -6.17 v -3 z"
       id="path1085" />
    <path
       style="fill:none;stroke:#000000;stroke-opacity:1"
       d="m 104.6,-174.0833 v 3 h -6.17 v -3 z"
       id="path1081" />
    <path
       style="fill:none;stroke:#000000;stroke-opacity:1"
       d="m 92.12,-174.0833 v 3 h -6.17 v -3 z"
       id="path1077" />
    <path
       style="fill:none;stroke:#000000;stroke-opacity:1"
       d="m 79.64,-174.0833 v 3 h -6.17 v -3 z"
       id="path1073" />
    <path
       style="fill:none;stroke:#000000;stroke-opacity:1"
       d="m 60.99,-174.0833 v 3 h 6.17 v -2.9997"
       id="path1069"
       sodipodi:nodetypes="cccc" />
    <path
       style="fill:none;stroke:#000000;stroke-opacity:1"
       d="m 54.68,-174.0833 h 6.31"
       id="path1067" />
    <path
       style="fill:none;stroke:#000000;stroke-opacity:1"
       d="m 48.51,-174.0833 v 3 h 6.17 v -3"
       id="path1065" />
    <path
       style="fill:none;stroke:#000000;stroke-opacity:1"
       d="m 42.2,-174.0833 h 6.31"
       id="path1063" />
    <path
       style="fill:none;stroke:#000000;stroke-opacity:1"
       d="m 36.03,-174.0833 v 3 h 6.17 v -3"
       id="path1061" />
    <path
       style="fill:none;stroke:#000000;stroke-opacity:1"
       d="m 29.72,-174.0833 h 6.31"
       id="path1059" />
    <path
       style="fill:none;stroke:#000000;stroke-opacity:1"
       d="m 23.55,-174.0833 v 3 h 6.17 v -3"
       id="path1057" />
    <path
       style="fill:none;stroke:#000000;stroke-opacity:1"
       d="m 176.07,-174.0833 v 7 h 3 v 6.07 h -3 v 7 H 167 v -3 h -6.17 v 3 h -6.31 v -3 h -6.17 v 3 h -6.31 v -3 h -6.17 v 3 h -6.31 v -3 h -6.17 v 3 h -6.31 v -3 h -6.17 v 3 h -6.31 v -3 h -6.17 v 3 h -6.31 v -3 h -6.17 v 3 h -6.31 v -3 h -6.17 v 3 h -6.31 v -3 h -6.17 v 3 h -6.31 v -3 h -6.17 v 3 H 42.2 v -3 h -6.17 v 3 h -6.31 v -3 h -6.17 v 3 h -6.31 v -3 h -6.17 v 3 H 2 v -7 h -3 v -6.07 h 3 v -7 h 9.07 v 3 h 6.17 v -3"
       id="path1133" />
    <path
       style="fill:none;stroke:#000000;stroke-opacity:1"
       d="m 167,-174.0833 v 3 h -6.17 v -3 z"
       id="path1129" />
    <path
       style="fill:none;stroke:#000000;stroke-opacity:1"
       d="m 17.24,-174.0833 h 6.31"
       id="path1011" />
    <path
       style="fill:none;stroke:#000000;stroke-opacity:1"
       d="M 176.07,-173.93749 V -184.013 H 167 v 3 h -6.17 v -3 h -6.31 v 3 h -6.17 v -3 h -6.31 v 3 h -6.17 v -3 h -6.31 v 3 h -6.17 v -3 h -6.31 v 3 h -6.17 v -3 h -6.31 v 3 h -6.17 v -3 h -6.31 v 3 h -6.17 v -3 h -6.31 v 3 h -8.6 v 6.93 h -3.754227"
       id="path3954"
       sodipodi:nodetypes="cccccccccccccccccccccccccccccccccc" />
  </g>
</svg>
