<?xml version="1.0" encoding="UTF-8" standalone="no"?>
<!-- Created with Inkscape (http://www.inkscape.org/) -->

<svg
   width="210mm"
   height="297mm"
   viewBox="0 0 210 297"
   version="1.1"
   id="svg1"
   inkscape:version="1.4.3 (0d15f75042, 2025-12-25)"
   sodipodi:docname="fantemplate.svg"
   xmlns:inkscape="http://www.inkscape.org/namespaces/inkscape"
   xmlns:sodipodi="http://sodipodi.sourceforge.net/DTD/sodipodi-0.dtd"
   xmlns="http://www.w3.org/2000/svg"
   xmlns:svg="http://www.w3.org/2000/svg">
  <sodipodi:namedview
     id="namedview1"
     pagecolor="#ffffff"
     bordercolor="#666666"
     borderopacity="1.0"
     inkscape:showpageshadow="2"
     inkscape:pageopacity="0.0"
     inkscape:pagecheckerboard="0"
     inkscape:deskcolor="#d1d1d1"
     inkscape:document-units="mm"
     inkscape:zoom="5.4106635"
     inkscape:cx="75.499059"
     inkscape:cy="75.591469"
     inkscape:window-width="1920"
     inkscape:window-height="1029"
     inkscape:window-x="0"
     inkscape:window-y="27"
     inkscape:window-maximized="1"
     inkscape:current-layer="layer1" />
  <defs
     id="defs1" />
  <g
     inkscape:label="Layer 1"
     inkscape:groupmode="layer"
     id="layer1">
    <path
       id="rect1"
       style="fill:none;stroke:#000000;stroke-width:0.0905258"
       d="M 0 0 L 0 15.000118 L 0 25.000024 L 0 40.000142 L 40.000142 40.000142 L 40.000142 25.000024 L 40.000142 15.000118 L 40.000142 0 L 0 0 z M 19.999813 1.5001668 A 18.5 18.5 0 0 1 37.811646 15.000118 L 2.1884969 15.000118 A 18.5 18.5 0 0 1 19.999813 1.5001668 z M 2.1884969 25.000024 L 37.811646 25.000024 A 18.5 18.5 0 0 1 19.999813 38.499976 A 18.5 18.5 0 0 1 2.1884969 25.000024 z " />
    <circle
       style="fill:none;stroke:#000000;stroke-width:0.106047"
       id="path1"
       cx="4"
       cy="4"
       r="1.5" />
    <circle
       style="fill:none;stroke:#000000;stroke-width:0.106047"
       id="circle1"
       cx="36"
       cy="4"
       r="1.5" />
    <circle
       style="fill:none;stroke:#000000;stroke-width:0.106047"
       id="circle2"
       cx="36"
       cy="36"
       r="1.5" />
    <circle
       style="fill:none;stroke:#000000;stroke-width:0.106047"
       id="circle3"
       cx="4"
       cy="36"
       r="1.5" />
    <circle
       style="fill:none;stroke:#000000;stroke-width:0.106047"
       id="circle4"
       cx="20.000071"
       cy="20.000071"
       r="1.5" />
  </g>
</svg>
