<?xml version="1.0" encoding="UTF-8" standalone="no"?>
<svg
   width="1921mm"
   height="502mm"
   viewBox="0 -502 1921 502"
   version="1.1"
   id="svg1"
   sodipodi:docname="smd3-bot.svg"
   inkscape:version="1.3 (0e150ed6c4, 2023-07-21)"
   xmlns:inkscape="http://www.inkscape.org/namespaces/inkscape"
   xmlns:sodipodi="http://sodipodi.sourceforge.net/DTD/sodipodi-0.dtd"
   xmlns="http://www.w3.org/2000/svg"
   xmlns:svg="http://www.w3.org/2000/svg">
  <defs
     id="defs1" />
  <sodipodi:namedview
     id="namedview1"
     pagecolor="#ffffff"
     bordercolor="#666666"
     borderopacity="1.0"
     inkscape:showpageshadow="2"
     inkscape:pageopacity="0.0"
     inkscape:pagecheckerboard="0"
     inkscape:deskcolor="#d1d1d1"
     inkscape:document-units="mm"
     inkscape:zoom="0.19613049"
     inkscape:cx="3630.2362"
     inkscape:cy="950.89754"
     inkscape:window-width="2560"
     inkscape:window-height="1389"
     inkscape:window-x="0"
     inkscape:window-y="27"
     inkscape:window-maximized="1"
     inkscape:current-layer="svg1" />
  <title
     id="title1">OpenSCAD Model</title>
  <path
     d="m 9,-305 h 6 v 3 h 6 v -3 h 6 v 3 h 6 v -3 h 6 v 3 h 6 v -3 h 6 v 3 h 6 v -3 h 6 v 3 h 6 v -3 h 6 v 3 h 6 v -3 h 6 v 3 h 6 v -3 h 6 v 3 h 6 v -3 h 6 v 3 h 6 v -3 h 6 v 3 h 6 v -3 h 6 v 3 h 6 v -3 h 6 v 3 h 6 v -3 h 6 v 3 h 6 v -3 h 6 v 3 h 6 v -3 h 6 v 3 h 6 v -3 h 6 v 3 h 6 v -3 h 6 v 3 h 6 v -3 h 6 v 3 h 6 v -3 h 6 v 3 h 9 v -9 h -3 v -6.2758 h 3 v -6.2759 h -3 v -6.2759 h 3 v -6.2758 h -3 v -6.2759 h 3 v -6.2759 h -3 v -6.2758 h 3 v -6.2759 h -3 v -6.2759 h 3 v -6.2758 h -3 v -6.2759 h 3 v -6.2758 h -3 v -6.2759 h 3 v -6.2759 h -3 v -6.2759 h 3 v -6.276 h -3 v -6.276 h 3 v -6.276 h -3 v -6.275 h 3 v -6.276 h -3 v -6.276 h 3 v -6.276 h -3 v -6.276 h 3 v -6.276 h -3 v -6.276 h 3 v -6.275 h -3 v -6.276 h 3 v -6.276 h -3 V -493 h 3 v -9 H 0 v 9 h 3 v 6.276 H 0 v 6.276 h 3 v 6.276 H 0 v 6.275 h 3 v 6.276 H 0 v 6.276 h 3 v 6.276 H 0 v 6.276 h 3 v 6.276 H 0 v 6.276 h 3 v 6.275 H 0 v 6.276 h 3 v 6.276 H 0 v 6.276 h 3 v 6.2759 H 0 v 6.2759 h 3 v 6.2759 H 0 v 6.2758 h 3 v 6.2759 H 0 v 6.2758 h 3 v 6.2759 H 0 v 6.2759 h 3 v 6.2758 H 0 v 6.2759 h 3 v 6.2758 H 0 v 6.2759 h 3 v 6.2759 H 0 v 6.2758 H 3 V -311 H 0 v 9 h 9 z"
     id="path221"
     style="fill:none;stroke:#000000;stroke-opacity:1" />
</svg>
