<?xml version="1.0" encoding="UTF-8" standalone="no"?>
<svg
   width="1921mm"
   height="502mm"
   viewBox="0 -502 1921 502"
   version="1.1"
   id="svg1"
   sodipodi:docname="smd3-div1.svg"
   inkscape:version="1.3 (0e150ed6c4, 2023-07-21)"
   xmlns:inkscape="http://www.inkscape.org/namespaces/inkscape"
   xmlns:sodipodi="http://sodipodi.sourceforge.net/DTD/sodipodi-0.dtd"
   xmlns="http://www.w3.org/2000/svg"
   xmlns:svg="http://www.w3.org/2000/svg">
  <defs
     id="defs1" />
  <sodipodi:namedview
     id="namedview1"
     pagecolor="#ffffff"
     bordercolor="#666666"
     borderopacity="1.0"
     inkscape:showpageshadow="2"
     inkscape:pageopacity="0.0"
     inkscape:pagecheckerboard="0"
     inkscape:deskcolor="#d1d1d1"
     inkscape:document-units="mm"
     inkscape:zoom="1.1406725"
     inkscape:cx="448.858"
     inkscape:cy="453.67972"
     inkscape:window-width="1444"
     inkscape:window-height="1243"
     inkscape:window-x="1230"
     inkscape:window-y="113"
     inkscape:window-maximized="0"
     inkscape:current-layer="svg1" />
  <title
     id="title1">OpenSCAD Model</title>
  <path
     id="path1"
     style="fill:none;stroke:#000000;stroke-opacity:1"
     d="m 40,-265 h 5.414 v 3 h 6.069 v -3 h 6.069 v 3 h 6.069 v -3 h 6.069 v 3 h 6.069 v -3 h 6.069 v 3 h 6.069 v -3 h 6.069 v 3 h 6.068 v -3 h 6.069 v 3 h 6.069 v -3 h 6.069 v 3 h 6.069 v -3 h 6.069 v 3 h 6.069 v -3 h 6.069 v 3 h 6.069 v -3 h 6.069 v 3 h 6.069 v -3 h 6.069 v 3 h 6.069 v -3 h 6.069 v 3 H 185 v -3 h 12 v -234 h -12 v -3 h -6.069 v 3 h -6.069 v -3 h -6.069 v 3 h -6.069 v -3 h -6.069 v 3 h -6.069 v -3 h -6.069 v 3 h -6.069 v -3 h -6.069 v 3 h -6.069 v -3 h -6.069 v 3 h -6.069 v -3 h -6.069 v 3 h -6.069 v -3 h -6.068 v 3 h -6.069 v -3 h -6.069 v 3 h -6.069 v -3 H 69.69 v 3 h -6.069 v -3 h -6.069 v 3 h -6.069 v -3 h -6.069 v 3 H 40 Z" />
</svg>
