<?xml version="1.0" encoding="UTF-8" standalone="no"?>
<svg
   width="1667mm"
   height="447mm"
   viewBox="0 -447 1667 447"
   version="1.1"
   id="svg6"
   sodipodi:docname="cabinet-divider.svg"
   inkscape:version="1.2.1 (9c6d41e410, 2022-07-14, custom)"
   xmlns:inkscape="http://www.inkscape.org/namespaces/inkscape"
   xmlns:sodipodi="http://sodipodi.sourceforge.net/DTD/sodipodi-0.dtd"
   xmlns="http://www.w3.org/2000/svg"
   xmlns:svg="http://www.w3.org/2000/svg">
  <defs
     id="defs10" />
  <sodipodi:namedview
     id="namedview8"
     pagecolor="#ffffff"
     bordercolor="#666666"
     borderopacity="1.0"
     inkscape:showpageshadow="2"
     inkscape:pageopacity="0.0"
     inkscape:pagecheckerboard="0"
     inkscape:deskcolor="#d1d1d1"
     inkscape:document-units="mm"
     showgrid="false"
     inkscape:zoom="0.20696861"
     inkscape:cx="3157.4836"
     inkscape:cy="845.53885"
     inkscape:window-width="2560"
     inkscape:window-height="1389"
     inkscape:window-x="0"
     inkscape:window-y="27"
     inkscape:window-maximized="1"
     inkscape:current-layer="svg6" />
  <title
     id="title2">OpenSCAD Model</title>
  <path
     d="m 413.5,-239 h 3 v -6.03 h -3 v -6.031 h 3 v -6.03 h -3 v -6.03 h 3 v -6.03 h -3 v -6.031 h 3 v -6.03 h -3 v -6.03 h 3 v -6.031 h -3 v -6.03 h 3 v -6.03 h -3 v -6.031 h 3 v -6.03 h -3 v -6.03 h 3 v -6.031 h -3 v -6.03 h 3 v -6.03 h -3 v -6.03 h 3 v -6.031 h -3 v -6.03 h 3 v -6.03 h -3 v -6.031 h 3 v -6.03 h -3 v -6.03 h 3 v -6.031 h -3 v -6.03 h 3 v -6.03 h -3 v -6.03 h 3 v -6.031 h -3 v -6.03 h 3 v -6.03 h -3 v -6.031 h 3 V -438 h -3 v -9 H 3 v 9 H 0 v 6.03 h 3 v 6.031 H 0 v 6.03 h 3 v 6.03 H 0 v 6.031 h 3 v 6.03 H 0 v 6.03 h 3 v 6.03 H 0 v 6.031 h 3 v 6.03 H 0 v 6.03 h 3 v 6.031 H 0 v 6.03 h 3 v 6.03 H 0 v 6.031 h 3 v 6.03 H 0 v 6.03 h 3 v 6.03 H 0 v 6.031 h 3 v 6.03 H 0 v 6.03 h 3 v 6.031 H 0 v 6.03 h 3 v 6.03 H 0 v 6.031 h 3 v 6.03 H 0 v 6.03 h 3 v 6.03 H 0 v 6.031 h 3 v 6.03 H 0 v 6.03 h 3 v 6.031 H 0 v 6.03 h 3 v 12 h 410.5 z"
     id="path691"
     style="fill:none;stroke:#000000;stroke-opacity:1" />
</svg>
