<?xml version="1.0" encoding="UTF-8" standalone="no"?>
<svg
   width="1667mm"
   height="447mm"
   viewBox="0 -447 1667 447"
   version="1.1"
   id="svg6"
   sodipodi:docname="cabinet-topbot.svg"
   inkscape:version="1.2.1 (9c6d41e410, 2022-07-14, custom)"
   xmlns:inkscape="http://www.inkscape.org/namespaces/inkscape"
   xmlns:sodipodi="http://sodipodi.sourceforge.net/DTD/sodipodi-0.dtd"
   xmlns="http://www.w3.org/2000/svg"
   xmlns:svg="http://www.w3.org/2000/svg">
  <defs
     id="defs10">
    <rect
       x="469.0672"
       y="268.38452"
       width="674.01936"
       height="190.65397"
       id="rect842" />
  </defs>
  <sodipodi:namedview
     id="namedview8"
     pagecolor="#ffffff"
     bordercolor="#666666"
     borderopacity="1.0"
     inkscape:showpageshadow="2"
     inkscape:pageopacity="0.0"
     inkscape:pagecheckerboard="0"
     inkscape:deskcolor="#d1d1d1"
     inkscape:document-units="mm"
     showgrid="false"
     inkscape:zoom="1.3276697"
     inkscape:cx="778.43156"
     inkscape:cy="421.79165"
     inkscape:window-width="1920"
     inkscape:window-height="1029"
     inkscape:window-x="0"
     inkscape:window-y="27"
     inkscape:window-maximized="1"
     inkscape:current-layer="svg6" />
  <title
     id="title2">OpenSCAD Model</title>
  <path
     d="m 9,-227 h 6.1308 v 3 h 6.1307 v -3 h 6.1308 v 3 h 6.1308 v -3 h 6.1307 v 3 h 6.1308 v -3 h 6.1308 v 3 h 6.1307 v -3 h 6.1308 v 3 h 6.1308 v -3 h 6.1308 v 3 h 6.1307 v -3 H 88.7 v 3 h 6.1308 v -3 h 6.1312 v 3 h 6.13 v -3 h 6.131 v 3 h 6.131 v -3 h 6.131 v 3 h 6.13 v -3 h 6.131 v 3 h 6.131 v -3 h 6.131 v 3 h 6.13 v -3 h 6.131 v 3 h 6.131 v -3 h 6.131 v 3 h 6.131 v -3 h 6.13 v 3 h 6.131 v -3 h 6.131 v 3 h 6.131 v -3 h 6.13 v 3 h 6.131 v -3 h 6.131 v 3 h 6.131 v -3 h 6.13 v 3 h 6.131 v -3 h 6.131 v 3 h 6.131 v -3 h 6.131 v 3 h 6.13 v -3 h 6.131 v 3 h 6.131 v -3 h 6.131 v 3 h 6.13 v -3 h 6.131 v 3 h 6.131 v -3 h 6.131 v 3 h 6.13 v -3 h 6.131 v 3 h 6.131 v -3 h 6.131 v 3 h 6.131 v -3 h 6.13 v 3 h 6.131 v -3 h 6.131 v 3 h 6.131 v -3 h 6.13 v 3 h 6.131 v -3 h 6.131 v 3 h 6.131 v -3 h 6.13 v 3 h 6.131 v -3 h 6.131 v 3 h 9 v -9 h -3 v -6.2121 h 3 v -6.2121 h -3 v -6.2122 h 3 v -6.2121 h -3 v -6.2121 h 3 v -6.2121 h -3 v -6.2121 h 3 v -6.2122 h -3 v -6.2121 h 3 v -6.2121 h -3 v -6.2121 h 3 v -6.2121 h -3 v -6.2122 h 3 v -6.2121 h -3 v -6.2123 h 3 v -6.212 h -3 v -6.212 h 3 v -6.212 h -3 v -6.212 h 3 v -6.212 h -3 v -6.213 h 3 v -6.212 h -3 v -6.212 h 3 v -6.212 h -3 v -6.212 h 3 v -6.212 h -3 v -6.212 h 3 v -6.212 h -3 v -6.213 h 3 v -6.212 h -3 v -6.212 h 3 v -6.212 h -3 V -438 h 3 v -9 H 0 v 9 h 3 v 6.212 H 0 v 6.212 h 3 v 6.212 H 0 v 6.212 h 3 v 6.213 H 0 v 6.212 h 3 v 6.212 H 0 v 6.212 h 3 v 6.212 H 0 v 6.212 h 3 v 6.212 H 0 v 6.212 h 3 v 6.213 H 0 v 6.212 h 3 v 6.212 H 0 v 6.212 h 3 v 6.212 H 0 v 6.212 h 3 v 6.2123 H 0 v 6.2121 h 3 v 6.2121 H 0 v 6.2122 h 3 v 6.2121 H 0 v 6.2121 h 3 v 6.2121 H 0 v 6.2121 h 3 v 6.2122 H 0 v 6.2121 h 3 v 6.2121 H 0 v 6.2121 h 3 v 6.2121 H 0 v 6.2122 H 3 V -233 H 0 v 9 h 9 z"
     id="path905"
     style="fill:none;stroke:#000000;stroke-opacity:1" />
  <path
     d="m 95.75265,-337.05223 h 19.16994 v 27.16388 q -4.50144,1.47461 -9.0805,2.17311 -4.57905,0.6985 -10.399885,0.6985 -8.614832,0 -14.513275,-3.41488 -5.898444,-3.4925 -9.002888,-9.85661 -3.026833,-6.44172 -3.026833,-15.21178 0,-8.69244 3.414889,-15.05655 3.414888,-6.36411 9.778998,-9.85661 6.441721,-3.57011 15.52222,-3.57011 4.656664,0 8.770054,0.85372 4.191,0.85372 7.76111,2.40594 l -2.63878,6.05367 q -2.94922,-1.31939 -6.67455,-2.25072 -3.64772,-0.93134 -7.605889,-0.93134 -9.934221,0 -15.52222,5.97606 -5.510388,5.97605 -5.510388,16.37594 0,6.59694 2.095499,11.71928 2.173111,5.04472 6.752166,7.91633 4.579055,2.794 12.02972,2.794 3.647722,0 6.208892,-0.38806 2.56116,-0.38805 4.65666,-0.93133 v -16.45355 H 95.75265 Z"
     style="font-size:77.6111px;line-height:1.25;-inkscape-font-specification:'sans-serif, Normal';fill:none;stroke-width:0.264583;stroke:#ff0000;stroke-opacity:1"
     id="path845" />
  <path
     d="m 159.16097,-307.79285 h -30.96683 v -55.41432 h 30.96683 v 6.13128 h -23.98183 v 17.30727 h 22.58483 v 6.05367 h -22.58483 v 19.79083 h 23.98183 z"
     style="font-size:77.6111px;line-height:1.25;-inkscape-font-specification:'sans-serif, Normal';fill:none;stroke-width:0.264583;stroke:#ff0000;stroke-opacity:1"
     id="path847" />
  <path
     d="m 210.38427,-363.20717 -19.79083,55.41432 h -6.985 l -19.79083,-55.41432 h 7.29545 l 12.49538,35.54588 q 1.24178,3.41489 2.0955,6.44172 0.85372,2.94922 1.397,5.66561 0.54328,-2.71639 1.397,-5.74322 0.85372,-3.02683 2.0955,-6.51933 l 12.41778,-35.39066 z"
     style="font-size:77.6111px;line-height:1.25;-inkscape-font-specification:'sans-serif, Normal';fill:none;stroke-width:0.264583;stroke:#ff0000;stroke-opacity:1"
     id="path849" />
  <path
     d="m 233.51242,-307.79285 h -20.02367 v -4.03577 l 6.51933,-1.47461 v -44.31594 l -6.51933,-1.55222 v -4.03578 h 20.02367 v 4.03578 l -6.51934,1.55222 v 44.31594 l 6.51934,1.47461 z"
     style="font-size:77.6111px;line-height:1.25;-inkscape-font-specification:'sans-serif, Normal';fill:none;stroke-width:0.264583;stroke:#ff0000;stroke-opacity:1"
     id="path851" />
  <path
     d="m 288.15068,-307.79285 h -8.14917 l -29.64744,-46.02338 h -0.31044 q 0.15522,2.71639 0.38805,6.75217 0.23284,4.03577 0.23284,8.30438 v 30.96683 h -6.44172 v -55.41432 h 8.07155 l 29.56983,45.86816 h 0.31044 q -0.0776,-1.24178 -0.23283,-3.72533 -0.0776,-2.48356 -0.23283,-5.43278 -0.0776,-2.94922 -0.0776,-5.43278 v -31.27727 h 6.51933 z"
     style="font-size:77.6111px;line-height:1.25;-inkscape-font-specification:'sans-serif, Normal';fill:none;stroke-width:0.264583;stroke:#ff0000;stroke-opacity:1"
     id="path853" />
  <path
     d="m 347.6008,-336.04329 q 0,14.04761 -7.6835,21.18783 -7.60589,7.06261 -21.26544,7.06261 h -15.44461 v -55.41432 h 17.07444 q 8.382,0 14.51327,3.10444 6.13128,3.10445 9.46856,9.15811 3.33728,5.97606 3.33728,14.90133 z m -7.37306,0.23284 q 0,-11.09839 -5.51039,-16.22072 -5.43277,-5.19995 -15.44461,-5.19995 h -9.08049 v 43.46222 h 7.52827 q 22.50722,0 22.50722,-22.04155 z"
     style="font-size:77.6111px;line-height:1.25;-inkscape-font-specification:'sans-serif, Normal';fill:none;stroke-width:0.264583;stroke:#ff0000;stroke-opacity:1"
     id="path855" />
</svg>
