<?xml version="1.0" encoding="UTF-8" standalone="no"?>
<svg
   width="2051mm"
   height="236mm"
   viewBox="0 -236 2051 236"
   version="1.1"
   id="svg6"
   sodipodi:docname="drills-sides-2.svg"
   inkscape:version="1.2.1 (9c6d41e410, 2022-07-14)"
   xmlns:inkscape="http://www.inkscape.org/namespaces/inkscape"
   xmlns:sodipodi="http://sodipodi.sourceforge.net/DTD/sodipodi-0.dtd"
   xmlns="http://www.w3.org/2000/svg"
   xmlns:svg="http://www.w3.org/2000/svg"
   xmlns:rdf="http://www.w3.org/1999/02/22-rdf-syntax-ns#"
   xmlns:cc="http://creativecommons.org/ns#"
   xmlns:dc="http://purl.org/dc/elements/1.1/">
  <defs
     id="defs10" />
  <sodipodi:namedview
     id="namedview8"
     pagecolor="#ffffff"
     bordercolor="#666666"
     borderopacity="1.0"
     inkscape:showpageshadow="2"
     inkscape:pageopacity="0.0"
     inkscape:pagecheckerboard="0"
     inkscape:deskcolor="#d1d1d1"
     inkscape:document-units="mm"
     showgrid="false"
     inkscape:zoom="0.60886304"
     inkscape:cx="1186.638"
     inkscape:cy="52.556976"
     inkscape:window-width="1920"
     inkscape:window-height="1029"
     inkscape:window-x="0"
     inkscape:window-y="27"
     inkscape:window-maximized="1"
     inkscape:current-layer="svg6" />
  <title
     id="title2">OpenSCAD Model</title>
  <g
     id="g1650"
     transform="translate(-411.69192)">
    <g
       id="g1637"
       transform="translate(10.583333)">
      <rect
         style="fill:none;stroke:#000000;stroke-width:0.165741"
         id="rect3356"
         width="39.5"
         height="12"
         x="408.51685"
         y="-219.64151"
         ry="0" />
      <rect
         style="fill:none;stroke:#000000;stroke-width:0.165741"
         id="rect3358"
         width="39.5"
         height="12"
         x="449.2627"
         y="-219.64151"
         ry="0" />
      <rect
         style="fill:none;stroke:#000000;stroke-width:0.165741"
         id="rect3362"
         width="39.5"
         height="12"
         x="490.00861"
         y="-219.64151"
         ry="0" />
      <rect
         style="fill:none;stroke:#000000;stroke-width:0.165741"
         id="rect3364"
         width="39.5"
         height="12"
         x="530.75446"
         y="-219.64151"
         ry="0" />
      <rect
         style="fill:none;stroke:#000000;stroke-width:0.165741"
         id="rect3366"
         width="39.5"
         height="12"
         x="571.50024"
         y="-219.64151"
         ry="0" />
    </g>
    <path
       d="m 454.19192,-229 v -5 h 3.01 v 5 z"
       id="path721"
       style="fill:none;stroke:#000000;stroke-opacity:1" />
    <path
       d="m 498.19192,-229 v -5 h 3.01 v 5 z"
       id="path719"
       style="fill:none;stroke:#000000;stroke-opacity:1" />
    <path
       d="m 542.19192,-229 v -5 h 3.01 v 5 z"
       id="path717"
       style="fill:none;stroke:#000000;stroke-opacity:1" />
    <path
       d="m 586.19192,-229 v -5 h 3.01 v 5 z"
       id="path715"
       style="fill:none;stroke:#000000;stroke-opacity:1" />
    <path
       d="m 423.69192,-224 h 6.323 v 3 h 6.322 v -3 h 6.323 v 3 h 6.322 v -3 h 6.323 v 3 h 6.322 v -3 h 6.323 v 3 h 6.323 v -3 h 6.322 v 3 h 6.323 v -3 h 6.322 v 3 h 6.323 v -3 h 6.323 v 3 h 6.322 v -3 h 6.323 v 3 h 6.322 v -3 h 6.323 v 3 h 6.322 v -3 h 6.323 v 3 h 6.323 v -3 h 6.322 v 3 h 6.323 v -3 h 6.322 v 3 h 6.323 v -3 h 6.323 v 3 h 6.322 v -3 h 6.323 v 3 h 6.32 v -3 h 6.32 v 3 h 6.33 v -3 h 6.32 v 3 h 9 v -5 h 3 v -5 h -3 v -5 h -214 v 5 h -3 v 5 h 3 v 5 h 9 z"
       id="path713"
       style="fill:none;stroke:#000000;stroke-opacity:1" />
  </g>
  <metadata
     id="metadata1083">
    <rdf:RDF>
      <cc:Work
         rdf:about="">
        <dc:title>OpenSCAD Model</dc:title>
      </cc:Work>
    </rdf:RDF>
  </metadata>
</svg>
