<?xml version="1.0" encoding="UTF-8" standalone="no"?>
<svg
   width="2051mm"
   height="236mm"
   viewBox="0 -236 2051 236"
   version="1.1"
   id="svg6"
   sodipodi:docname="drills-sides-1.svg"
   inkscape:version="1.2.1 (9c6d41e410, 2022-07-14)"
   xmlns:inkscape="http://www.inkscape.org/namespaces/inkscape"
   xmlns:sodipodi="http://sodipodi.sourceforge.net/DTD/sodipodi-0.dtd"
   xmlns="http://www.w3.org/2000/svg"
   xmlns:svg="http://www.w3.org/2000/svg"
   xmlns:rdf="http://www.w3.org/1999/02/22-rdf-syntax-ns#"
   xmlns:cc="http://creativecommons.org/ns#"
   xmlns:dc="http://purl.org/dc/elements/1.1/">
  <defs
     id="defs10" />
  <sodipodi:namedview
     id="namedview8"
     pagecolor="#ffffff"
     bordercolor="#666666"
     borderopacity="1.0"
     inkscape:showpageshadow="2"
     inkscape:pageopacity="0.0"
     inkscape:pagecheckerboard="0"
     inkscape:deskcolor="#d1d1d1"
     inkscape:document-units="mm"
     showgrid="false"
     inkscape:zoom="1.3486669"
     inkscape:cx="774.46849"
     inkscape:cy="52.644579"
     inkscape:window-width="2560"
     inkscape:window-height="1389"
     inkscape:window-x="0"
     inkscape:window-y="27"
     inkscape:window-maximized="1"
     inkscape:current-layer="svg6" />
  <title
     id="title2">OpenSCAD Model</title>
  <path
     d="m 9,-224 h 6.0308 v 3 h 6.0307 v -3 h 6.0308 v 3 h 6.0308 v -3 h 6.0307 v 3 h 6.0308 v -3 h 6.0308 v 3 h 6.0307 v -3 h 6.0308 v 3 h 6.0308 v -3 h 6.0308 v 3 h 6.0307 v -3 H 87.4 v 3 h 6.0308 v -3 h 6.0307 v 3 h 6.0305 v -3 h 6.031 v 3 h 6.031 v -3 h 6.031 v 3 h 6.03 v -3 h 6.031 v 3 h 6.031 v -3 h 6.031 v 3 h 6.03 v -3 h 6.031 v 3 h 6.031 v -3 h 6.031 v 3 h 6.031 v -3 h 6.03 v 3 h 6.031 v -3 h 6.031 v 3 h 6.031 v -3 h 6.03 v 3 h 6.031 v -3 h 6.031 v 3 h 6.031 v -3 h 6.03 v 3 h 6.031 v -3 h 6.031 v 3 h 6.031 v -3 h 6.031 v 3 h 6.03 v -3 h 6.031 v 3 h 6.031 v -3 h 6.031 v 3 h 6.03 v -3 h 6.031 v 3 h 6.031 v -3 h 6.031 v 3 h 6.03 v -3 h 6.031 v 3 h 6.031 v -3 h 6.031 v 3 h 6.031 v -3 h 6.03 v 3 h 6.031 v -3 h 6.031 v 3 h 6.031 v -3 h 6.03 v 3 h 6.031 v -3 h 6.031 v 3 h 6.031 v -3 h 6.03 v 3 h 6.031 v -3 H 401 v 3 h 9 v -5 h -3 v -5 h 3 v -5 H 0 v 5 h 3 v 5 H 0 v 5 h 9 z"
     id="path701"
     style="fill:none;stroke:#000000;stroke-opacity:1" />
  <rect
     style="fill:none;stroke:#000000;stroke-width:0.168859"
     id="rect1762"
     width="41"
     height="12"
     x="-5.6843419e-14"
     y="-219.642"
     ry="0" />
  <metadata
     id="metadata1083">
    <rdf:RDF>
      <cc:Work
         rdf:about="">
        <dc:title>OpenSCAD Model</dc:title>
      </cc:Work>
    </rdf:RDF>
  </metadata>
  <rect
     style="fill:none;stroke:#000000;stroke-width:0.168859"
     id="rect2117"
     width="41"
     height="12"
     x="42.333332"
     y="-219.642"
     ry="0" />
  <rect
     style="fill:none;stroke:#000000;stroke-width:0.168859"
     id="rect2119"
     width="41"
     height="12"
     x="84.666664"
     y="-219.642"
     ry="0" />
  <rect
     style="fill:none;stroke:#000000;stroke-width:0.168859"
     id="rect2121"
     width="41"
     height="12"
     x="126.99998"
     y="-219.642"
     ry="0" />
  <rect
     style="fill:none;stroke:#000000;stroke-width:0.168859"
     id="rect2123"
     width="41"
     height="12"
     x="169.33334"
     y="-219.642"
     ry="0" />
  <rect
     style="fill:none;stroke:#000000;stroke-width:0.168859"
     id="rect2125"
     width="41"
     height="12"
     x="211.66672"
     y="-219.642"
     ry="0" />
  <rect
     style="fill:none;stroke:#000000;stroke-width:0.168859"
     id="rect2127"
     width="41"
     height="12"
     x="254.00009"
     y="-219.642"
     ry="0" />
  <rect
     style="fill:none;stroke:#000000;stroke-width:0.168859"
     id="rect2129"
     width="41"
     height="12"
     x="296.33334"
     y="-219.642"
     ry="0" />
  <rect
     style="fill:none;stroke:#000000;stroke-width:0.168859"
     id="rect2131"
     width="41"
     height="12"
     x="338.6666"
     y="-219.642"
     ry="0" />
  <rect
     style="fill:none;stroke:#000000;stroke-width:0.168859"
     id="rect2133"
     width="41"
     height="12"
     x="338.6666"
     y="-219.642"
     ry="0" />
</svg>
