<?xml version="1.0" encoding="UTF-8" standalone="no"?>
<svg
   width="2051mm"
   height="236mm"
   viewBox="0 -236 2051 236"
   version="1.1"
   id="svg6"
   sodipodi:docname="drills-bot.svg"
   inkscape:version="1.2.1 (9c6d41e410, 2022-07-14)"
   xmlns:inkscape="http://www.inkscape.org/namespaces/inkscape"
   xmlns:sodipodi="http://sodipodi.sourceforge.net/DTD/sodipodi-0.dtd"
   xmlns="http://www.w3.org/2000/svg"
   xmlns:svg="http://www.w3.org/2000/svg">
  <defs
     id="defs10" />
  <sodipodi:namedview
     id="namedview8"
     pagecolor="#ffffff"
     bordercolor="#666666"
     borderopacity="1.0"
     inkscape:showpageshadow="2"
     inkscape:pageopacity="0.0"
     inkscape:pagecheckerboard="0"
     inkscape:deskcolor="#d1d1d1"
     inkscape:document-units="mm"
     showgrid="false"
     inkscape:zoom="0.27038598"
     inkscape:cx="3874.0914"
     inkscape:cy="447.50841"
     inkscape:window-width="2560"
     inkscape:window-height="1389"
     inkscape:window-x="0"
     inkscape:window-y="27"
     inkscape:window-maximized="1"
     inkscape:current-layer="svg6" />
  <title
     id="title2">OpenSCAD Model</title>
  <path
     d="m 15.0308,-18.01 h 6.0307 v 3 h 6.0308 v -3 h 6.0308 v 3 h 6.0307 v -3 h 6.0308 v 3 h 6.0308 v -3 h 6.0307 v 3 h 6.0308 v -3 h 6.0308 v 3 h 6.0308 v -3 h 6.0307 v 3 H 87.4 v -3 h 6.0308 v 3 h 6.0307 v -3 h 6.0305 v 3 h 6.031 v -3 h 6.031 v 3 h 6.031 v -3 h 6.03 v 3 h 6.031 v -3 h 6.031 v 3 h 6.031 v -3 h 6.03 v 3 h 6.031 v -3 h 6.031 v 3 h 6.031 v -3 h 6.031 v 3 h 6.03 v -3 h 6.031 v 3 h 6.031 v -3 h 6.031 v 3 h 6.03 v -3 h 6.031 v 3 h 6.031 v -3 h 6.031 v 3 h 6.03 v -3 h 6.031 v 3 h 6.031 v -3 h 6.031 v 3 h 6.031 v -3 h 6.03 v 3 h 6.031 v -3 h 6.031 v 3 h 6.031 v -3 h 6.03 v 3 h 6.031 v -3 h 6.031 v 3 h 6.031 v -3 h 6.03 v 3 h 6.031 v -3 h 6.031 v 3 h 6.031 v -3 h 6.031 v 3 h 6.03 v -3 h 6.031 v 3 h 6.031 v -3 h 6.031 v 3 h 6.03 v -3 h 6.031 v 3 h 6.031 v -3 h 6.031 v 3 h 6.03 v -3 h 6.031 v 3 H 401 v -3 h 6 v -9 h 3 v -6.3226 h -3 v -6.3226 h 3 v -6.3225 h -3 v -6.3226 h 3 v -6.3226 h -3 v -6.3226 h 3 v -6.3226 h -3 v -6.3225 h 3 v -6.3226 h -3 v -6.3226 h 3 v -6.3226 h -3 v -6.3226 h 3 v -6.323 h -3 v -6.322 h 3 v -6.323 h -3 v -6.322 h 3 v -6.323 h -3 v -6.322 h 3 v -6.323 h -3 v -6.323 h 3 v -6.322 h -3 v -6.323 h 3 v -6.322 h -3 v -6.323 h 3 v -6.323 h -3 v -6.322 h 3 v -6.323 h -3 v -6.322 h 3 v -6.323 h -3 v -6.322 h 3 v -6.323 h -3 v -9 h -6 v -3 h -6.031 v 3 h -6.031 v -3 h -6.03 v 3 h -6.031 v -3 h -6.031 v 3 h -6.031 v -3 h -6.03 v 3 h -6.031 v -3 h -6.031 v 3 h -6.031 v -3 h -6.03 v 3 h -6.031 v -3 H 322.6 v 3 h -6.031 v -3 h -6.031 v 3 h -6.03 v -3 h -6.031 v 3 h -6.031 v -3 h -6.031 v 3 h -6.03 v -3 h -6.031 v 3 h -6.031 v -3 h -6.031 v 3 h -6.03 v -3 h -6.031 v 3 H 244.2 v -3 h -6.031 v 3 h -6.031 v -3 h -6.03 v 3 h -6.031 v -3 h -6.031 v 3 h -6.031 v -3 h -6.03 v 3 h -6.031 v -3 h -6.031 v 3 h -6.031 v -3 h -6.03 v 3 h -6.031 v -3 H 165.8 v 3 h -6.031 v -3 h -6.031 v 3 h -6.03 v -3 h -6.031 v 3 h -6.031 v -3 h -6.031 v 3 h -6.03 v -3 h -6.031 v 3 h -6.031 v -3 h -6.031 v 3 h -6.0305 v -3 h -6.0307 v 3 H 87.4 v -3 h -6.0308 v 3 h -6.0307 v -3 h -6.0308 v 3 h -6.0308 v -3 h -6.0307 v 3 h -6.0308 v -3 h -6.0308 v 3 h -6.0307 v -3 h -6.0308 v 3 h -6.0308 v -3 h -6.0308 v 3 h -6.0307 v -3 H 9 v 3 H 3 v 9 H 0 v 6.323 h 3 v 6.322 H 0 v 6.323 h 3 v 6.322 H 0 v 6.323 h 3 v 6.322 H 0 v 6.323 h 3 v 6.323 H 0 v 6.322 h 3 v 6.323 H 0 v 6.322 h 3 v 6.323 H 0 v 6.323 h 3 v 6.322 H 0 v 6.323 h 3 v 6.322 H 0 v 6.323 h 3 v 6.322 H 0 v 6.323 h 3 v 6.3226 H 0 v 6.3226 h 3 v 6.3226 H 0 v 6.3225 h 3 v 6.3226 H 0 v 6.3226 h 3 v 6.3226 H 0 v 6.3226 h 3 v 6.3226 H 0 v 6.3225 h 3 v 6.3226 H 0 v 6.3226 h 3 v 9 h 6 v 3 h 6.0308 z"
     id="path4"
     style="fill:none;stroke:#000000;stroke-opacity:1" />
</svg>
