<?xml version="1.0" encoding="UTF-8" standalone="no"?>
<svg
   width="965mm"
   height="228mm"
   viewBox="-1 -227 965 228"
   version="1.1"
   id="svg6"
   sodipodi:docname="bh-front.svg"
   inkscape:version="1.2.1 (9c6d41e410, 2022-07-14)"
   xmlns:inkscape="http://www.inkscape.org/namespaces/inkscape"
   xmlns:sodipodi="http://sodipodi.sourceforge.net/DTD/sodipodi-0.dtd"
   xmlns="http://www.w3.org/2000/svg"
   xmlns:svg="http://www.w3.org/2000/svg">
  <defs
     id="defs10" />
  <sodipodi:namedview
     id="namedview8"
     pagecolor="#ffffff"
     bordercolor="#666666"
     borderopacity="1.0"
     inkscape:showpageshadow="2"
     inkscape:pageopacity="0.0"
     inkscape:pagecheckerboard="0"
     inkscape:deskcolor="#d1d1d1"
     inkscape:document-units="mm"
     showgrid="false"
     inkscape:zoom="0.35753022"
     inkscape:cx="1825.0206"
     inkscape:cy="430.73282"
     inkscape:window-width="2560"
     inkscape:window-height="1389"
     inkscape:window-x="0"
     inkscape:window-y="27"
     inkscape:window-maximized="1"
     inkscape:current-layer="svg6" />
  <title
     id="title2">OpenSCAD Model</title>
  <path
     d="m 8.0700037,-209.93 h 5.9300003 v 3 h 6.07 v -3 h 5.93 v 3 h 6.07 v -3 h 5.93 v 3 h 6.07 v -3 h 5.93 v 3 h 6.07 v -3 h 5.93 v 3 h 6.07 v -3 h 5.93 v 3 h 6.07 v -3 h 5.93 v 3 h 6.07 v -3 h 5.93 v 3 H 104.07 v -3 H 110 v 3 h 6.07 v -3 H 122 v 3 h 6.07 v -3 H 134 v 3 h 6.07 v -3 H 146 v 3 h 6.07 v -3 H 158 v 3 h 6.07 v -3 H 170 v 3 h 6.07 v -3 H 182 v 3 h 6.07 v -3 H 194 v 3 h 6.07 v -3 H 206 v 3 h 6.07 v -3 H 218 v 3 h 6.07 v -3 H 230 v 3 h 6.07 v -3 H 242 v 3 h 6.07 v -3 H 254 v 3 h 6.07 v -3 H 266 v 3 h 6.07 v -3 H 278 v 3 h 6.07 v -3 H 290 v 3 h 9.07 V -214 h -3 v -5.93 h 3 V -227 H 290 v 3 h -5.93 v -3 H 278 v 3 h -5.93 v -3 H 266 v 3 h -5.93 v -3 H 254 v 3 h -5.93 v -3 H 242 v 3 h -5.93 v -3 H 230 v 3 h -5.93 v -3 H 218 v 3 h -5.93 v -3 H 206 v 3 h -5.93 v -3 H 194 v 3 h -5.93 v -3 H 182 v 3 h -5.93 v -3 H 170 v 3 h -5.93 v -3 H 158 v 3 h -5.93 v -3 H 146 v 3 h -5.93 v -3 H 134 v 3 h -5.93 v -3 H 122 v 3 h -5.93 v -3 H 110 v 3 h -5.93 v -3 h -6.069996 v 3 h -5.93 v -3 h -6.07 v 3 h -5.93 v -3 h -6.07 v 3 h -5.93 v -3 h -6.07 v 3 h -5.93 v -3 h -6.07 v 3 h -5.93 v -3 h -6.07 v 3 h -5.93 v -3 h -6.07 v 3 h -5.93 v -3 h -6.07 v 3 H 8.0700037 v -3 H -1 v 7.07 H 2.0000037 V -214 H -1 v 7.07 h 9.0700037 z"
     id="path1013"
     style="fill:none;stroke:#000000;stroke-opacity:1" />
</svg>
