<?xml version="1.0" encoding="UTF-8" standalone="no"?>
<svg
   width="965mm"
   height="228mm"
   viewBox="-1 -227 965 228"
   version="1.1"
   id="svg6"
   sodipodi:docname="bh-level1.svg"
   inkscape:version="1.2.1 (9c6d41e410, 2022-07-14)"
   xmlns:inkscape="http://www.inkscape.org/namespaces/inkscape"
   xmlns:sodipodi="http://sodipodi.sourceforge.net/DTD/sodipodi-0.dtd"
   xmlns="http://www.w3.org/2000/svg"
   xmlns:svg="http://www.w3.org/2000/svg">
  <defs
     id="defs10" />
  <sodipodi:namedview
     id="namedview8"
     pagecolor="#ffffff"
     bordercolor="#666666"
     borderopacity="1.0"
     inkscape:showpageshadow="2"
     inkscape:pageopacity="0.0"
     inkscape:pagecheckerboard="0"
     inkscape:deskcolor="#d1d1d1"
     inkscape:document-units="mm"
     showgrid="false"
     inkscape:zoom="3.6646887"
     inkscape:cx="968.84082"
     inkscape:cy="491.44693"
     inkscape:window-width="1920"
     inkscape:window-height="1029"
     inkscape:window-x="0"
     inkscape:window-y="27"
     inkscape:window-maximized="1"
     inkscape:current-layer="svg6" />
  <title
     id="title2">OpenSCAD Model</title>
  <g
     id="g2669"
     transform="translate(-302.045,-98.91)">
    <path
       d="m 418.115,-17.035 v -2.94 h 5.93 v 2.94 z"
       id="path1009"
       style="fill:none;stroke:#000000;stroke-opacity:1" />
    <path
       d="m 406.115,-17.035 v -2.94 h 5.93 v 2.94 z"
       id="path1007"
       style="fill:none;stroke:#000000;stroke-opacity:1" />
    <path
       d="m 442.115,-17.035 v -2.94 h 5.93 v 2.94 z"
       id="path1005"
       style="fill:none;stroke:#000000;stroke-opacity:1" />
    <path
       d="m 394.115,-17.035 v -2.94 h 5.93 v 2.94 z"
       id="path1003"
       style="fill:none;stroke:#000000;stroke-opacity:1" />
    <path
       d="m 382.115,-17.035 v -2.94 h 5.93 v 2.94 z"
       id="path1001"
       style="fill:none;stroke:#000000;stroke-opacity:1" />
    <path
       d="m 370.115,-17.035 v -2.94 h 5.93 v 2.94 z"
       id="path999"
       style="fill:none;stroke:#000000;stroke-opacity:1" />
    <path
       d="m 358.115,-17.035 v -2.94 h 5.93 v 2.94 z"
       id="path997"
       style="fill:none;stroke:#000000;stroke-opacity:1" />
    <path
       d="m 346.115,-17.035 v -2.94 h 5.93 v 2.94 z"
       id="path995"
       style="fill:none;stroke:#000000;stroke-opacity:1" />
    <path
       d="m 334.115,-17.035 v -2.94 h 5.93 v 2.94 z"
       id="path993"
       style="fill:none;stroke:#000000;stroke-opacity:1" />
    <path
       d="m 322.115,-17.035 v -2.94 h 5.93 v 2.94 z"
       id="path991"
       style="fill:none;stroke:#000000;stroke-opacity:1" />
    <path
       d="m 310.115,-17.035 v -2.94 h 5.93 v 2.94 z"
       id="path989"
       style="fill:none;stroke:#000000;stroke-opacity:1" />
    <path
       d="m 430.115,-17.035 v -2.94 h 5.93 v 2.94 z"
       id="path987"
       style="fill:none;stroke:#000000;stroke-opacity:1" />
    <path
       d="m 490.115,-17.035 v -2.94 h 5.93 v 2.94 z"
       id="path985"
       style="fill:none;stroke:#000000;stroke-opacity:1" />
    <path
       d="m 586.115,-17.035 v -2.94 h 5.93 v 2.94 z"
       id="path983"
       style="fill:none;stroke:#000000;stroke-opacity:1" />
    <path
       d="m 574.115,-17.035 v -2.94 h 5.93 v 2.94 z"
       id="path981"
       style="fill:none;stroke:#000000;stroke-opacity:1" />
    <path
       d="m 562.115,-17.035 v -2.94 h 5.93 v 2.94 z"
       id="path979"
       style="fill:none;stroke:#000000;stroke-opacity:1" />
    <path
       d="m 550.115,-17.035 v -2.94 h 5.93 v 2.94 z"
       id="path977"
       style="fill:none;stroke:#000000;stroke-opacity:1" />
    <path
       d="m 538.115,-17.035 v -2.94 h 5.93 v 2.94 z"
       id="path975"
       style="fill:none;stroke:#000000;stroke-opacity:1" />
    <path
       d="m 526.115,-17.035 v -2.94 h 5.93 v 2.94 z"
       id="path973"
       style="fill:none;stroke:#000000;stroke-opacity:1" />
    <path
       d="m 514.115,-17.035 v -2.94 h 5.93 v 2.94 z"
       id="path971"
       style="fill:none;stroke:#000000;stroke-opacity:1" />
    <path
       d="m 502.115,-17.035 v -2.94 h 5.93 v 2.94 z"
       id="path969"
       style="fill:none;stroke:#000000;stroke-opacity:1" />
    <path
       d="m 478.115,-17.035 v -2.94 h 5.93 v 2.94 z"
       id="path967"
       style="fill:none;stroke:#000000;stroke-opacity:1" />
    <path
       d="m 466.115,-17.035 v -2.94 h 5.93 v 2.94 z"
       id="path965"
       style="fill:none;stroke:#000000;stroke-opacity:1" />
    <path
       d="m 454.115,-17.035 v -2.94 h 5.93 v 2.94 z"
       id="path963"
       style="fill:none;stroke:#000000;stroke-opacity:1" />
  </g>
  <path
     d="m 211.383,-57.92 -0.151,-0.0224 -0.148,-0.0369 -0.143,-0.0514 -0.138,-0.0652 -0.131,-0.0783 -0.122,-0.0907 -0.113,-0.1023 -0.102,-0.113 -0.091,-0.1223 -0.078,-0.1305 -0.065,-0.1379 -0.052,-0.1435 -0.037,-0.1477 -0.022,-0.1507 -0.007,-0.1522 0.007,-0.1521 0.022,-0.1508 0.037,-0.1476 0.052,-0.1436 0.065,-0.1379 0.078,-0.1305 0.091,-0.1223 0.102,-0.1129 0.113,-0.1024 0.122,-0.0907 0.131,-0.0783 0.138,-0.0652 0.143,-0.0513 0.148,-0.037 0.151,-0.0224 0.152,-0.0074 0.152,0.0074 0.151,0.0224 0.148,0.037 0.143,0.0513 0.138,0.0652 0.13,0.0783 0.123,0.0907 0.113,0.1024 0.102,0.1129 0.091,0.1223 0.078,0.1305 0.065,0.1379 0.052,0.1436 0.037,0.1476 0.022,0.1508 0.007,0.1521 -0.007,0.1522 -0.022,0.1507 -0.037,0.1477 -0.052,0.1435 -0.065,0.1379 -0.078,0.1305 -0.091,0.1223 -0.102,0.113 -0.113,0.1023 -0.123,0.0907 -0.13,0.0783 -0.138,0.0652 -0.143,0.0514 -0.148,0.0369 -0.151,0.0224 -0.152,0.0075 z"
     id="path957"
     style="fill:none;stroke:#000000;stroke-opacity:1" />
  <path
     d="m 186.383,-57.92 -0.151,-0.0224 -0.148,-0.0369 -0.143,-0.0514 -0.138,-0.0652 -0.131,-0.0783 -0.122,-0.0907 -0.113,-0.1023 -0.102,-0.113 -0.091,-0.1223 -0.078,-0.1305 -0.065,-0.1379 -0.052,-0.1435 -0.037,-0.1477 -0.022,-0.1507 -0.007,-0.1522 0.007,-0.1521 0.022,-0.1508 0.037,-0.1476 0.052,-0.1436 0.065,-0.1379 0.078,-0.1305 0.091,-0.1223 0.102,-0.1129 0.113,-0.1024 0.122,-0.0907 0.131,-0.0783 0.138,-0.0652 0.143,-0.0513 0.148,-0.037 0.151,-0.0224 0.152,-0.0074 0.152,0.0074 0.151,0.0224 0.148,0.037 0.143,0.0513 0.138,0.0652 0.13,0.0783 0.123,0.0907 0.113,0.1024 0.102,0.1129 0.091,0.1223 0.078,0.1305 0.065,0.1379 0.052,0.1436 0.037,0.1476 0.022,0.1508 0.007,0.1521 -0.007,0.1522 -0.022,0.1507 -0.037,0.1477 -0.052,0.1435 -0.065,0.1379 -0.078,0.1305 -0.091,0.1223 -0.102,0.113 -0.113,0.1023 -0.123,0.0907 -0.13,0.0783 -0.138,0.0652 -0.143,0.0514 -0.148,0.0369 -0.151,0.0224 -0.152,0.0075 z"
     id="path955"
     style="fill:none;stroke:#000000;stroke-opacity:1" />
  <path
     d="m 161.383,-57.92 -0.151,-0.0224 -0.148,-0.0369 -0.143,-0.0514 -0.138,-0.0652 -0.131,-0.0783 -0.122,-0.0907 -0.113,-0.1023 -0.102,-0.113 -0.091,-0.1223 -0.078,-0.1305 -0.065,-0.1379 -0.052,-0.1435 -0.037,-0.1477 -0.022,-0.1507 -0.007,-0.1522 0.007,-0.1521 0.022,-0.1508 0.037,-0.1476 0.052,-0.1436 0.065,-0.1379 0.078,-0.1305 0.091,-0.1223 0.102,-0.1129 0.113,-0.1024 0.122,-0.0907 0.131,-0.0783 0.138,-0.0652 0.143,-0.0513 0.148,-0.037 0.151,-0.0224 0.152,-0.0074 0.152,0.0074 0.151,0.0224 0.148,0.037 0.143,0.0513 0.138,0.0652 0.13,0.0783 0.123,0.0907 0.113,0.1024 0.102,0.1129 0.091,0.1223 0.078,0.1305 0.065,0.1379 0.052,0.1436 0.037,0.1476 0.022,0.1508 0.007,0.1521 -0.007,0.1522 -0.022,0.1507 -0.037,0.1477 -0.052,0.1435 -0.065,0.1379 -0.078,0.1305 -0.091,0.1223 -0.102,0.113 -0.113,0.1023 -0.123,0.0907 -0.13,0.0783 -0.138,0.0652 -0.143,0.0514 -0.148,0.0369 -0.151,0.0224 -0.152,0.0075 z"
     id="path953"
     style="fill:none;stroke:#000000;stroke-opacity:1" />
  <path
     d="m 136.383,-57.92 -0.151,-0.0224 -0.148,-0.0369 -0.143,-0.0514 -0.138,-0.0652 -0.131,-0.0783 -0.122,-0.0907 -0.113,-0.1023 -0.102,-0.113 -0.091,-0.1223 -0.078,-0.1305 -0.065,-0.1379 -0.052,-0.1435 -0.037,-0.1477 -0.022,-0.1507 -0.007,-0.1522 0.007,-0.1521 0.022,-0.1508 0.037,-0.1476 0.052,-0.1436 0.065,-0.1379 0.078,-0.1305 0.091,-0.1223 0.102,-0.1129 0.113,-0.1024 0.122,-0.0907 0.131,-0.0783 0.138,-0.0652 0.143,-0.0513 0.148,-0.037 0.151,-0.0224 0.152,-0.0074 0.152,0.0074 0.151,0.0224 0.148,0.037 0.143,0.0513 0.138,0.0652 0.13,0.0783 0.123,0.0907 0.113,0.1024 0.102,0.1129 0.091,0.1223 0.078,0.1305 0.065,0.1379 0.052,0.1436 0.037,0.1476 0.022,0.1508 0.007,0.1521 -0.007,0.1522 -0.022,0.1507 -0.037,0.1477 -0.052,0.1435 -0.065,0.1379 -0.078,0.1305 -0.091,0.1223 -0.102,0.113 -0.113,0.1023 -0.123,0.0907 -0.13,0.0783 -0.138,0.0652 -0.143,0.0514 -0.148,0.0369 -0.151,0.0224 -0.152,0.0075 z"
     id="path951"
     style="fill:none;stroke:#000000;stroke-opacity:1" />
  <path
     d="m 111.383,-57.92 -0.151,-0.0224 -0.148,-0.0369 -0.143,-0.0514 -0.138,-0.0652 -0.131,-0.0783 -0.122,-0.0907 -0.113,-0.1023 -0.102,-0.113 -0.091,-0.1223 -0.078,-0.1305 -0.065,-0.1379 -0.052,-0.1435 -0.037,-0.1477 -0.022,-0.1507 -0.007,-0.1522 0.007,-0.1521 0.022,-0.1508 0.037,-0.1476 0.052,-0.1436 0.065,-0.1379 0.078,-0.1305 0.091,-0.1223 0.102,-0.1129 0.113,-0.1024 0.122,-0.0907 0.131,-0.0783 0.138,-0.0652 0.143,-0.0513 0.148,-0.037 0.151,-0.0224 0.152,-0.0074 0.152,0.0074 0.151,0.0224 0.148,0.037 0.143,0.0513 0.138,0.0652 0.13,0.0783 0.123,0.0907 0.113,0.1024 0.102,0.1129 0.091,0.1223 0.078,0.1305 0.065,0.1379 0.052,0.1436 0.037,0.1476 0.022,0.1508 0.007,0.1521 -0.007,0.1522 -0.022,0.1507 -0.037,0.1477 -0.052,0.1435 -0.065,0.1379 -0.078,0.1305 -0.091,0.1223 -0.102,0.113 -0.113,0.1023 -0.123,0.0907 -0.13,0.0783 -0.138,0.0652 -0.143,0.0514 -0.148,0.0369 -0.151,0.0224 -0.152,0.0075 z"
     id="path949"
     style="fill:none;stroke:#000000;stroke-opacity:1" />
  <path
     d="m 86.383,-57.92 -0.151,-0.0224 -0.148,-0.0369 -0.143,-0.0514 -0.138,-0.0652 -0.131,-0.0783 -0.122,-0.0907 -0.113,-0.1023 -0.102,-0.113 -0.091,-0.1223 -0.078,-0.1305 -0.065,-0.1379 -0.052,-0.1435 -0.037,-0.1477 -0.022,-0.1507 -0.007,-0.1522 0.007,-0.1521 0.022,-0.1508 0.037,-0.1476 0.052,-0.1436 0.065,-0.1379 0.078,-0.1305 0.091,-0.1223 0.102,-0.1129 0.113,-0.1024 0.122,-0.0907 0.131,-0.0783 0.138,-0.0652 0.143,-0.0513 0.148,-0.037 0.151,-0.0224 0.152,-0.0074 0.152,0.0074 0.151,0.0224 0.148,0.037 0.143,0.0513 0.138,0.0652 0.13,0.0783 0.123,0.0907 0.113,0.1024 0.102,0.1129 0.091,0.1223 0.078,0.1305 0.065,0.1379 0.052,0.1436 0.037,0.1476 0.022,0.1508 0.007,0.1521 -0.007,0.1522 -0.022,0.1507 -0.037,0.1477 -0.052,0.1435 -0.065,0.1379 -0.078,0.1305 -0.091,0.1223 -0.102,0.113 -0.113,0.1023 -0.123,0.0907 -0.13,0.0783 -0.138,0.0652 -0.143,0.0514 -0.148,0.0369 -0.151,0.0224 -0.152,0.0075 z"
     id="path947"
     style="fill:none;stroke:#000000;stroke-opacity:1" />
  <path
     d="m 61.383,-57.92 -0.151,-0.0224 -0.148,-0.0369 -0.143,-0.0514 -0.138,-0.0652 -0.131,-0.0783 -0.122,-0.0907 -0.113,-0.1023 -0.102,-0.113 -0.091,-0.1223 -0.078,-0.1305 -0.065,-0.1379 -0.052,-0.1435 -0.037,-0.1477 -0.022,-0.1507 -0.007,-0.1522 0.007,-0.1521 0.022,-0.1508 0.037,-0.1476 0.052,-0.1436 0.065,-0.1379 0.078,-0.1305 0.091,-0.1223 0.102,-0.1129 0.113,-0.1024 0.122,-0.0907 0.131,-0.0783 0.138,-0.0652 0.143,-0.0513 0.148,-0.037 0.151,-0.0224 0.152,-0.0074 0.152,0.0074 0.151,0.0224 0.148,0.037 0.143,0.0513 0.138,0.0652 0.13,0.0783 0.123,0.0907 0.113,0.1024 0.102,0.1129 0.091,0.1223 0.078,0.1305 0.065,0.1379 0.052,0.1436 0.037,0.1476 0.022,0.1508 0.007,0.1521 -0.007,0.1522 -0.022,0.1507 -0.037,0.1477 -0.052,0.1435 -0.065,0.1379 -0.078,0.1305 -0.091,0.1223 -0.102,0.113 -0.113,0.1023 -0.123,0.0907 -0.13,0.0783 -0.138,0.0652 -0.143,0.0514 -0.148,0.0369 -0.151,0.0224 -0.152,0.0075 z"
     id="path945"
     style="fill:none;stroke:#000000;stroke-opacity:1" />
  <path
     d="m 36.383,-57.92 -0.151,-0.0224 -0.148,-0.0369 -0.143,-0.0514 -0.138,-0.0652 -0.131,-0.0783 -0.122,-0.0907 -0.113,-0.1023 -0.102,-0.113 -0.091,-0.1223 -0.078,-0.1305 -0.065,-0.1379 -0.052,-0.1435 -0.037,-0.1477 -0.022,-0.1507 -0.007,-0.1522 0.007,-0.1521 0.022,-0.1508 0.037,-0.1476 0.052,-0.1436 0.065,-0.1379 0.078,-0.1305 0.091,-0.1223 0.102,-0.1129 0.113,-0.1024 0.122,-0.0907 0.131,-0.0783 0.138,-0.0652 0.143,-0.0513 0.148,-0.037 0.151,-0.0224 0.152,-0.0074 0.152,0.0074 0.151,0.0224 0.148,0.037 0.143,0.0513 0.138,0.0652 0.13,0.0783 0.123,0.0907 0.113,0.1024 0.102,0.1129 0.091,0.1223 0.078,0.1305 0.065,0.1379 0.052,0.1436 0.037,0.1476 0.022,0.1508 0.007,0.1521 -0.007,0.1522 -0.022,0.1507 -0.037,0.1477 -0.052,0.1435 -0.065,0.1379 -0.078,0.1305 -0.091,0.1223 -0.102,0.113 -0.113,0.1023 -0.123,0.0907 -0.13,0.0783 -0.138,0.0652 -0.143,0.0514 -0.148,0.0369 -0.151,0.0224 -0.152,0.0075 z"
     id="path943"
     style="fill:none;stroke:#000000;stroke-opacity:1" />
  <path
     d="m 11.383,-57.92 -0.151,-0.0224 -0.148,-0.0369 -0.143,-0.0514 -0.138,-0.0652 -0.131,-0.0783 -0.122,-0.0907 -0.113,-0.1023 -0.102,-0.113 -0.091,-0.1223 -0.078,-0.1305 -0.065,-0.1379 -0.052,-0.1435 -0.037,-0.1477 -0.022,-0.1507 -0.007,-0.1522 0.007,-0.1521 0.022,-0.1508 0.037,-0.1476 0.052,-0.1436 0.065,-0.1379 0.078,-0.1305 0.091,-0.1223 0.102,-0.1129 0.113,-0.1024 0.122,-0.0907 0.131,-0.0783 0.138,-0.0652 0.143,-0.0513 0.148,-0.037 0.151,-0.0224 0.152,-0.0074 0.152,0.0074 0.151,0.0224 0.148,0.037 0.143,0.0513 0.138,0.0652 0.13,0.0783 0.123,0.0907 0.113,0.1024 0.102,0.1129 0.091,0.1223 0.078,0.1305 0.065,0.1379 0.052,0.1436 0.037,0.1476 0.022,0.1508 0.007,0.1521 -0.007,0.1522 -0.022,0.1507 -0.037,0.1477 -0.052,0.1435 -0.065,0.1379 -0.078,0.1305 -0.091,0.1223 -0.102,0.113 -0.113,0.1023 -0.123,0.0907 -0.13,0.0783 -0.138,0.0652 -0.143,0.0514 -0.148,0.0369 -0.151,0.0224 -0.152,0.0075 z"
     id="path941"
     style="fill:none;stroke:#000000;stroke-opacity:1" />
  <path
     d="m 236.383,-57.92 -0.151,-0.0224 -0.148,-0.0369 -0.143,-0.0514 -0.138,-0.0652 -0.131,-0.0783 -0.122,-0.0907 -0.113,-0.1023 -0.102,-0.113 -0.091,-0.1223 -0.078,-0.1305 -0.065,-0.1379 -0.052,-0.1435 -0.037,-0.1477 -0.022,-0.1507 -0.007,-0.1522 0.007,-0.1521 0.022,-0.1508 0.037,-0.1476 0.052,-0.1436 0.065,-0.1379 0.078,-0.1305 0.091,-0.1223 0.102,-0.1129 0.113,-0.1024 0.122,-0.0907 0.131,-0.0783 0.138,-0.0652 0.143,-0.0513 0.148,-0.037 0.151,-0.0224 0.152,-0.0074 0.152,0.0074 0.151,0.0224 0.148,0.037 0.143,0.0513 0.138,0.0652 0.13,0.0783 0.123,0.0907 0.113,0.1024 0.102,0.1129 0.091,0.1223 0.078,0.1305 0.065,0.1379 0.052,0.1436 0.037,0.1476 0.022,0.1508 0.007,0.1521 -0.007,0.1522 -0.022,0.1507 -0.037,0.1477 -0.052,0.1435 -0.065,0.1379 -0.078,0.1305 -0.091,0.1223 -0.102,0.113 -0.113,0.1023 -0.123,0.0907 -0.13,0.0783 -0.138,0.0652 -0.143,0.0514 -0.148,0.0369 -0.151,0.0224 -0.152,0.0075 z"
     id="path939"
     style="fill:none;stroke:#000000;stroke-opacity:1" />
  <path
     d="m 11.342,-78.7595 -0.19,-0.0283 -0.187,-0.0468 -0.182,-0.065 -0.174,-0.0825 -0.166,-0.0991 -0.155,-0.1148 -0.142,-0.1296 -0.13,-0.1429 -0.115,-0.1548 -0.099,-0.1653 -0.082,-0.1744 -0.065,-0.1816 -0.047,-0.187 -0.029,-0.1908 -0.009,-0.1926 0.009,-0.1926 0.029,-0.1907 0.047,-0.187 0.065,-0.1816 0.082,-0.1745 0.099,-0.1653 0.115,-0.1548 0.13,-0.1429 0.142,-0.1296 0.155,-0.1148 0.166,-0.0991 0.174,-0.0825 0.182,-0.065 0.187,-0.0468 0.19,-0.0283 0.193,-0.0094 0.193,0.0094 0.19,0.0283 0.187,0.0468 0.182,0.065 0.174,0.0825 0.166,0.0991 0.154,0.1148 0.143,0.1296 0.13,0.1429 0.115,0.1548 0.099,0.1653 0.082,0.1745 0.065,0.1816 0.047,0.187 0.028,0.1907 0.01,0.1926 -0.01,0.1926 -0.028,0.1908 -0.047,0.187 -0.065,0.1816 -0.082,0.1744 -0.099,0.1653 -0.115,0.1548 -0.13,0.1429 -0.143,0.1296 -0.154,0.1148 -0.166,0.0991 -0.174,0.0825 -0.182,0.065 -0.187,0.0468 -0.19,0.0283 -0.193,0.0095 z"
     id="path933"
     style="fill:none;stroke:#000000;stroke-opacity:1" />
  <path
     d="m 36.342,-78.7595 -0.19,-0.0283 -0.187,-0.0468 -0.182,-0.065 -0.174,-0.0825 -0.166,-0.0991 -0.155,-0.1148 -0.142,-0.1296 -0.13,-0.1429 -0.115,-0.1548 -0.099,-0.1653 -0.082,-0.1744 -0.065,-0.1816 -0.047,-0.187 -0.029,-0.1908 -0.009,-0.1926 0.009,-0.1926 0.029,-0.1907 0.047,-0.187 0.065,-0.1816 0.082,-0.1745 0.099,-0.1653 0.115,-0.1548 0.13,-0.1429 0.142,-0.1296 0.155,-0.1148 0.166,-0.0991 0.174,-0.0825 0.182,-0.065 0.187,-0.0468 0.19,-0.0283 0.193,-0.0094 0.193,0.0094 0.19,0.0283 0.187,0.0468 0.182,0.065 0.174,0.0825 0.166,0.0991 0.154,0.1148 0.143,0.1296 0.13,0.1429 0.115,0.1548 0.099,0.1653 0.082,0.1745 0.065,0.1816 0.047,0.187 0.028,0.1907 0.01,0.1926 -0.01,0.1926 -0.028,0.1908 -0.047,0.187 -0.065,0.1816 -0.082,0.1744 -0.099,0.1653 -0.115,0.1548 -0.13,0.1429 -0.143,0.1296 -0.154,0.1148 -0.166,0.0991 -0.174,0.0825 -0.182,0.065 -0.187,0.0468 -0.19,0.0283 -0.193,0.0095 z"
     id="path931"
     style="fill:none;stroke:#000000;stroke-opacity:1" />
  <path
     d="m 61.342,-78.7595 -0.19,-0.0283 -0.187,-0.0468 -0.182,-0.065 -0.174,-0.0825 -0.166,-0.0991 -0.155,-0.1148 -0.142,-0.1296 -0.13,-0.1429 -0.115,-0.1548 -0.099,-0.1653 -0.082,-0.1744 -0.065,-0.1816 -0.047,-0.187 -0.029,-0.1908 -0.009,-0.1926 0.009,-0.1926 0.029,-0.1907 0.047,-0.187 0.065,-0.1816 0.082,-0.1745 0.099,-0.1653 0.115,-0.1548 0.13,-0.1429 0.142,-0.1296 0.155,-0.1148 0.166,-0.0991 0.174,-0.0825 0.182,-0.065 0.187,-0.0468 0.19,-0.0283 0.193,-0.0094 0.193,0.0094 0.19,0.0283 0.187,0.0468 0.182,0.065 0.174,0.0825 0.166,0.0991 0.154,0.1148 0.143,0.1296 0.13,0.1429 0.115,0.1548 0.099,0.1653 0.082,0.1745 0.065,0.1816 0.047,0.187 0.028,0.1907 0.01,0.1926 -0.01,0.1926 -0.028,0.1908 -0.047,0.187 -0.065,0.1816 -0.082,0.1744 -0.099,0.1653 -0.115,0.1548 -0.13,0.1429 -0.143,0.1296 -0.154,0.1148 -0.166,0.0991 -0.174,0.0825 -0.182,0.065 -0.187,0.0468 -0.19,0.0283 -0.193,0.0095 z"
     id="path929"
     style="fill:none;stroke:#000000;stroke-opacity:1" />
  <path
     d="m 86.342,-78.7595 -0.19,-0.0283 -0.187,-0.0468 -0.182,-0.065 -0.174,-0.0825 -0.166,-0.0991 -0.155,-0.1148 -0.142,-0.1296 -0.13,-0.1429 -0.115,-0.1548 -0.099,-0.1653 -0.082,-0.1744 -0.065,-0.1816 -0.047,-0.187 -0.029,-0.1908 -0.009,-0.1926 0.009,-0.1926 0.029,-0.1907 0.047,-0.187 0.065,-0.1816 0.082,-0.1745 0.099,-0.1653 0.115,-0.1548 0.13,-0.1429 0.142,-0.1296 0.155,-0.1148 0.166,-0.0991 0.174,-0.0825 0.182,-0.065 0.187,-0.0468 0.19,-0.0283 0.193,-0.0094 0.193,0.0094 0.19,0.0283 0.187,0.0468 0.182,0.065 0.174,0.0825 0.166,0.0991 0.154,0.1148 0.143,0.1296 0.13,0.1429 0.115,0.1548 0.099,0.1653 0.082,0.1745 0.065,0.1816 0.047,0.187 0.028,0.1907 0.01,0.1926 -0.01,0.1926 -0.028,0.1908 -0.047,0.187 -0.065,0.1816 -0.082,0.1744 -0.099,0.1653 -0.115,0.1548 -0.13,0.1429 -0.143,0.1296 -0.154,0.1148 -0.166,0.0991 -0.174,0.0825 -0.182,0.065 -0.187,0.0468 -0.19,0.0283 -0.193,0.0095 z"
     id="path927"
     style="fill:none;stroke:#000000;stroke-opacity:1" />
  <path
     d="m 136.342,-78.7595 -0.19,-0.0283 -0.187,-0.0468 -0.182,-0.065 -0.174,-0.0825 -0.166,-0.0991 -0.155,-0.1148 -0.142,-0.1296 -0.13,-0.1429 -0.115,-0.1548 -0.099,-0.1653 -0.082,-0.1744 -0.065,-0.1816 -0.047,-0.187 -0.029,-0.1908 -0.009,-0.1926 0.009,-0.1926 0.029,-0.1907 0.047,-0.187 0.065,-0.1816 0.082,-0.1745 0.099,-0.1653 0.115,-0.1548 0.13,-0.1429 0.142,-0.1296 0.155,-0.1148 0.166,-0.0991 0.174,-0.0825 0.182,-0.065 0.187,-0.0468 0.19,-0.0283 0.193,-0.0094 0.193,0.0094 0.19,0.0283 0.187,0.0468 0.182,0.065 0.174,0.0825 0.166,0.0991 0.154,0.1148 0.143,0.1296 0.13,0.1429 0.115,0.1548 0.099,0.1653 0.082,0.1745 0.065,0.1816 0.047,0.187 0.028,0.1907 0.01,0.1926 -0.01,0.1926 -0.028,0.1908 -0.047,0.187 -0.065,0.1816 -0.082,0.1744 -0.099,0.1653 -0.115,0.1548 -0.13,0.1429 -0.143,0.1296 -0.154,0.1148 -0.166,0.0991 -0.174,0.0825 -0.182,0.065 -0.187,0.0468 -0.19,0.0283 -0.193,0.0095 z"
     id="path925"
     style="fill:none;stroke:#000000;stroke-opacity:1" />
  <path
     d="m 161.342,-78.7595 -0.19,-0.0283 -0.187,-0.0468 -0.182,-0.065 -0.174,-0.0825 -0.166,-0.0991 -0.155,-0.1148 -0.142,-0.1296 -0.13,-0.1429 -0.115,-0.1548 -0.099,-0.1653 -0.082,-0.1744 -0.065,-0.1816 -0.047,-0.187 -0.029,-0.1908 -0.009,-0.1926 0.009,-0.1926 0.029,-0.1907 0.047,-0.187 0.065,-0.1816 0.082,-0.1745 0.099,-0.1653 0.115,-0.1548 0.13,-0.1429 0.142,-0.1296 0.155,-0.1148 0.166,-0.0991 0.174,-0.0825 0.182,-0.065 0.187,-0.0468 0.19,-0.0283 0.193,-0.0094 0.193,0.0094 0.19,0.0283 0.187,0.0468 0.182,0.065 0.174,0.0825 0.166,0.0991 0.154,0.1148 0.143,0.1296 0.13,0.1429 0.115,0.1548 0.099,0.1653 0.082,0.1745 0.065,0.1816 0.047,0.187 0.028,0.1907 0.01,0.1926 -0.01,0.1926 -0.028,0.1908 -0.047,0.187 -0.065,0.1816 -0.082,0.1744 -0.099,0.1653 -0.115,0.1548 -0.13,0.1429 -0.143,0.1296 -0.154,0.1148 -0.166,0.0991 -0.174,0.0825 -0.182,0.065 -0.187,0.0468 -0.19,0.0283 -0.193,0.0095 z"
     id="path923"
     style="fill:none;stroke:#000000;stroke-opacity:1" />
  <path
     d="m 186.342,-78.7595 -0.19,-0.0283 -0.187,-0.0468 -0.182,-0.065 -0.174,-0.0825 -0.166,-0.0991 -0.155,-0.1148 -0.142,-0.1296 -0.13,-0.1429 -0.115,-0.1548 -0.099,-0.1653 -0.082,-0.1744 -0.065,-0.1816 -0.047,-0.187 -0.029,-0.1908 -0.009,-0.1926 0.009,-0.1926 0.029,-0.1907 0.047,-0.187 0.065,-0.1816 0.082,-0.1745 0.099,-0.1653 0.115,-0.1548 0.13,-0.1429 0.142,-0.1296 0.155,-0.1148 0.166,-0.0991 0.174,-0.0825 0.182,-0.065 0.187,-0.0468 0.19,-0.0283 0.193,-0.0094 0.193,0.0094 0.19,0.0283 0.187,0.0468 0.182,0.065 0.174,0.0825 0.166,0.0991 0.154,0.1148 0.143,0.1296 0.13,0.1429 0.115,0.1548 0.099,0.1653 0.082,0.1745 0.065,0.1816 0.047,0.187 0.028,0.1907 0.01,0.1926 -0.01,0.1926 -0.028,0.1908 -0.047,0.187 -0.065,0.1816 -0.082,0.1744 -0.099,0.1653 -0.115,0.1548 -0.13,0.1429 -0.143,0.1296 -0.154,0.1148 -0.166,0.0991 -0.174,0.0825 -0.182,0.065 -0.187,0.0468 -0.19,0.0283 -0.193,0.0095 z"
     id="path921"
     style="fill:none;stroke:#000000;stroke-opacity:1" />
  <path
     d="m 211.342,-78.7595 -0.19,-0.0283 -0.187,-0.0468 -0.182,-0.065 -0.174,-0.0825 -0.166,-0.0991 -0.155,-0.1148 -0.142,-0.1296 -0.13,-0.1429 -0.115,-0.1548 -0.099,-0.1653 -0.082,-0.1744 -0.065,-0.1816 -0.047,-0.187 -0.029,-0.1908 -0.009,-0.1926 0.009,-0.1926 0.029,-0.1907 0.047,-0.187 0.065,-0.1816 0.082,-0.1745 0.099,-0.1653 0.115,-0.1548 0.13,-0.1429 0.142,-0.1296 0.155,-0.1148 0.166,-0.0991 0.174,-0.0825 0.182,-0.065 0.187,-0.0468 0.19,-0.0283 0.193,-0.0094 0.193,0.0094 0.19,0.0283 0.187,0.0468 0.182,0.065 0.174,0.0825 0.166,0.0991 0.154,0.1148 0.143,0.1296 0.13,0.1429 0.115,0.1548 0.099,0.1653 0.082,0.1745 0.065,0.1816 0.047,0.187 0.028,0.1907 0.01,0.1926 -0.01,0.1926 -0.028,0.1908 -0.047,0.187 -0.065,0.1816 -0.082,0.1744 -0.099,0.1653 -0.115,0.1548 -0.13,0.1429 -0.143,0.1296 -0.154,0.1148 -0.166,0.0991 -0.174,0.0825 -0.182,0.065 -0.187,0.0468 -0.19,0.0283 -0.193,0.0095 z"
     id="path919"
     style="fill:none;stroke:#000000;stroke-opacity:1" />
  <path
     d="m 236.342,-78.7595 -0.19,-0.0283 -0.187,-0.0468 -0.182,-0.065 -0.174,-0.0825 -0.166,-0.0991 -0.155,-0.1148 -0.142,-0.1296 -0.13,-0.1429 -0.115,-0.1548 -0.099,-0.1653 -0.082,-0.1744 -0.065,-0.1816 -0.047,-0.187 -0.029,-0.1908 -0.009,-0.1926 0.009,-0.1926 0.029,-0.1907 0.047,-0.187 0.065,-0.1816 0.082,-0.1745 0.099,-0.1653 0.115,-0.1548 0.13,-0.1429 0.142,-0.1296 0.155,-0.1148 0.166,-0.0991 0.174,-0.0825 0.182,-0.065 0.187,-0.0468 0.19,-0.0283 0.193,-0.0094 0.193,0.0094 0.19,0.0283 0.187,0.0468 0.182,0.065 0.174,0.0825 0.166,0.0991 0.154,0.1148 0.143,0.1296 0.13,0.1429 0.115,0.1548 0.099,0.1653 0.082,0.1745 0.065,0.1816 0.047,0.187 0.028,0.1907 0.01,0.1926 -0.01,0.1926 -0.028,0.1908 -0.047,0.187 -0.065,0.1816 -0.082,0.1744 -0.099,0.1653 -0.115,0.1548 -0.13,0.1429 -0.143,0.1296 -0.154,0.1148 -0.166,0.0991 -0.174,0.0825 -0.182,0.065 -0.187,0.0468 -0.19,0.0283 -0.193,0.0095 z"
     id="path917"
     style="fill:none;stroke:#000000;stroke-opacity:1" />
  <path
     d="m 111.342,-78.7595 -0.19,-0.0283 -0.187,-0.0468 -0.182,-0.065 -0.174,-0.0825 -0.166,-0.0991 -0.155,-0.1148 -0.142,-0.1296 -0.13,-0.1429 -0.115,-0.1548 -0.099,-0.1653 -0.082,-0.1744 -0.065,-0.1816 -0.047,-0.187 -0.029,-0.1908 -0.009,-0.1926 0.009,-0.1926 0.029,-0.1907 0.047,-0.187 0.065,-0.1816 0.082,-0.1745 0.099,-0.1653 0.115,-0.1548 0.13,-0.1429 0.142,-0.1296 0.155,-0.1148 0.166,-0.0991 0.174,-0.0825 0.182,-0.065 0.187,-0.0468 0.19,-0.0283 0.193,-0.0094 0.193,0.0094 0.19,0.0283 0.187,0.0468 0.182,0.065 0.174,0.0825 0.166,0.0991 0.154,0.1148 0.143,0.1296 0.13,0.1429 0.115,0.1548 0.099,0.1653 0.082,0.1745 0.065,0.1816 0.047,0.187 0.028,0.1907 0.01,0.1926 -0.01,0.1926 -0.028,0.1908 -0.047,0.187 -0.065,0.1816 -0.082,0.1744 -0.099,0.1653 -0.115,0.1548 -0.13,0.1429 -0.143,0.1296 -0.154,0.1148 -0.166,0.0991 -0.174,0.0825 -0.182,0.065 -0.187,0.0468 -0.19,0.0283 -0.193,0.0095 z"
     id="path915"
     style="fill:none;stroke:#000000;stroke-opacity:1" />
  <path
     d="m 11.342,-100.0095 -0.19,-0.0283 -0.187,-0.0468 -0.182,-0.065 -0.174,-0.0825 -0.166,-0.0991 -0.155,-0.1148 -0.142,-0.1296 -0.13,-0.1429 -0.115,-0.1548 -0.099,-0.1657 -0.082,-0.174 -0.065,-0.182 -0.047,-0.187 -0.029,-0.19 -0.009,-0.193 0.009,-0.193 0.029,-0.19 0.047,-0.187 0.065,-0.182 0.082,-0.174 0.099,-0.166 0.115,-0.154 0.13,-0.143 0.142,-0.13 0.155,-0.115 0.166,-0.099 0.174,-0.082 0.182,-0.065 0.187,-0.047 0.19,-0.028 0.193,-0.01 0.193,0.01 0.19,0.028 0.187,0.047 0.182,0.065 0.174,0.082 0.166,0.099 0.154,0.115 0.143,0.13 0.13,0.143 0.115,0.154 0.099,0.166 0.082,0.174 0.065,0.182 0.047,0.187 0.028,0.19 0.01,0.193 -0.01,0.193 -0.028,0.19 -0.047,0.187 -0.065,0.182 -0.082,0.174 -0.099,0.1657 -0.115,0.1548 -0.13,0.1429 -0.143,0.1296 -0.154,0.1148 -0.166,0.0991 -0.174,0.0825 -0.182,0.065 -0.187,0.0468 -0.19,0.0283 -0.193,0.01 z"
     id="path913"
     style="fill:none;stroke:#000000;stroke-opacity:1" />
  <path
     d="m 36.342,-100.0095 -0.19,-0.0283 -0.187,-0.0468 -0.182,-0.065 -0.174,-0.0825 -0.166,-0.0991 -0.155,-0.1148 -0.142,-0.1296 -0.13,-0.1429 -0.115,-0.1548 -0.099,-0.1657 -0.082,-0.174 -0.065,-0.182 -0.047,-0.187 -0.029,-0.19 -0.009,-0.193 0.009,-0.193 0.029,-0.19 0.047,-0.187 0.065,-0.182 0.082,-0.174 0.099,-0.166 0.115,-0.154 0.13,-0.143 0.142,-0.13 0.155,-0.115 0.166,-0.099 0.174,-0.082 0.182,-0.065 0.187,-0.047 0.19,-0.028 0.193,-0.01 0.193,0.01 0.19,0.028 0.187,0.047 0.182,0.065 0.174,0.082 0.166,0.099 0.154,0.115 0.143,0.13 0.13,0.143 0.115,0.154 0.099,0.166 0.082,0.174 0.065,0.182 0.047,0.187 0.028,0.19 0.01,0.193 -0.01,0.193 -0.028,0.19 -0.047,0.187 -0.065,0.182 -0.082,0.174 -0.099,0.1657 -0.115,0.1548 -0.13,0.1429 -0.143,0.1296 -0.154,0.1148 -0.166,0.0991 -0.174,0.0825 -0.182,0.065 -0.187,0.0468 -0.19,0.0283 -0.193,0.01 z"
     id="path911"
     style="fill:none;stroke:#000000;stroke-opacity:1" />
  <path
     d="m 61.342,-100.0095 -0.19,-0.0283 -0.187,-0.0468 -0.182,-0.065 -0.174,-0.0825 -0.166,-0.0991 -0.155,-0.1148 -0.142,-0.1296 -0.13,-0.1429 -0.115,-0.1548 -0.099,-0.1657 -0.082,-0.174 -0.065,-0.182 -0.047,-0.187 -0.029,-0.19 -0.009,-0.193 0.009,-0.193 0.029,-0.19 0.047,-0.187 0.065,-0.182 0.082,-0.174 0.099,-0.166 0.115,-0.154 0.13,-0.143 0.142,-0.13 0.155,-0.115 0.166,-0.099 0.174,-0.082 0.182,-0.065 0.187,-0.047 0.19,-0.028 0.193,-0.01 0.193,0.01 0.19,0.028 0.187,0.047 0.182,0.065 0.174,0.082 0.166,0.099 0.154,0.115 0.143,0.13 0.13,0.143 0.115,0.154 0.099,0.166 0.082,0.174 0.065,0.182 0.047,0.187 0.028,0.19 0.01,0.193 -0.01,0.193 -0.028,0.19 -0.047,0.187 -0.065,0.182 -0.082,0.174 -0.099,0.1657 -0.115,0.1548 -0.13,0.1429 -0.143,0.1296 -0.154,0.1148 -0.166,0.0991 -0.174,0.0825 -0.182,0.065 -0.187,0.0468 -0.19,0.0283 -0.193,0.01 z"
     id="path909"
     style="fill:none;stroke:#000000;stroke-opacity:1" />
  <path
     d="m 86.342,-100.0095 -0.19,-0.0283 -0.187,-0.0468 -0.182,-0.065 -0.174,-0.0825 -0.166,-0.0991 -0.155,-0.1148 -0.142,-0.1296 -0.13,-0.1429 -0.115,-0.1548 -0.099,-0.1657 -0.082,-0.174 -0.065,-0.182 -0.047,-0.187 -0.029,-0.19 -0.009,-0.193 0.009,-0.193 0.029,-0.19 0.047,-0.187 0.065,-0.182 0.082,-0.174 0.099,-0.166 0.115,-0.154 0.13,-0.143 0.142,-0.13 0.155,-0.115 0.166,-0.099 0.174,-0.082 0.182,-0.065 0.187,-0.047 0.19,-0.028 0.193,-0.01 0.193,0.01 0.19,0.028 0.187,0.047 0.182,0.065 0.174,0.082 0.166,0.099 0.154,0.115 0.143,0.13 0.13,0.143 0.115,0.154 0.099,0.166 0.082,0.174 0.065,0.182 0.047,0.187 0.028,0.19 0.01,0.193 -0.01,0.193 -0.028,0.19 -0.047,0.187 -0.065,0.182 -0.082,0.174 -0.099,0.1657 -0.115,0.1548 -0.13,0.1429 -0.143,0.1296 -0.154,0.1148 -0.166,0.0991 -0.174,0.0825 -0.182,0.065 -0.187,0.0468 -0.19,0.0283 -0.193,0.01 z"
     id="path907"
     style="fill:none;stroke:#000000;stroke-opacity:1" />
  <path
     d="m 111.342,-100.0095 -0.19,-0.0283 -0.187,-0.0468 -0.182,-0.065 -0.174,-0.0825 -0.166,-0.0991 -0.155,-0.1148 -0.142,-0.1296 -0.13,-0.1429 -0.115,-0.1548 -0.099,-0.1657 -0.082,-0.174 -0.065,-0.182 -0.047,-0.187 -0.029,-0.19 -0.009,-0.193 0.009,-0.193 0.029,-0.19 0.047,-0.187 0.065,-0.182 0.082,-0.174 0.099,-0.166 0.115,-0.154 0.13,-0.143 0.142,-0.13 0.155,-0.115 0.166,-0.099 0.174,-0.082 0.182,-0.065 0.187,-0.047 0.19,-0.028 0.193,-0.01 0.193,0.01 0.19,0.028 0.187,0.047 0.182,0.065 0.174,0.082 0.166,0.099 0.154,0.115 0.143,0.13 0.13,0.143 0.115,0.154 0.099,0.166 0.082,0.174 0.065,0.182 0.047,0.187 0.028,0.19 0.01,0.193 -0.01,0.193 -0.028,0.19 -0.047,0.187 -0.065,0.182 -0.082,0.174 -0.099,0.1657 -0.115,0.1548 -0.13,0.1429 -0.143,0.1296 -0.154,0.1148 -0.166,0.0991 -0.174,0.0825 -0.182,0.065 -0.187,0.0468 -0.19,0.0283 -0.193,0.01 z"
     id="path905"
     style="fill:none;stroke:#000000;stroke-opacity:1" />
  <path
     d="m 136.342,-100.0095 -0.19,-0.0283 -0.187,-0.0468 -0.182,-0.065 -0.174,-0.0825 -0.166,-0.0991 -0.155,-0.1148 -0.142,-0.1296 -0.13,-0.1429 -0.115,-0.1548 -0.099,-0.1657 -0.082,-0.174 -0.065,-0.182 -0.047,-0.187 -0.029,-0.19 -0.009,-0.193 0.009,-0.193 0.029,-0.19 0.047,-0.187 0.065,-0.182 0.082,-0.174 0.099,-0.166 0.115,-0.154 0.13,-0.143 0.142,-0.13 0.155,-0.115 0.166,-0.099 0.174,-0.082 0.182,-0.065 0.187,-0.047 0.19,-0.028 0.193,-0.01 0.193,0.01 0.19,0.028 0.187,0.047 0.182,0.065 0.174,0.082 0.166,0.099 0.154,0.115 0.143,0.13 0.13,0.143 0.115,0.154 0.099,0.166 0.082,0.174 0.065,0.182 0.047,0.187 0.028,0.19 0.01,0.193 -0.01,0.193 -0.028,0.19 -0.047,0.187 -0.065,0.182 -0.082,0.174 -0.099,0.1657 -0.115,0.1548 -0.13,0.1429 -0.143,0.1296 -0.154,0.1148 -0.166,0.0991 -0.174,0.0825 -0.182,0.065 -0.187,0.0468 -0.19,0.0283 -0.193,0.01 z"
     id="path903"
     style="fill:none;stroke:#000000;stroke-opacity:1" />
  <path
     d="m 161.342,-100.0095 -0.19,-0.0283 -0.187,-0.0468 -0.182,-0.065 -0.174,-0.0825 -0.166,-0.0991 -0.155,-0.1148 -0.142,-0.1296 -0.13,-0.1429 -0.115,-0.1548 -0.099,-0.1657 -0.082,-0.174 -0.065,-0.182 -0.047,-0.187 -0.029,-0.19 -0.009,-0.193 0.009,-0.193 0.029,-0.19 0.047,-0.187 0.065,-0.182 0.082,-0.174 0.099,-0.166 0.115,-0.154 0.13,-0.143 0.142,-0.13 0.155,-0.115 0.166,-0.099 0.174,-0.082 0.182,-0.065 0.187,-0.047 0.19,-0.028 0.193,-0.01 0.193,0.01 0.19,0.028 0.187,0.047 0.182,0.065 0.174,0.082 0.166,0.099 0.154,0.115 0.143,0.13 0.13,0.143 0.115,0.154 0.099,0.166 0.082,0.174 0.065,0.182 0.047,0.187 0.028,0.19 0.01,0.193 -0.01,0.193 -0.028,0.19 -0.047,0.187 -0.065,0.182 -0.082,0.174 -0.099,0.1657 -0.115,0.1548 -0.13,0.1429 -0.143,0.1296 -0.154,0.1148 -0.166,0.0991 -0.174,0.0825 -0.182,0.065 -0.187,0.0468 -0.19,0.0283 -0.193,0.01 z"
     id="path901"
     style="fill:none;stroke:#000000;stroke-opacity:1" />
  <path
     d="m 186.342,-100.0095 -0.19,-0.0283 -0.187,-0.0468 -0.182,-0.065 -0.174,-0.0825 -0.166,-0.0991 -0.155,-0.1148 -0.142,-0.1296 -0.13,-0.1429 -0.115,-0.1548 -0.099,-0.1657 -0.082,-0.174 -0.065,-0.182 -0.047,-0.187 -0.029,-0.19 -0.009,-0.193 0.009,-0.193 0.029,-0.19 0.047,-0.187 0.065,-0.182 0.082,-0.174 0.099,-0.166 0.115,-0.154 0.13,-0.143 0.142,-0.13 0.155,-0.115 0.166,-0.099 0.174,-0.082 0.182,-0.065 0.187,-0.047 0.19,-0.028 0.193,-0.01 0.193,0.01 0.19,0.028 0.187,0.047 0.182,0.065 0.174,0.082 0.166,0.099 0.154,0.115 0.143,0.13 0.13,0.143 0.115,0.154 0.099,0.166 0.082,0.174 0.065,0.182 0.047,0.187 0.028,0.19 0.01,0.193 -0.01,0.193 -0.028,0.19 -0.047,0.187 -0.065,0.182 -0.082,0.174 -0.099,0.1657 -0.115,0.1548 -0.13,0.1429 -0.143,0.1296 -0.154,0.1148 -0.166,0.0991 -0.174,0.0825 -0.182,0.065 -0.187,0.0468 -0.19,0.0283 -0.193,0.01 z"
     id="path899"
     style="fill:none;stroke:#000000;stroke-opacity:1" />
  <path
     d="m 236.342,-100.0095 -0.19,-0.0283 -0.187,-0.0468 -0.182,-0.065 -0.174,-0.0825 -0.166,-0.0991 -0.155,-0.1148 -0.142,-0.1296 -0.13,-0.1429 -0.115,-0.1548 -0.099,-0.1657 -0.082,-0.174 -0.065,-0.182 -0.047,-0.187 -0.029,-0.19 -0.009,-0.193 0.009,-0.193 0.029,-0.19 0.047,-0.187 0.065,-0.182 0.082,-0.174 0.099,-0.166 0.115,-0.154 0.13,-0.143 0.142,-0.13 0.155,-0.115 0.166,-0.099 0.174,-0.082 0.182,-0.065 0.187,-0.047 0.19,-0.028 0.193,-0.01 0.193,0.01 0.19,0.028 0.187,0.047 0.182,0.065 0.174,0.082 0.166,0.099 0.154,0.115 0.143,0.13 0.13,0.143 0.115,0.154 0.099,0.166 0.082,0.174 0.065,0.182 0.047,0.187 0.028,0.19 0.01,0.193 -0.01,0.193 -0.028,0.19 -0.047,0.187 -0.065,0.182 -0.082,0.174 -0.099,0.1657 -0.115,0.1548 -0.13,0.1429 -0.143,0.1296 -0.154,0.1148 -0.166,0.0991 -0.174,0.0825 -0.182,0.065 -0.187,0.0468 -0.19,0.0283 -0.193,0.01 z"
     id="path897"
     style="fill:none;stroke:#000000;stroke-opacity:1" />
  <path
     d="m 211.342,-100.0095 -0.19,-0.0283 -0.187,-0.0468 -0.182,-0.065 -0.174,-0.0825 -0.166,-0.0991 -0.155,-0.1148 -0.142,-0.1296 -0.13,-0.1429 -0.115,-0.1548 -0.099,-0.1657 -0.082,-0.174 -0.065,-0.182 -0.047,-0.187 -0.029,-0.19 -0.009,-0.193 0.009,-0.193 0.029,-0.19 0.047,-0.187 0.065,-0.182 0.082,-0.174 0.099,-0.166 0.115,-0.154 0.13,-0.143 0.142,-0.13 0.155,-0.115 0.166,-0.099 0.174,-0.082 0.182,-0.065 0.187,-0.047 0.19,-0.028 0.193,-0.01 0.193,0.01 0.19,0.028 0.187,0.047 0.182,0.065 0.174,0.082 0.166,0.099 0.154,0.115 0.143,0.13 0.13,0.143 0.115,0.154 0.099,0.166 0.082,0.174 0.065,0.182 0.047,0.187 0.028,0.19 0.01,0.193 -0.01,0.193 -0.028,0.19 -0.047,0.187 -0.065,0.182 -0.082,0.174 -0.099,0.1657 -0.115,0.1548 -0.13,0.1429 -0.143,0.1296 -0.154,0.1148 -0.166,0.0991 -0.174,0.0825 -0.182,0.065 -0.187,0.0468 -0.19,0.0283 -0.193,0.01 z"
     id="path895"
     style="fill:none;stroke:#000000;stroke-opacity:1" />
  <path
     d="m 254.308,-87.048 -0.967,-0.1435 -0.949,-0.2376 -0.92,-0.3295 -0.885,-0.4181 -0.838,-0.5027 -0.786,-0.5825 -0.724,-0.6568 -0.657,-0.7246 -0.583,-0.7854 -0.502,-0.8387 -0.418,-0.8842 -0.33,-0.9208 -0.237,-0.9485 -0.144,-0.9674 -0.048,-0.9767 0.048,-0.9767 0.144,-0.9674 0.237,-0.9485 0.33,-0.9208 0.418,-0.8846 0.502,-0.838 0.583,-0.786 0.657,-0.724 0.724,-0.657 0.786,-0.583 0.838,-0.502 0.885,-0.418 0.92,-0.33 0.949,-0.237 0.967,-0.144 0.977,-0.048 0.977,0.048 0.967,0.144 0.949,0.237 0.92,0.33 0.885,0.418 0.838,0.502 0.786,0.583 0.724,0.657 0.657,0.724 0.583,0.786 0.502,0.838 0.418,0.8846 0.33,0.9208 0.237,0.9485 0.144,0.9674 0.048,0.9767 -0.048,0.9767 -0.144,0.9674 -0.237,0.9485 -0.33,0.9208 -0.418,0.8842 -0.502,0.8387 -0.583,0.7854 -0.657,0.7246 -0.724,0.6568 -0.786,0.5825 -0.838,0.5027 -0.885,0.4181 -0.92,0.3295 -0.949,0.2376 -0.967,0.1435 -0.977,0.048 z"
     id="path891"
     style="fill:none;stroke:#000000;stroke-opacity:1" />
  <path
     d="m 186.244,-131.514 -0.287,-0.043 -0.283,-0.071 -0.274,-0.098 -0.263,-0.124 -0.249,-0.15 -0.234,-0.173 -0.216,-0.195 -0.195,-0.216 -0.173,-0.234 -0.15,-0.249 -0.124,-0.263 -0.098,-0.274 -0.071,-0.283 -0.043,-0.287 -0.014,-0.291 0.014,-0.291 0.043,-0.287 0.071,-0.283 0.098,-0.274 0.124,-0.263 0.15,-0.249 0.173,-0.234 0.195,-0.216 0.216,-0.195 0.234,-0.173 0.249,-0.15 0.263,-0.124 0.274,-0.098 0.283,-0.071 0.287,-0.043 0.291,-0.014 0.291,0.014 0.287,0.043 0.283,0.071 0.274,0.098 0.263,0.124 0.249,0.15 0.234,0.173 0.216,0.195 0.195,0.216 0.173,0.234 0.15,0.249 0.124,0.263 0.098,0.274 0.071,0.283 0.043,0.287 0.014,0.291 -0.014,0.291 -0.043,0.287 -0.071,0.283 -0.098,0.274 -0.124,0.263 -0.15,0.249 -0.173,0.234 -0.195,0.216 -0.216,0.195 -0.234,0.173 -0.249,0.15 -0.263,0.124 -0.274,0.098 -0.283,0.071 -0.287,0.043 -0.291,0.014 z"
     id="path889"
     style="fill:none;stroke:#000000;stroke-opacity:1" />
  <path
     d="m 136.244,-131.514 -0.287,-0.043 -0.283,-0.071 -0.274,-0.098 -0.263,-0.124 -0.249,-0.15 -0.234,-0.173 -0.216,-0.195 -0.195,-0.216 -0.173,-0.234 -0.15,-0.249 -0.124,-0.263 -0.098,-0.274 -0.071,-0.283 -0.043,-0.287 -0.014,-0.291 0.014,-0.291 0.043,-0.287 0.071,-0.283 0.098,-0.274 0.124,-0.263 0.15,-0.249 0.173,-0.234 0.195,-0.216 0.216,-0.195 0.234,-0.173 0.249,-0.15 0.263,-0.124 0.274,-0.098 0.283,-0.071 0.287,-0.043 0.291,-0.014 0.291,0.014 0.287,0.043 0.283,0.071 0.274,0.098 0.263,0.124 0.249,0.15 0.234,0.173 0.216,0.195 0.195,0.216 0.173,0.234 0.15,0.249 0.124,0.263 0.098,0.274 0.071,0.283 0.043,0.287 0.014,0.291 -0.014,0.291 -0.043,0.287 -0.071,0.283 -0.098,0.274 -0.124,0.263 -0.15,0.249 -0.173,0.234 -0.195,0.216 -0.216,0.195 -0.234,0.173 -0.249,0.15 -0.263,0.124 -0.274,0.098 -0.283,0.071 -0.287,0.043 -0.291,0.014 z"
     id="path887"
     style="fill:none;stroke:#000000;stroke-opacity:1" />
  <path
     d="m 111.244,-131.514 -0.287,-0.043 -0.283,-0.071 -0.274,-0.098 -0.263,-0.124 -0.249,-0.15 -0.234,-0.173 -0.216,-0.195 -0.195,-0.216 -0.173,-0.234 -0.15,-0.249 -0.124,-0.263 -0.098,-0.274 -0.071,-0.283 -0.043,-0.287 -0.014,-0.291 0.014,-0.291 0.043,-0.287 0.071,-0.283 0.098,-0.274 0.124,-0.263 0.15,-0.249 0.173,-0.234 0.195,-0.216 0.216,-0.195 0.234,-0.173 0.249,-0.15 0.263,-0.124 0.274,-0.098 0.283,-0.071 0.287,-0.043 0.291,-0.014 0.291,0.014 0.287,0.043 0.283,0.071 0.274,0.098 0.263,0.124 0.249,0.15 0.234,0.173 0.216,0.195 0.195,0.216 0.173,0.234 0.15,0.249 0.124,0.263 0.098,0.274 0.071,0.283 0.043,0.287 0.014,0.291 -0.014,0.291 -0.043,0.287 -0.071,0.283 -0.098,0.274 -0.124,0.263 -0.15,0.249 -0.173,0.234 -0.195,0.216 -0.216,0.195 -0.234,0.173 -0.249,0.15 -0.263,0.124 -0.274,0.098 -0.283,0.071 -0.287,0.043 -0.291,0.014 z"
     id="path885"
     style="fill:none;stroke:#000000;stroke-opacity:1" />
  <path
     d="m 86.244,-131.514 -0.287,-0.043 -0.283,-0.071 -0.274,-0.098 -0.263,-0.124 -0.249,-0.15 -0.234,-0.173 -0.216,-0.195 -0.195,-0.216 -0.173,-0.234 -0.15,-0.249 -0.124,-0.263 -0.098,-0.274 -0.071,-0.283 -0.043,-0.287 -0.014,-0.291 0.014,-0.291 0.043,-0.287 0.071,-0.283 0.098,-0.274 0.124,-0.263 0.15,-0.249 0.173,-0.234 0.195,-0.216 0.216,-0.195 0.234,-0.173 0.249,-0.15 0.263,-0.124 0.274,-0.098 0.283,-0.071 0.287,-0.043 0.291,-0.014 0.291,0.014 0.287,0.043 0.283,0.071 0.274,0.098 0.263,0.124 0.249,0.15 0.234,0.173 0.216,0.195 0.195,0.216 0.173,0.234 0.15,0.249 0.124,0.263 0.098,0.274 0.071,0.283 0.043,0.287 0.014,0.291 -0.014,0.291 -0.043,0.287 -0.071,0.283 -0.098,0.274 -0.124,0.263 -0.15,0.249 -0.173,0.234 -0.195,0.216 -0.216,0.195 -0.234,0.173 -0.249,0.15 -0.263,0.124 -0.274,0.098 -0.283,0.071 -0.287,0.043 -0.291,0.014 z"
     id="path883"
     style="fill:none;stroke:#000000;stroke-opacity:1" />
  <path
     d="m 261.244,-131.514 -0.287,-0.043 -0.283,-0.071 -0.274,-0.098 -0.263,-0.124 -0.249,-0.15 -0.234,-0.173 -0.216,-0.195 -0.195,-0.216 -0.173,-0.234 -0.15,-0.249 -0.124,-0.263 -0.098,-0.274 -0.071,-0.283 -0.043,-0.287 -0.014,-0.291 0.014,-0.291 0.043,-0.287 0.071,-0.283 0.098,-0.274 0.124,-0.263 0.15,-0.249 0.173,-0.234 0.195,-0.216 0.216,-0.195 0.234,-0.173 0.249,-0.15 0.263,-0.124 0.274,-0.098 0.283,-0.071 0.287,-0.043 0.291,-0.014 0.291,0.014 0.287,0.043 0.283,0.071 0.274,0.098 0.263,0.124 0.249,0.15 0.234,0.173 0.216,0.195 0.195,0.216 0.173,0.234 0.15,0.249 0.124,0.263 0.098,0.274 0.071,0.283 0.043,0.287 0.014,0.291 -0.014,0.291 -0.043,0.287 -0.071,0.283 -0.098,0.274 -0.124,0.263 -0.15,0.249 -0.173,0.234 -0.195,0.216 -0.216,0.195 -0.234,0.173 -0.249,0.15 -0.263,0.124 -0.274,0.098 -0.283,0.071 -0.287,0.043 -0.291,0.014 z"
     id="path881"
     style="fill:none;stroke:#000000;stroke-opacity:1" />
  <path
     d="m 61.244,-131.514 -0.287,-0.043 -0.283,-0.071 -0.274,-0.098 -0.263,-0.124 -0.249,-0.15 -0.234,-0.173 -0.216,-0.195 -0.195,-0.216 -0.173,-0.234 -0.15,-0.249 -0.124,-0.263 -0.098,-0.274 -0.071,-0.283 -0.043,-0.287 -0.014,-0.291 0.014,-0.291 0.043,-0.287 0.071,-0.283 0.098,-0.274 0.124,-0.263 0.15,-0.249 0.173,-0.234 0.195,-0.216 0.216,-0.195 0.234,-0.173 0.249,-0.15 0.263,-0.124 0.274,-0.098 0.283,-0.071 0.287,-0.043 0.291,-0.014 0.291,0.014 0.287,0.043 0.283,0.071 0.274,0.098 0.263,0.124 0.249,0.15 0.234,0.173 0.216,0.195 0.195,0.216 0.173,0.234 0.15,0.249 0.124,0.263 0.098,0.274 0.071,0.283 0.043,0.287 0.014,0.291 -0.014,0.291 -0.043,0.287 -0.071,0.283 -0.098,0.274 -0.124,0.263 -0.15,0.249 -0.173,0.234 -0.195,0.216 -0.216,0.195 -0.234,0.173 -0.249,0.15 -0.263,0.124 -0.274,0.098 -0.283,0.071 -0.287,0.043 -0.291,0.014 z"
     id="path879"
     style="fill:none;stroke:#000000;stroke-opacity:1" />
  <path
     d="m 36.244,-131.514 -0.287,-0.043 -0.283,-0.071 -0.274,-0.098 -0.263,-0.124 -0.249,-0.15 -0.234,-0.173 -0.216,-0.195 -0.195,-0.216 -0.173,-0.234 -0.15,-0.249 -0.124,-0.263 -0.098,-0.274 -0.071,-0.283 -0.043,-0.287 -0.014,-0.291 0.014,-0.291 0.043,-0.287 0.071,-0.283 0.098,-0.274 0.124,-0.263 0.15,-0.249 0.173,-0.234 0.195,-0.216 0.216,-0.195 0.234,-0.173 0.249,-0.15 0.263,-0.124 0.274,-0.098 0.283,-0.071 0.287,-0.043 0.291,-0.014 0.291,0.014 0.287,0.043 0.283,0.071 0.274,0.098 0.263,0.124 0.249,0.15 0.234,0.173 0.216,0.195 0.195,0.216 0.173,0.234 0.15,0.249 0.124,0.263 0.098,0.274 0.071,0.283 0.043,0.287 0.014,0.291 -0.014,0.291 -0.043,0.287 -0.071,0.283 -0.098,0.274 -0.124,0.263 -0.15,0.249 -0.173,0.234 -0.195,0.216 -0.216,0.195 -0.234,0.173 -0.249,0.15 -0.263,0.124 -0.274,0.098 -0.283,0.071 -0.287,0.043 -0.291,0.014 z"
     id="path877"
     style="fill:none;stroke:#000000;stroke-opacity:1" />
  <path
     d="m 11.244,-131.514 -0.287,-0.043 -0.283,-0.071 -0.274,-0.098 -0.263,-0.124 -0.249,-0.15 -0.234,-0.173 -0.216,-0.195 -0.195,-0.216 -0.173,-0.234 -0.15,-0.249 -0.124,-0.263 -0.098,-0.274 -0.071,-0.283 -0.043,-0.287 -0.014,-0.291 0.014,-0.291 0.043,-0.287 0.071,-0.283 0.098,-0.274 0.124,-0.263 0.15,-0.249 0.173,-0.234 0.195,-0.216 0.216,-0.195 0.234,-0.173 0.249,-0.15 0.263,-0.124 0.274,-0.098 0.283,-0.071 0.287,-0.043 0.291,-0.014 0.291,0.014 0.287,0.043 0.283,0.071 0.274,0.098 0.263,0.124 0.249,0.15 0.234,0.173 0.216,0.195 0.195,0.216 0.173,0.234 0.15,0.249 0.124,0.263 0.098,0.274 0.071,0.283 0.043,0.287 0.014,0.291 -0.014,0.291 -0.043,0.287 -0.071,0.283 -0.098,0.274 -0.124,0.263 -0.15,0.249 -0.173,0.234 -0.195,0.216 -0.216,0.195 -0.234,0.173 -0.249,0.15 -0.263,0.124 -0.274,0.098 -0.283,0.071 -0.287,0.043 -0.291,0.014 z"
     id="path875"
     style="fill:none;stroke:#000000;stroke-opacity:1" />
  <path
     d="m 211.244,-131.514 -0.287,-0.043 -0.283,-0.071 -0.274,-0.098 -0.263,-0.124 -0.249,-0.15 -0.234,-0.173 -0.216,-0.195 -0.195,-0.216 -0.173,-0.234 -0.15,-0.249 -0.124,-0.263 -0.098,-0.274 -0.071,-0.283 -0.043,-0.287 -0.014,-0.291 0.014,-0.291 0.043,-0.287 0.071,-0.283 0.098,-0.274 0.124,-0.263 0.15,-0.249 0.173,-0.234 0.195,-0.216 0.216,-0.195 0.234,-0.173 0.249,-0.15 0.263,-0.124 0.274,-0.098 0.283,-0.071 0.287,-0.043 0.291,-0.014 0.291,0.014 0.287,0.043 0.283,0.071 0.274,0.098 0.263,0.124 0.249,0.15 0.234,0.173 0.216,0.195 0.195,0.216 0.173,0.234 0.15,0.249 0.124,0.263 0.098,0.274 0.071,0.283 0.043,0.287 0.014,0.291 -0.014,0.291 -0.043,0.287 -0.071,0.283 -0.098,0.274 -0.124,0.263 -0.15,0.249 -0.173,0.234 -0.195,0.216 -0.216,0.195 -0.234,0.173 -0.249,0.15 -0.263,0.124 -0.274,0.098 -0.283,0.071 -0.287,0.043 -0.291,0.014 z"
     id="path873"
     style="fill:none;stroke:#000000;stroke-opacity:1" />
  <path
     d="m 236.244,-131.514 -0.287,-0.043 -0.283,-0.071 -0.274,-0.098 -0.263,-0.124 -0.249,-0.15 -0.234,-0.173 -0.216,-0.195 -0.195,-0.216 -0.173,-0.234 -0.15,-0.249 -0.124,-0.263 -0.098,-0.274 -0.071,-0.283 -0.043,-0.287 -0.014,-0.291 0.014,-0.291 0.043,-0.287 0.071,-0.283 0.098,-0.274 0.124,-0.263 0.15,-0.249 0.173,-0.234 0.195,-0.216 0.216,-0.195 0.234,-0.173 0.249,-0.15 0.263,-0.124 0.274,-0.098 0.283,-0.071 0.287,-0.043 0.291,-0.014 0.291,0.014 0.287,0.043 0.283,0.071 0.274,0.098 0.263,0.124 0.249,0.15 0.234,0.173 0.216,0.195 0.195,0.216 0.173,0.234 0.15,0.249 0.124,0.263 0.098,0.274 0.071,0.283 0.043,0.287 0.014,0.291 -0.014,0.291 -0.043,0.287 -0.071,0.283 -0.098,0.274 -0.124,0.263 -0.15,0.249 -0.173,0.234 -0.195,0.216 -0.216,0.195 -0.234,0.173 -0.249,0.15 -0.263,0.124 -0.274,0.098 -0.283,0.071 -0.287,0.043 -0.291,0.014 z"
     id="path871"
     style="fill:none;stroke:#000000;stroke-opacity:1" />
  <path
     d="m 286.244,-131.514 -0.287,-0.043 -0.283,-0.071 -0.274,-0.098 -0.263,-0.124 -0.249,-0.15 -0.234,-0.173 -0.216,-0.195 -0.195,-0.216 -0.173,-0.234 -0.15,-0.249 -0.124,-0.263 -0.098,-0.274 -0.071,-0.283 -0.043,-0.287 -0.014,-0.291 0.014,-0.291 0.043,-0.287 0.071,-0.283 0.098,-0.274 0.124,-0.263 0.15,-0.249 0.173,-0.234 0.195,-0.216 0.216,-0.195 0.234,-0.173 0.249,-0.15 0.263,-0.124 0.274,-0.098 0.283,-0.071 0.287,-0.043 0.291,-0.014 0.291,0.014 0.287,0.043 0.283,0.071 0.274,0.098 0.263,0.124 0.249,0.15 0.234,0.173 0.216,0.195 0.195,0.216 0.173,0.234 0.15,0.249 0.124,0.263 0.098,0.274 0.071,0.283 0.043,0.287 0.014,0.291 -0.014,0.291 -0.043,0.287 -0.071,0.283 -0.098,0.274 -0.124,0.263 -0.15,0.249 -0.173,0.234 -0.195,0.216 -0.216,0.195 -0.234,0.173 -0.249,0.15 -0.263,0.124 -0.274,0.098 -0.283,0.071 -0.287,0.043 -0.291,0.014 z"
     id="path869"
     style="fill:none;stroke:#000000;stroke-opacity:1" />
  <path
     d="m 161.244,-131.514 -0.287,-0.043 -0.283,-0.071 -0.274,-0.098 -0.263,-0.124 -0.249,-0.15 -0.234,-0.173 -0.216,-0.195 -0.195,-0.216 -0.173,-0.234 -0.15,-0.249 -0.124,-0.263 -0.098,-0.274 -0.071,-0.283 -0.043,-0.287 -0.014,-0.291 0.014,-0.291 0.043,-0.287 0.071,-0.283 0.098,-0.274 0.124,-0.263 0.15,-0.249 0.173,-0.234 0.195,-0.216 0.216,-0.195 0.234,-0.173 0.249,-0.15 0.263,-0.124 0.274,-0.098 0.283,-0.071 0.287,-0.043 0.291,-0.014 0.291,0.014 0.287,0.043 0.283,0.071 0.274,0.098 0.263,0.124 0.249,0.15 0.234,0.173 0.216,0.195 0.195,0.216 0.173,0.234 0.15,0.249 0.124,0.263 0.098,0.274 0.071,0.283 0.043,0.287 0.014,0.291 -0.014,0.291 -0.043,0.287 -0.071,0.283 -0.098,0.274 -0.124,0.263 -0.15,0.249 -0.173,0.234 -0.195,0.216 -0.216,0.195 -0.234,0.173 -0.249,0.15 -0.263,0.124 -0.274,0.098 -0.283,0.071 -0.287,0.043 -0.291,0.014 z"
     id="path867"
     style="fill:none;stroke:#000000;stroke-opacity:1" />
  <path
     d="m 11.244,-156.514 -0.287,-0.043 -0.283,-0.071 -0.274,-0.098 -0.263,-0.124 -0.249,-0.15 -0.234,-0.173 -0.216,-0.195 -0.195,-0.216 -0.173,-0.234 -0.15,-0.249 -0.124,-0.263 -0.098,-0.274 -0.071,-0.283 -0.043,-0.287 -0.014,-0.291 0.014,-0.291 0.043,-0.287 0.071,-0.283 0.098,-0.274 0.124,-0.263 0.15,-0.249 0.173,-0.234 0.195,-0.216 0.216,-0.195 0.234,-0.173 0.249,-0.15 0.263,-0.124 0.274,-0.098 0.283,-0.071 0.287,-0.043 0.291,-0.014 0.291,0.014 0.287,0.043 0.283,0.071 0.274,0.098 0.263,0.124 0.249,0.15 0.234,0.173 0.216,0.195 0.195,0.216 0.173,0.234 0.15,0.249 0.124,0.263 0.098,0.274 0.071,0.283 0.043,0.287 0.014,0.291 -0.014,0.291 -0.043,0.287 -0.071,0.283 -0.098,0.274 -0.124,0.263 -0.15,0.249 -0.173,0.234 -0.195,0.216 -0.216,0.195 -0.234,0.173 -0.249,0.15 -0.263,0.124 -0.274,0.098 -0.283,0.071 -0.287,0.043 -0.291,0.014 z"
     id="path865"
     style="fill:none;stroke:#000000;stroke-opacity:1" />
  <path
     d="m 36.244,-156.514 -0.287,-0.043 -0.283,-0.071 -0.274,-0.098 -0.263,-0.124 -0.249,-0.15 -0.234,-0.173 -0.216,-0.195 -0.195,-0.216 -0.173,-0.234 -0.15,-0.249 -0.124,-0.263 -0.098,-0.274 -0.071,-0.283 -0.043,-0.287 -0.014,-0.291 0.014,-0.291 0.043,-0.287 0.071,-0.283 0.098,-0.274 0.124,-0.263 0.15,-0.249 0.173,-0.234 0.195,-0.216 0.216,-0.195 0.234,-0.173 0.249,-0.15 0.263,-0.124 0.274,-0.098 0.283,-0.071 0.287,-0.043 0.291,-0.014 0.291,0.014 0.287,0.043 0.283,0.071 0.274,0.098 0.263,0.124 0.249,0.15 0.234,0.173 0.216,0.195 0.195,0.216 0.173,0.234 0.15,0.249 0.124,0.263 0.098,0.274 0.071,0.283 0.043,0.287 0.014,0.291 -0.014,0.291 -0.043,0.287 -0.071,0.283 -0.098,0.274 -0.124,0.263 -0.15,0.249 -0.173,0.234 -0.195,0.216 -0.216,0.195 -0.234,0.173 -0.249,0.15 -0.263,0.124 -0.274,0.098 -0.283,0.071 -0.287,0.043 -0.291,0.014 z"
     id="path863"
     style="fill:none;stroke:#000000;stroke-opacity:1" />
  <path
     d="m 61.244,-156.514 -0.287,-0.043 -0.283,-0.071 -0.274,-0.098 -0.263,-0.124 -0.249,-0.15 -0.234,-0.173 -0.216,-0.195 -0.195,-0.216 -0.173,-0.234 -0.15,-0.249 -0.124,-0.263 -0.098,-0.274 -0.071,-0.283 -0.043,-0.287 -0.014,-0.291 0.014,-0.291 0.043,-0.287 0.071,-0.283 0.098,-0.274 0.124,-0.263 0.15,-0.249 0.173,-0.234 0.195,-0.216 0.216,-0.195 0.234,-0.173 0.249,-0.15 0.263,-0.124 0.274,-0.098 0.283,-0.071 0.287,-0.043 0.291,-0.014 0.291,0.014 0.287,0.043 0.283,0.071 0.274,0.098 0.263,0.124 0.249,0.15 0.234,0.173 0.216,0.195 0.195,0.216 0.173,0.234 0.15,0.249 0.124,0.263 0.098,0.274 0.071,0.283 0.043,0.287 0.014,0.291 -0.014,0.291 -0.043,0.287 -0.071,0.283 -0.098,0.274 -0.124,0.263 -0.15,0.249 -0.173,0.234 -0.195,0.216 -0.216,0.195 -0.234,0.173 -0.249,0.15 -0.263,0.124 -0.274,0.098 -0.283,0.071 -0.287,0.043 -0.291,0.014 z"
     id="path861"
     style="fill:none;stroke:#000000;stroke-opacity:1" />
  <path
     d="m 111.244,-156.514 -0.287,-0.043 -0.283,-0.071 -0.274,-0.098 -0.263,-0.124 -0.249,-0.15 -0.234,-0.173 -0.216,-0.195 -0.195,-0.216 -0.173,-0.234 -0.15,-0.249 -0.124,-0.263 -0.098,-0.274 -0.071,-0.283 -0.043,-0.287 -0.014,-0.291 0.014,-0.291 0.043,-0.287 0.071,-0.283 0.098,-0.274 0.124,-0.263 0.15,-0.249 0.173,-0.234 0.195,-0.216 0.216,-0.195 0.234,-0.173 0.249,-0.15 0.263,-0.124 0.274,-0.098 0.283,-0.071 0.287,-0.043 0.291,-0.014 0.291,0.014 0.287,0.043 0.283,0.071 0.274,0.098 0.263,0.124 0.249,0.15 0.234,0.173 0.216,0.195 0.195,0.216 0.173,0.234 0.15,0.249 0.124,0.263 0.098,0.274 0.071,0.283 0.043,0.287 0.014,0.291 -0.014,0.291 -0.043,0.287 -0.071,0.283 -0.098,0.274 -0.124,0.263 -0.15,0.249 -0.173,0.234 -0.195,0.216 -0.216,0.195 -0.234,0.173 -0.249,0.15 -0.263,0.124 -0.274,0.098 -0.283,0.071 -0.287,0.043 -0.291,0.014 z"
     id="path859"
     style="fill:none;stroke:#000000;stroke-opacity:1" />
  <path
     d="m 136.244,-156.514 -0.287,-0.043 -0.283,-0.071 -0.274,-0.098 -0.263,-0.124 -0.249,-0.15 -0.234,-0.173 -0.216,-0.195 -0.195,-0.216 -0.173,-0.234 -0.15,-0.249 -0.124,-0.263 -0.098,-0.274 -0.071,-0.283 -0.043,-0.287 -0.014,-0.291 0.014,-0.291 0.043,-0.287 0.071,-0.283 0.098,-0.274 0.124,-0.263 0.15,-0.249 0.173,-0.234 0.195,-0.216 0.216,-0.195 0.234,-0.173 0.249,-0.15 0.263,-0.124 0.274,-0.098 0.283,-0.071 0.287,-0.043 0.291,-0.014 0.291,0.014 0.287,0.043 0.283,0.071 0.274,0.098 0.263,0.124 0.249,0.15 0.234,0.173 0.216,0.195 0.195,0.216 0.173,0.234 0.15,0.249 0.124,0.263 0.098,0.274 0.071,0.283 0.043,0.287 0.014,0.291 -0.014,0.291 -0.043,0.287 -0.071,0.283 -0.098,0.274 -0.124,0.263 -0.15,0.249 -0.173,0.234 -0.195,0.216 -0.216,0.195 -0.234,0.173 -0.249,0.15 -0.263,0.124 -0.274,0.098 -0.283,0.071 -0.287,0.043 -0.291,0.014 z"
     id="path857"
     style="fill:none;stroke:#000000;stroke-opacity:1" />
  <path
     d="m 161.244,-156.514 -0.287,-0.043 -0.283,-0.071 -0.274,-0.098 -0.263,-0.124 -0.249,-0.15 -0.234,-0.173 -0.216,-0.195 -0.195,-0.216 -0.173,-0.234 -0.15,-0.249 -0.124,-0.263 -0.098,-0.274 -0.071,-0.283 -0.043,-0.287 -0.014,-0.291 0.014,-0.291 0.043,-0.287 0.071,-0.283 0.098,-0.274 0.124,-0.263 0.15,-0.249 0.173,-0.234 0.195,-0.216 0.216,-0.195 0.234,-0.173 0.249,-0.15 0.263,-0.124 0.274,-0.098 0.283,-0.071 0.287,-0.043 0.291,-0.014 0.291,0.014 0.287,0.043 0.283,0.071 0.274,0.098 0.263,0.124 0.249,0.15 0.234,0.173 0.216,0.195 0.195,0.216 0.173,0.234 0.15,0.249 0.124,0.263 0.098,0.274 0.071,0.283 0.043,0.287 0.014,0.291 -0.014,0.291 -0.043,0.287 -0.071,0.283 -0.098,0.274 -0.124,0.263 -0.15,0.249 -0.173,0.234 -0.195,0.216 -0.216,0.195 -0.234,0.173 -0.249,0.15 -0.263,0.124 -0.274,0.098 -0.283,0.071 -0.287,0.043 -0.291,0.014 z"
     id="path855"
     style="fill:none;stroke:#000000;stroke-opacity:1" />
  <path
     d="m 186.244,-156.514 -0.287,-0.043 -0.283,-0.071 -0.274,-0.098 -0.263,-0.124 -0.249,-0.15 -0.234,-0.173 -0.216,-0.195 -0.195,-0.216 -0.173,-0.234 -0.15,-0.249 -0.124,-0.263 -0.098,-0.274 -0.071,-0.283 -0.043,-0.287 -0.014,-0.291 0.014,-0.291 0.043,-0.287 0.071,-0.283 0.098,-0.274 0.124,-0.263 0.15,-0.249 0.173,-0.234 0.195,-0.216 0.216,-0.195 0.234,-0.173 0.249,-0.15 0.263,-0.124 0.274,-0.098 0.283,-0.071 0.287,-0.043 0.291,-0.014 0.291,0.014 0.287,0.043 0.283,0.071 0.274,0.098 0.263,0.124 0.249,0.15 0.234,0.173 0.216,0.195 0.195,0.216 0.173,0.234 0.15,0.249 0.124,0.263 0.098,0.274 0.071,0.283 0.043,0.287 0.014,0.291 -0.014,0.291 -0.043,0.287 -0.071,0.283 -0.098,0.274 -0.124,0.263 -0.15,0.249 -0.173,0.234 -0.195,0.216 -0.216,0.195 -0.234,0.173 -0.249,0.15 -0.263,0.124 -0.274,0.098 -0.283,0.071 -0.287,0.043 -0.291,0.014 z"
     id="path853"
     style="fill:none;stroke:#000000;stroke-opacity:1" />
  <path
     d="m 211.244,-156.514 -0.287,-0.043 -0.283,-0.071 -0.274,-0.098 -0.263,-0.124 -0.249,-0.15 -0.234,-0.173 -0.216,-0.195 -0.195,-0.216 -0.173,-0.234 -0.15,-0.249 -0.124,-0.263 -0.098,-0.274 -0.071,-0.283 -0.043,-0.287 -0.014,-0.291 0.014,-0.291 0.043,-0.287 0.071,-0.283 0.098,-0.274 0.124,-0.263 0.15,-0.249 0.173,-0.234 0.195,-0.216 0.216,-0.195 0.234,-0.173 0.249,-0.15 0.263,-0.124 0.274,-0.098 0.283,-0.071 0.287,-0.043 0.291,-0.014 0.291,0.014 0.287,0.043 0.283,0.071 0.274,0.098 0.263,0.124 0.249,0.15 0.234,0.173 0.216,0.195 0.195,0.216 0.173,0.234 0.15,0.249 0.124,0.263 0.098,0.274 0.071,0.283 0.043,0.287 0.014,0.291 -0.014,0.291 -0.043,0.287 -0.071,0.283 -0.098,0.274 -0.124,0.263 -0.15,0.249 -0.173,0.234 -0.195,0.216 -0.216,0.195 -0.234,0.173 -0.249,0.15 -0.263,0.124 -0.274,0.098 -0.283,0.071 -0.287,0.043 -0.291,0.014 z"
     id="path851"
     style="fill:none;stroke:#000000;stroke-opacity:1" />
  <path
     d="m 236.244,-156.514 -0.287,-0.043 -0.283,-0.071 -0.274,-0.098 -0.263,-0.124 -0.249,-0.15 -0.234,-0.173 -0.216,-0.195 -0.195,-0.216 -0.173,-0.234 -0.15,-0.249 -0.124,-0.263 -0.098,-0.274 -0.071,-0.283 -0.043,-0.287 -0.014,-0.291 0.014,-0.291 0.043,-0.287 0.071,-0.283 0.098,-0.274 0.124,-0.263 0.15,-0.249 0.173,-0.234 0.195,-0.216 0.216,-0.195 0.234,-0.173 0.249,-0.15 0.263,-0.124 0.274,-0.098 0.283,-0.071 0.287,-0.043 0.291,-0.014 0.291,0.014 0.287,0.043 0.283,0.071 0.274,0.098 0.263,0.124 0.249,0.15 0.234,0.173 0.216,0.195 0.195,0.216 0.173,0.234 0.15,0.249 0.124,0.263 0.098,0.274 0.071,0.283 0.043,0.287 0.014,0.291 -0.014,0.291 -0.043,0.287 -0.071,0.283 -0.098,0.274 -0.124,0.263 -0.15,0.249 -0.173,0.234 -0.195,0.216 -0.216,0.195 -0.234,0.173 -0.249,0.15 -0.263,0.124 -0.274,0.098 -0.283,0.071 -0.287,0.043 -0.291,0.014 z"
     id="path849"
     style="fill:none;stroke:#000000;stroke-opacity:1" />
  <path
     d="m 261.244,-156.514 -0.287,-0.043 -0.283,-0.071 -0.274,-0.098 -0.263,-0.124 -0.249,-0.15 -0.234,-0.173 -0.216,-0.195 -0.195,-0.216 -0.173,-0.234 -0.15,-0.249 -0.124,-0.263 -0.098,-0.274 -0.071,-0.283 -0.043,-0.287 -0.014,-0.291 0.014,-0.291 0.043,-0.287 0.071,-0.283 0.098,-0.274 0.124,-0.263 0.15,-0.249 0.173,-0.234 0.195,-0.216 0.216,-0.195 0.234,-0.173 0.249,-0.15 0.263,-0.124 0.274,-0.098 0.283,-0.071 0.287,-0.043 0.291,-0.014 0.291,0.014 0.287,0.043 0.283,0.071 0.274,0.098 0.263,0.124 0.249,0.15 0.234,0.173 0.216,0.195 0.195,0.216 0.173,0.234 0.15,0.249 0.124,0.263 0.098,0.274 0.071,0.283 0.043,0.287 0.014,0.291 -0.014,0.291 -0.043,0.287 -0.071,0.283 -0.098,0.274 -0.124,0.263 -0.15,0.249 -0.173,0.234 -0.195,0.216 -0.216,0.195 -0.234,0.173 -0.249,0.15 -0.263,0.124 -0.274,0.098 -0.283,0.071 -0.287,0.043 -0.291,0.014 z"
     id="path847"
     style="fill:none;stroke:#000000;stroke-opacity:1" />
  <path
     d="m 286.244,-156.514 -0.287,-0.043 -0.283,-0.071 -0.274,-0.098 -0.263,-0.124 -0.249,-0.15 -0.234,-0.173 -0.216,-0.195 -0.195,-0.216 -0.173,-0.234 -0.15,-0.249 -0.124,-0.263 -0.098,-0.274 -0.071,-0.283 -0.043,-0.287 -0.014,-0.291 0.014,-0.291 0.043,-0.287 0.071,-0.283 0.098,-0.274 0.124,-0.263 0.15,-0.249 0.173,-0.234 0.195,-0.216 0.216,-0.195 0.234,-0.173 0.249,-0.15 0.263,-0.124 0.274,-0.098 0.283,-0.071 0.287,-0.043 0.291,-0.014 0.291,0.014 0.287,0.043 0.283,0.071 0.274,0.098 0.263,0.124 0.249,0.15 0.234,0.173 0.216,0.195 0.195,0.216 0.173,0.234 0.15,0.249 0.124,0.263 0.098,0.274 0.071,0.283 0.043,0.287 0.014,0.291 -0.014,0.291 -0.043,0.287 -0.071,0.283 -0.098,0.274 -0.124,0.263 -0.15,0.249 -0.173,0.234 -0.195,0.216 -0.216,0.195 -0.234,0.173 -0.249,0.15 -0.263,0.124 -0.274,0.098 -0.283,0.071 -0.287,0.043 -0.291,0.014 z"
     id="path845"
     style="fill:none;stroke:#000000;stroke-opacity:1" />
  <path
     d="m 86.244,-156.514 -0.287,-0.043 -0.283,-0.071 -0.274,-0.098 -0.263,-0.124 -0.249,-0.15 -0.234,-0.173 -0.216,-0.195 -0.195,-0.216 -0.173,-0.234 -0.15,-0.249 -0.124,-0.263 -0.098,-0.274 -0.071,-0.283 -0.043,-0.287 -0.014,-0.291 0.014,-0.291 0.043,-0.287 0.071,-0.283 0.098,-0.274 0.124,-0.263 0.15,-0.249 0.173,-0.234 0.195,-0.216 0.216,-0.195 0.234,-0.173 0.249,-0.15 0.263,-0.124 0.274,-0.098 0.283,-0.071 0.287,-0.043 0.291,-0.014 0.291,0.014 0.287,0.043 0.283,0.071 0.274,0.098 0.263,0.124 0.249,0.15 0.234,0.173 0.216,0.195 0.195,0.216 0.173,0.234 0.15,0.249 0.124,0.263 0.098,0.274 0.071,0.283 0.043,0.287 0.014,0.291 -0.014,0.291 -0.043,0.287 -0.071,0.283 -0.098,0.274 -0.124,0.263 -0.15,0.249 -0.173,0.234 -0.195,0.216 -0.216,0.195 -0.234,0.173 -0.249,0.15 -0.263,0.124 -0.274,0.098 -0.283,0.071 -0.287,0.043 -0.291,0.014 z"
     id="path843"
     style="fill:none;stroke:#000000;stroke-opacity:1" />
  <path
     d="m 136.146,-180.519 -0.385,-0.057 -0.377,-0.095 -0.366,-0.131 -0.352,-0.166 -0.334,-0.2 -0.312,-0.232 -0.289,-0.261 -0.261,-0.289 -0.232,-0.312 -0.2,-0.334 -0.166,-0.352 -0.131,-0.366 -0.095,-0.377 -0.057,-0.385 -0.019,-0.389 0.019,-0.389 0.057,-0.385 0.095,-0.377 0.131,-0.366 0.166,-0.352 0.2,-0.334 0.232,-0.312 0.261,-0.289 0.289,-0.261 0.312,-0.232 0.334,-0.2 0.352,-0.166 0.366,-0.131 0.377,-0.095 0.385,-0.057 0.389,-0.019 0.389,0.019 0.385,0.057 0.377,0.095 0.366,0.131 0.352,0.166 0.334,0.2 0.312,0.232 0.289,0.261 0.261,0.289 0.232,0.312 0.2,0.334 0.166,0.352 0.131,0.366 0.095,0.377 0.057,0.385 0.019,0.389 -0.019,0.389 -0.057,0.385 -0.095,0.377 -0.131,0.366 -0.166,0.352 -0.2,0.334 -0.232,0.312 -0.261,0.289 -0.289,0.261 -0.312,0.232 -0.334,0.2 -0.352,0.166 -0.366,0.131 -0.377,0.095 -0.385,0.057 -0.389,0.019 z"
     id="path841"
     style="fill:none;stroke:#000000;stroke-opacity:1" />
  <path
     d="m 286.146,-180.519 -0.385,-0.057 -0.377,-0.095 -0.366,-0.131 -0.352,-0.166 -0.334,-0.2 -0.312,-0.232 -0.289,-0.261 -0.261,-0.289 -0.232,-0.312 -0.2,-0.334 -0.166,-0.352 -0.131,-0.366 -0.095,-0.377 -0.057,-0.385 -0.019,-0.389 0.019,-0.389 0.057,-0.385 0.095,-0.377 0.131,-0.366 0.166,-0.352 0.2,-0.334 0.232,-0.312 0.261,-0.289 0.289,-0.261 0.312,-0.232 0.334,-0.2 0.352,-0.166 0.366,-0.131 0.377,-0.095 0.385,-0.057 0.389,-0.019 0.389,0.019 0.385,0.057 0.377,0.095 0.366,0.131 0.352,0.166 0.334,0.2 0.312,0.232 0.289,0.261 0.261,0.289 0.232,0.312 0.2,0.334 0.166,0.352 0.131,0.366 0.095,0.377 0.057,0.385 0.019,0.389 -0.019,0.389 -0.057,0.385 -0.095,0.377 -0.131,0.366 -0.166,0.352 -0.2,0.334 -0.232,0.312 -0.261,0.289 -0.289,0.261 -0.312,0.232 -0.334,0.2 -0.352,0.166 -0.366,0.131 -0.377,0.095 -0.385,0.057 -0.389,0.019 z"
     id="path839"
     style="fill:none;stroke:#000000;stroke-opacity:1" />
  <path
     d="m 261.146,-180.519 -0.385,-0.057 -0.377,-0.095 -0.366,-0.131 -0.352,-0.166 -0.334,-0.2 -0.312,-0.232 -0.289,-0.261 -0.261,-0.289 -0.232,-0.312 -0.2,-0.334 -0.166,-0.352 -0.131,-0.366 -0.095,-0.377 -0.057,-0.385 -0.019,-0.389 0.019,-0.389 0.057,-0.385 0.095,-0.377 0.131,-0.366 0.166,-0.352 0.2,-0.334 0.232,-0.312 0.261,-0.289 0.289,-0.261 0.312,-0.232 0.334,-0.2 0.352,-0.166 0.366,-0.131 0.377,-0.095 0.385,-0.057 0.389,-0.019 0.389,0.019 0.385,0.057 0.377,0.095 0.366,0.131 0.352,0.166 0.334,0.2 0.312,0.232 0.289,0.261 0.261,0.289 0.232,0.312 0.2,0.334 0.166,0.352 0.131,0.366 0.095,0.377 0.057,0.385 0.019,0.389 -0.019,0.389 -0.057,0.385 -0.095,0.377 -0.131,0.366 -0.166,0.352 -0.2,0.334 -0.232,0.312 -0.261,0.289 -0.289,0.261 -0.312,0.232 -0.334,0.2 -0.352,0.166 -0.366,0.131 -0.377,0.095 -0.385,0.057 -0.389,0.019 z"
     id="path837"
     style="fill:none;stroke:#000000;stroke-opacity:1" />
  <path
     d="m 236.146,-180.519 -0.385,-0.057 -0.377,-0.095 -0.366,-0.131 -0.352,-0.166 -0.334,-0.2 -0.312,-0.232 -0.289,-0.261 -0.261,-0.289 -0.232,-0.312 -0.2,-0.334 -0.166,-0.352 -0.131,-0.366 -0.095,-0.377 -0.057,-0.385 -0.019,-0.389 0.019,-0.389 0.057,-0.385 0.095,-0.377 0.131,-0.366 0.166,-0.352 0.2,-0.334 0.232,-0.312 0.261,-0.289 0.289,-0.261 0.312,-0.232 0.334,-0.2 0.352,-0.166 0.366,-0.131 0.377,-0.095 0.385,-0.057 0.389,-0.019 0.389,0.019 0.385,0.057 0.377,0.095 0.366,0.131 0.352,0.166 0.334,0.2 0.312,0.232 0.289,0.261 0.261,0.289 0.232,0.312 0.2,0.334 0.166,0.352 0.131,0.366 0.095,0.377 0.057,0.385 0.019,0.389 -0.019,0.389 -0.057,0.385 -0.095,0.377 -0.131,0.366 -0.166,0.352 -0.2,0.334 -0.232,0.312 -0.261,0.289 -0.289,0.261 -0.312,0.232 -0.334,0.2 -0.352,0.166 -0.366,0.131 -0.377,0.095 -0.385,0.057 -0.389,0.019 z"
     id="path835"
     style="fill:none;stroke:#000000;stroke-opacity:1" />
  <path
     d="m 186.146,-180.519 -0.385,-0.057 -0.377,-0.095 -0.366,-0.131 -0.352,-0.166 -0.334,-0.2 -0.312,-0.232 -0.289,-0.261 -0.261,-0.289 -0.232,-0.312 -0.2,-0.334 -0.166,-0.352 -0.131,-0.366 -0.095,-0.377 -0.057,-0.385 -0.019,-0.389 0.019,-0.389 0.057,-0.385 0.095,-0.377 0.131,-0.366 0.166,-0.352 0.2,-0.334 0.232,-0.312 0.261,-0.289 0.289,-0.261 0.312,-0.232 0.334,-0.2 0.352,-0.166 0.366,-0.131 0.377,-0.095 0.385,-0.057 0.389,-0.019 0.389,0.019 0.385,0.057 0.377,0.095 0.366,0.131 0.352,0.166 0.334,0.2 0.312,0.232 0.289,0.261 0.261,0.289 0.232,0.312 0.2,0.334 0.166,0.352 0.131,0.366 0.095,0.377 0.057,0.385 0.019,0.389 -0.019,0.389 -0.057,0.385 -0.095,0.377 -0.131,0.366 -0.166,0.352 -0.2,0.334 -0.232,0.312 -0.261,0.289 -0.289,0.261 -0.312,0.232 -0.334,0.2 -0.352,0.166 -0.366,0.131 -0.377,0.095 -0.385,0.057 -0.389,0.019 z"
     id="path833"
     style="fill:none;stroke:#000000;stroke-opacity:1" />
  <path
     d="m 161.146,-180.519 -0.385,-0.057 -0.377,-0.095 -0.366,-0.131 -0.352,-0.166 -0.334,-0.2 -0.312,-0.232 -0.289,-0.261 -0.261,-0.289 -0.232,-0.312 -0.2,-0.334 -0.166,-0.352 -0.131,-0.366 -0.095,-0.377 -0.057,-0.385 -0.019,-0.389 0.019,-0.389 0.057,-0.385 0.095,-0.377 0.131,-0.366 0.166,-0.352 0.2,-0.334 0.232,-0.312 0.261,-0.289 0.289,-0.261 0.312,-0.232 0.334,-0.2 0.352,-0.166 0.366,-0.131 0.377,-0.095 0.385,-0.057 0.389,-0.019 0.389,0.019 0.385,0.057 0.377,0.095 0.366,0.131 0.352,0.166 0.334,0.2 0.312,0.232 0.289,0.261 0.261,0.289 0.232,0.312 0.2,0.334 0.166,0.352 0.131,0.366 0.095,0.377 0.057,0.385 0.019,0.389 -0.019,0.389 -0.057,0.385 -0.095,0.377 -0.131,0.366 -0.166,0.352 -0.2,0.334 -0.232,0.312 -0.261,0.289 -0.289,0.261 -0.312,0.232 -0.334,0.2 -0.352,0.166 -0.366,0.131 -0.377,0.095 -0.385,0.057 -0.389,0.019 z"
     id="path831"
     style="fill:none;stroke:#000000;stroke-opacity:1" />
  <path
     d="m 111.146,-180.519 -0.385,-0.057 -0.377,-0.095 -0.366,-0.131 -0.352,-0.166 -0.334,-0.2 -0.312,-0.232 -0.289,-0.261 -0.261,-0.289 -0.232,-0.312 -0.2,-0.334 -0.166,-0.352 -0.131,-0.366 -0.095,-0.377 -0.057,-0.385 -0.019,-0.389 0.019,-0.389 0.057,-0.385 0.095,-0.377 0.131,-0.366 0.166,-0.352 0.2,-0.334 0.232,-0.312 0.261,-0.289 0.289,-0.261 0.312,-0.232 0.334,-0.2 0.352,-0.166 0.366,-0.131 0.377,-0.095 0.385,-0.057 0.389,-0.019 0.389,0.019 0.385,0.057 0.377,0.095 0.366,0.131 0.352,0.166 0.334,0.2 0.312,0.232 0.289,0.261 0.261,0.289 0.232,0.312 0.2,0.334 0.166,0.352 0.131,0.366 0.095,0.377 0.057,0.385 0.019,0.389 -0.019,0.389 -0.057,0.385 -0.095,0.377 -0.131,0.366 -0.166,0.352 -0.2,0.334 -0.232,0.312 -0.261,0.289 -0.289,0.261 -0.312,0.232 -0.334,0.2 -0.352,0.166 -0.366,0.131 -0.377,0.095 -0.385,0.057 -0.389,0.019 z"
     id="path829"
     style="fill:none;stroke:#000000;stroke-opacity:1" />
  <path
     d="m 86.146,-180.519 -0.385,-0.057 -0.377,-0.095 -0.366,-0.131 -0.352,-0.166 -0.334,-0.2 -0.312,-0.232 -0.289,-0.261 -0.261,-0.289 -0.232,-0.312 -0.2,-0.334 -0.166,-0.352 -0.131,-0.366 -0.095,-0.377 -0.057,-0.385 -0.019,-0.389 0.019,-0.389 0.057,-0.385 0.095,-0.377 0.131,-0.366 0.166,-0.352 0.2,-0.334 0.232,-0.312 0.261,-0.289 0.289,-0.261 0.312,-0.232 0.334,-0.2 0.352,-0.166 0.366,-0.131 0.377,-0.095 0.385,-0.057 0.389,-0.019 0.389,0.019 0.385,0.057 0.377,0.095 0.366,0.131 0.352,0.166 0.334,0.2 0.312,0.232 0.289,0.261 0.261,0.289 0.232,0.312 0.2,0.334 0.166,0.352 0.131,0.366 0.095,0.377 0.057,0.385 0.019,0.389 -0.019,0.389 -0.057,0.385 -0.095,0.377 -0.131,0.366 -0.166,0.352 -0.2,0.334 -0.232,0.312 -0.261,0.289 -0.289,0.261 -0.312,0.232 -0.334,0.2 -0.352,0.166 -0.366,0.131 -0.377,0.095 -0.385,0.057 -0.389,0.019 z"
     id="path827"
     style="fill:none;stroke:#000000;stroke-opacity:1" />
  <path
     d="m 61.146,-180.519 -0.385,-0.057 -0.377,-0.095 -0.366,-0.131 -0.352,-0.166 -0.334,-0.2 -0.312,-0.232 -0.289,-0.261 -0.261,-0.289 -0.232,-0.312 -0.2,-0.334 -0.166,-0.352 -0.131,-0.366 -0.095,-0.377 -0.057,-0.385 -0.019,-0.389 0.019,-0.389 0.057,-0.385 0.095,-0.377 0.131,-0.366 0.166,-0.352 0.2,-0.334 0.232,-0.312 0.261,-0.289 0.289,-0.261 0.312,-0.232 0.334,-0.2 0.352,-0.166 0.366,-0.131 0.377,-0.095 0.385,-0.057 0.389,-0.019 0.389,0.019 0.385,0.057 0.377,0.095 0.366,0.131 0.352,0.166 0.334,0.2 0.312,0.232 0.289,0.261 0.261,0.289 0.232,0.312 0.2,0.334 0.166,0.352 0.131,0.366 0.095,0.377 0.057,0.385 0.019,0.389 -0.019,0.389 -0.057,0.385 -0.095,0.377 -0.131,0.366 -0.166,0.352 -0.2,0.334 -0.232,0.312 -0.261,0.289 -0.289,0.261 -0.312,0.232 -0.334,0.2 -0.352,0.166 -0.366,0.131 -0.377,0.095 -0.385,0.057 -0.389,0.019 z"
     id="path825"
     style="fill:none;stroke:#000000;stroke-opacity:1" />
  <path
     d="m 36.146,-180.519 -0.385,-0.057 -0.377,-0.095 -0.366,-0.131 -0.352,-0.166 -0.334,-0.2 -0.312,-0.232 -0.289,-0.261 -0.261,-0.289 -0.232,-0.312 -0.2,-0.334 -0.166,-0.352 -0.131,-0.366 -0.095,-0.377 -0.057,-0.385 -0.019,-0.389 0.019,-0.389 0.057,-0.385 0.095,-0.377 0.131,-0.366 0.166,-0.352 0.2,-0.334 0.232,-0.312 0.261,-0.289 0.289,-0.261 0.312,-0.232 0.334,-0.2 0.352,-0.166 0.366,-0.131 0.377,-0.095 0.385,-0.057 0.389,-0.019 0.389,0.019 0.385,0.057 0.377,0.095 0.366,0.131 0.352,0.166 0.334,0.2 0.312,0.232 0.289,0.261 0.261,0.289 0.232,0.312 0.2,0.334 0.166,0.352 0.131,0.366 0.095,0.377 0.057,0.385 0.019,0.389 -0.019,0.389 -0.057,0.385 -0.095,0.377 -0.131,0.366 -0.166,0.352 -0.2,0.334 -0.232,0.312 -0.261,0.289 -0.289,0.261 -0.312,0.232 -0.334,0.2 -0.352,0.166 -0.366,0.131 -0.377,0.095 -0.385,0.057 -0.389,0.019 z"
     id="path823"
     style="fill:none;stroke:#000000;stroke-opacity:1" />
  <path
     d="m 11.146,-180.519 -0.385,-0.057 -0.377,-0.095 -0.366,-0.131 -0.352,-0.166 -0.334,-0.2 -0.312,-0.232 -0.289,-0.261 -0.261,-0.289 -0.232,-0.312 -0.2,-0.334 -0.166,-0.352 -0.131,-0.366 -0.095,-0.377 -0.057,-0.385 -0.019,-0.389 0.019,-0.389 0.057,-0.385 0.095,-0.377 0.131,-0.366 0.166,-0.352 0.2,-0.334 0.232,-0.312 0.261,-0.289 0.289,-0.261 0.312,-0.232 0.334,-0.2 0.352,-0.166 0.366,-0.131 0.377,-0.095 0.385,-0.057 0.389,-0.019 0.389,0.019 0.385,0.057 0.377,0.095 0.366,0.131 0.352,0.166 0.334,0.2 0.312,0.232 0.289,0.261 0.261,0.289 0.232,0.312 0.2,0.334 0.166,0.352 0.131,0.366 0.095,0.377 0.057,0.385 0.019,0.389 -0.019,0.389 -0.057,0.385 -0.095,0.377 -0.131,0.366 -0.166,0.352 -0.2,0.334 -0.232,0.312 -0.261,0.289 -0.289,0.261 -0.312,0.232 -0.334,0.2 -0.352,0.166 -0.366,0.131 -0.377,0.095 -0.385,0.057 -0.389,0.019 z"
     id="path821"
     style="fill:none;stroke:#000000;stroke-opacity:1" />
  <path
     d="m 211.146,-180.519 -0.385,-0.057 -0.377,-0.095 -0.366,-0.131 -0.352,-0.166 -0.334,-0.2 -0.312,-0.232 -0.289,-0.261 -0.261,-0.289 -0.232,-0.312 -0.2,-0.334 -0.166,-0.352 -0.131,-0.366 -0.095,-0.377 -0.057,-0.385 -0.019,-0.389 0.019,-0.389 0.057,-0.385 0.095,-0.377 0.131,-0.366 0.166,-0.352 0.2,-0.334 0.232,-0.312 0.261,-0.289 0.289,-0.261 0.312,-0.232 0.334,-0.2 0.352,-0.166 0.366,-0.131 0.377,-0.095 0.385,-0.057 0.389,-0.019 0.389,0.019 0.385,0.057 0.377,0.095 0.366,0.131 0.352,0.166 0.334,0.2 0.312,0.232 0.289,0.261 0.261,0.289 0.232,0.312 0.2,0.334 0.166,0.352 0.131,0.366 0.095,0.377 0.057,0.385 0.019,0.389 -0.019,0.389 -0.057,0.385 -0.095,0.377 -0.131,0.366 -0.166,0.352 -0.2,0.334 -0.232,0.312 -0.261,0.289 -0.289,0.261 -0.312,0.232 -0.334,0.2 -0.352,0.166 -0.366,0.131 -0.377,0.095 -0.385,0.057 -0.389,0.019 z"
     id="path819"
     style="fill:none;stroke:#000000;stroke-opacity:1" />
  <path
     d="m 11.146,-205.519 -0.385,-0.057 -0.377,-0.095 -0.366,-0.131 -0.352,-0.166 -0.334,-0.2 -0.312,-0.232 -0.289,-0.261 -0.261,-0.289 -0.232,-0.312 -0.2,-0.334 -0.166,-0.352 -0.131,-0.366 -0.095,-0.377 -0.057,-0.385 -0.019,-0.389 0.019,-0.389 0.057,-0.385 0.095,-0.377 0.131,-0.366 0.166,-0.352 0.2,-0.334 0.232,-0.312 0.261,-0.289 0.289,-0.261 0.312,-0.232 0.334,-0.2 0.352,-0.166 0.366,-0.131 0.377,-0.095 0.385,-0.057 0.389,-0.019 0.389,0.019 0.385,0.057 0.377,0.095 0.366,0.131 0.352,0.166 0.334,0.2 0.312,0.232 0.289,0.261 0.261,0.289 0.232,0.312 0.2,0.334 0.166,0.352 0.131,0.366 0.095,0.377 0.057,0.385 0.019,0.389 -0.019,0.389 -0.057,0.385 -0.095,0.377 -0.131,0.366 -0.166,0.352 -0.2,0.334 -0.232,0.312 -0.261,0.289 -0.289,0.261 -0.312,0.232 -0.334,0.2 -0.352,0.166 -0.366,0.131 -0.377,0.095 -0.385,0.057 -0.389,0.019 z"
     id="path817"
     style="fill:none;stroke:#000000;stroke-opacity:1" />
  <path
     d="m 36.146,-205.519 -0.385,-0.057 -0.377,-0.095 -0.366,-0.131 -0.352,-0.166 -0.334,-0.2 -0.312,-0.232 -0.289,-0.261 -0.261,-0.289 -0.232,-0.312 -0.2,-0.334 -0.166,-0.352 -0.131,-0.366 -0.095,-0.377 -0.057,-0.385 -0.019,-0.389 0.019,-0.389 0.057,-0.385 0.095,-0.377 0.131,-0.366 0.166,-0.352 0.2,-0.334 0.232,-0.312 0.261,-0.289 0.289,-0.261 0.312,-0.232 0.334,-0.2 0.352,-0.166 0.366,-0.131 0.377,-0.095 0.385,-0.057 0.389,-0.019 0.389,0.019 0.385,0.057 0.377,0.095 0.366,0.131 0.352,0.166 0.334,0.2 0.312,0.232 0.289,0.261 0.261,0.289 0.232,0.312 0.2,0.334 0.166,0.352 0.131,0.366 0.095,0.377 0.057,0.385 0.019,0.389 -0.019,0.389 -0.057,0.385 -0.095,0.377 -0.131,0.366 -0.166,0.352 -0.2,0.334 -0.232,0.312 -0.261,0.289 -0.289,0.261 -0.312,0.232 -0.334,0.2 -0.352,0.166 -0.366,0.131 -0.377,0.095 -0.385,0.057 -0.389,0.019 z"
     id="path815"
     style="fill:none;stroke:#000000;stroke-opacity:1" />
  <path
     d="m 61.146,-205.519 -0.385,-0.057 -0.377,-0.095 -0.366,-0.131 -0.352,-0.166 -0.334,-0.2 -0.312,-0.232 -0.289,-0.261 -0.261,-0.289 -0.232,-0.312 -0.2,-0.334 -0.166,-0.352 -0.131,-0.366 -0.095,-0.377 -0.057,-0.385 -0.019,-0.389 0.019,-0.389 0.057,-0.385 0.095,-0.377 0.131,-0.366 0.166,-0.352 0.2,-0.334 0.232,-0.312 0.261,-0.289 0.289,-0.261 0.312,-0.232 0.334,-0.2 0.352,-0.166 0.366,-0.131 0.377,-0.095 0.385,-0.057 0.389,-0.019 0.389,0.019 0.385,0.057 0.377,0.095 0.366,0.131 0.352,0.166 0.334,0.2 0.312,0.232 0.289,0.261 0.261,0.289 0.232,0.312 0.2,0.334 0.166,0.352 0.131,0.366 0.095,0.377 0.057,0.385 0.019,0.389 -0.019,0.389 -0.057,0.385 -0.095,0.377 -0.131,0.366 -0.166,0.352 -0.2,0.334 -0.232,0.312 -0.261,0.289 -0.289,0.261 -0.312,0.232 -0.334,0.2 -0.352,0.166 -0.366,0.131 -0.377,0.095 -0.385,0.057 -0.389,0.019 z"
     id="path813"
     style="fill:none;stroke:#000000;stroke-opacity:1" />
  <path
     d="m 111.146,-205.519 -0.385,-0.057 -0.377,-0.095 -0.366,-0.131 -0.352,-0.166 -0.334,-0.2 -0.312,-0.232 -0.289,-0.261 -0.261,-0.289 -0.232,-0.312 -0.2,-0.334 -0.166,-0.352 -0.131,-0.366 -0.095,-0.377 -0.057,-0.385 -0.019,-0.389 0.019,-0.389 0.057,-0.385 0.095,-0.377 0.131,-0.366 0.166,-0.352 0.2,-0.334 0.232,-0.312 0.261,-0.289 0.289,-0.261 0.312,-0.232 0.334,-0.2 0.352,-0.166 0.366,-0.131 0.377,-0.095 0.385,-0.057 0.389,-0.019 0.389,0.019 0.385,0.057 0.377,0.095 0.366,0.131 0.352,0.166 0.334,0.2 0.312,0.232 0.289,0.261 0.261,0.289 0.232,0.312 0.2,0.334 0.166,0.352 0.131,0.366 0.095,0.377 0.057,0.385 0.019,0.389 -0.019,0.389 -0.057,0.385 -0.095,0.377 -0.131,0.366 -0.166,0.352 -0.2,0.334 -0.232,0.312 -0.261,0.289 -0.289,0.261 -0.312,0.232 -0.334,0.2 -0.352,0.166 -0.366,0.131 -0.377,0.095 -0.385,0.057 -0.389,0.019 z"
     id="path811"
     style="fill:none;stroke:#000000;stroke-opacity:1" />
  <path
     d="m 136.146,-205.519 -0.385,-0.057 -0.377,-0.095 -0.366,-0.131 -0.352,-0.166 -0.334,-0.2 -0.312,-0.232 -0.289,-0.261 -0.261,-0.289 -0.232,-0.312 -0.2,-0.334 -0.166,-0.352 -0.131,-0.366 -0.095,-0.377 -0.057,-0.385 -0.019,-0.389 0.019,-0.389 0.057,-0.385 0.095,-0.377 0.131,-0.366 0.166,-0.352 0.2,-0.334 0.232,-0.312 0.261,-0.289 0.289,-0.261 0.312,-0.232 0.334,-0.2 0.352,-0.166 0.366,-0.131 0.377,-0.095 0.385,-0.057 0.389,-0.019 0.389,0.019 0.385,0.057 0.377,0.095 0.366,0.131 0.352,0.166 0.334,0.2 0.312,0.232 0.289,0.261 0.261,0.289 0.232,0.312 0.2,0.334 0.166,0.352 0.131,0.366 0.095,0.377 0.057,0.385 0.019,0.389 -0.019,0.389 -0.057,0.385 -0.095,0.377 -0.131,0.366 -0.166,0.352 -0.2,0.334 -0.232,0.312 -0.261,0.289 -0.289,0.261 -0.312,0.232 -0.334,0.2 -0.352,0.166 -0.366,0.131 -0.377,0.095 -0.385,0.057 -0.389,0.019 z"
     id="path809"
     style="fill:none;stroke:#000000;stroke-opacity:1" />
  <path
     d="m 161.146,-205.519 -0.385,-0.057 -0.377,-0.095 -0.366,-0.131 -0.352,-0.166 -0.334,-0.2 -0.312,-0.232 -0.289,-0.261 -0.261,-0.289 -0.232,-0.312 -0.2,-0.334 -0.166,-0.352 -0.131,-0.366 -0.095,-0.377 -0.057,-0.385 -0.019,-0.389 0.019,-0.389 0.057,-0.385 0.095,-0.377 0.131,-0.366 0.166,-0.352 0.2,-0.334 0.232,-0.312 0.261,-0.289 0.289,-0.261 0.312,-0.232 0.334,-0.2 0.352,-0.166 0.366,-0.131 0.377,-0.095 0.385,-0.057 0.389,-0.019 0.389,0.019 0.385,0.057 0.377,0.095 0.366,0.131 0.352,0.166 0.334,0.2 0.312,0.232 0.289,0.261 0.261,0.289 0.232,0.312 0.2,0.334 0.166,0.352 0.131,0.366 0.095,0.377 0.057,0.385 0.019,0.389 -0.019,0.389 -0.057,0.385 -0.095,0.377 -0.131,0.366 -0.166,0.352 -0.2,0.334 -0.232,0.312 -0.261,0.289 -0.289,0.261 -0.312,0.232 -0.334,0.2 -0.352,0.166 -0.366,0.131 -0.377,0.095 -0.385,0.057 -0.389,0.019 z"
     id="path807"
     style="fill:none;stroke:#000000;stroke-opacity:1" />
  <path
     d="m 186.146,-205.519 -0.385,-0.057 -0.377,-0.095 -0.366,-0.131 -0.352,-0.166 -0.334,-0.2 -0.312,-0.232 -0.289,-0.261 -0.261,-0.289 -0.232,-0.312 -0.2,-0.334 -0.166,-0.352 -0.131,-0.366 -0.095,-0.377 -0.057,-0.385 -0.019,-0.389 0.019,-0.389 0.057,-0.385 0.095,-0.377 0.131,-0.366 0.166,-0.352 0.2,-0.334 0.232,-0.312 0.261,-0.289 0.289,-0.261 0.312,-0.232 0.334,-0.2 0.352,-0.166 0.366,-0.131 0.377,-0.095 0.385,-0.057 0.389,-0.019 0.389,0.019 0.385,0.057 0.377,0.095 0.366,0.131 0.352,0.166 0.334,0.2 0.312,0.232 0.289,0.261 0.261,0.289 0.232,0.312 0.2,0.334 0.166,0.352 0.131,0.366 0.095,0.377 0.057,0.385 0.019,0.389 -0.019,0.389 -0.057,0.385 -0.095,0.377 -0.131,0.366 -0.166,0.352 -0.2,0.334 -0.232,0.312 -0.261,0.289 -0.289,0.261 -0.312,0.232 -0.334,0.2 -0.352,0.166 -0.366,0.131 -0.377,0.095 -0.385,0.057 -0.389,0.019 z"
     id="path805"
     style="fill:none;stroke:#000000;stroke-opacity:1" />
  <path
     d="m 211.146,-205.519 -0.385,-0.057 -0.377,-0.095 -0.366,-0.131 -0.352,-0.166 -0.334,-0.2 -0.312,-0.232 -0.289,-0.261 -0.261,-0.289 -0.232,-0.312 -0.2,-0.334 -0.166,-0.352 -0.131,-0.366 -0.095,-0.377 -0.057,-0.385 -0.019,-0.389 0.019,-0.389 0.057,-0.385 0.095,-0.377 0.131,-0.366 0.166,-0.352 0.2,-0.334 0.232,-0.312 0.261,-0.289 0.289,-0.261 0.312,-0.232 0.334,-0.2 0.352,-0.166 0.366,-0.131 0.377,-0.095 0.385,-0.057 0.389,-0.019 0.389,0.019 0.385,0.057 0.377,0.095 0.366,0.131 0.352,0.166 0.334,0.2 0.312,0.232 0.289,0.261 0.261,0.289 0.232,0.312 0.2,0.334 0.166,0.352 0.131,0.366 0.095,0.377 0.057,0.385 0.019,0.389 -0.019,0.389 -0.057,0.385 -0.095,0.377 -0.131,0.366 -0.166,0.352 -0.2,0.334 -0.232,0.312 -0.261,0.289 -0.289,0.261 -0.312,0.232 -0.334,0.2 -0.352,0.166 -0.366,0.131 -0.377,0.095 -0.385,0.057 -0.389,0.019 z"
     id="path803"
     style="fill:none;stroke:#000000;stroke-opacity:1" />
  <path
     d="m 236.146,-205.519 -0.385,-0.057 -0.377,-0.095 -0.366,-0.131 -0.352,-0.166 -0.334,-0.2 -0.312,-0.232 -0.289,-0.261 -0.261,-0.289 -0.232,-0.312 -0.2,-0.334 -0.166,-0.352 -0.131,-0.366 -0.095,-0.377 -0.057,-0.385 -0.019,-0.389 0.019,-0.389 0.057,-0.385 0.095,-0.377 0.131,-0.366 0.166,-0.352 0.2,-0.334 0.232,-0.312 0.261,-0.289 0.289,-0.261 0.312,-0.232 0.334,-0.2 0.352,-0.166 0.366,-0.131 0.377,-0.095 0.385,-0.057 0.389,-0.019 0.389,0.019 0.385,0.057 0.377,0.095 0.366,0.131 0.352,0.166 0.334,0.2 0.312,0.232 0.289,0.261 0.261,0.289 0.232,0.312 0.2,0.334 0.166,0.352 0.131,0.366 0.095,0.377 0.057,0.385 0.019,0.389 -0.019,0.389 -0.057,0.385 -0.095,0.377 -0.131,0.366 -0.166,0.352 -0.2,0.334 -0.232,0.312 -0.261,0.289 -0.289,0.261 -0.312,0.232 -0.334,0.2 -0.352,0.166 -0.366,0.131 -0.377,0.095 -0.385,0.057 -0.389,0.019 z"
     id="path801"
     style="fill:none;stroke:#000000;stroke-opacity:1" />
  <path
     d="m 261.146,-205.519 -0.385,-0.057 -0.377,-0.095 -0.366,-0.131 -0.352,-0.166 -0.334,-0.2 -0.312,-0.232 -0.289,-0.261 -0.261,-0.289 -0.232,-0.312 -0.2,-0.334 -0.166,-0.352 -0.131,-0.366 -0.095,-0.377 -0.057,-0.385 -0.019,-0.389 0.019,-0.389 0.057,-0.385 0.095,-0.377 0.131,-0.366 0.166,-0.352 0.2,-0.334 0.232,-0.312 0.261,-0.289 0.289,-0.261 0.312,-0.232 0.334,-0.2 0.352,-0.166 0.366,-0.131 0.377,-0.095 0.385,-0.057 0.389,-0.019 0.389,0.019 0.385,0.057 0.377,0.095 0.366,0.131 0.352,0.166 0.334,0.2 0.312,0.232 0.289,0.261 0.261,0.289 0.232,0.312 0.2,0.334 0.166,0.352 0.131,0.366 0.095,0.377 0.057,0.385 0.019,0.389 -0.019,0.389 -0.057,0.385 -0.095,0.377 -0.131,0.366 -0.166,0.352 -0.2,0.334 -0.232,0.312 -0.261,0.289 -0.289,0.261 -0.312,0.232 -0.334,0.2 -0.352,0.166 -0.366,0.131 -0.377,0.095 -0.385,0.057 -0.389,0.019 z"
     id="path799"
     style="fill:none;stroke:#000000;stroke-opacity:1" />
  <path
     d="m 286.146,-205.519 -0.385,-0.057 -0.377,-0.095 -0.366,-0.131 -0.352,-0.166 -0.334,-0.2 -0.312,-0.232 -0.289,-0.261 -0.261,-0.289 -0.232,-0.312 -0.2,-0.334 -0.166,-0.352 -0.131,-0.366 -0.095,-0.377 -0.057,-0.385 -0.019,-0.389 0.019,-0.389 0.057,-0.385 0.095,-0.377 0.131,-0.366 0.166,-0.352 0.2,-0.334 0.232,-0.312 0.261,-0.289 0.289,-0.261 0.312,-0.232 0.334,-0.2 0.352,-0.166 0.366,-0.131 0.377,-0.095 0.385,-0.057 0.389,-0.019 0.389,0.019 0.385,0.057 0.377,0.095 0.366,0.131 0.352,0.166 0.334,0.2 0.312,0.232 0.289,0.261 0.261,0.289 0.232,0.312 0.2,0.334 0.166,0.352 0.131,0.366 0.095,0.377 0.057,0.385 0.019,0.389 -0.019,0.389 -0.057,0.385 -0.095,0.377 -0.131,0.366 -0.166,0.352 -0.2,0.334 -0.232,0.312 -0.261,0.289 -0.289,0.261 -0.312,0.232 -0.334,0.2 -0.352,0.166 -0.366,0.131 -0.377,0.095 -0.385,0.057 -0.389,0.019 z"
     id="path797"
     style="fill:none;stroke:#000000;stroke-opacity:1" />
  <path
     d="m 86.146,-205.519 -0.385,-0.057 -0.377,-0.095 -0.366,-0.131 -0.352,-0.166 -0.334,-0.2 -0.312,-0.232 -0.289,-0.261 -0.261,-0.289 -0.232,-0.312 -0.2,-0.334 -0.166,-0.352 -0.131,-0.366 -0.095,-0.377 -0.057,-0.385 -0.019,-0.389 0.019,-0.389 0.057,-0.385 0.095,-0.377 0.131,-0.366 0.166,-0.352 0.2,-0.334 0.232,-0.312 0.261,-0.289 0.289,-0.261 0.312,-0.232 0.334,-0.2 0.352,-0.166 0.366,-0.131 0.377,-0.095 0.385,-0.057 0.389,-0.019 0.389,0.019 0.385,0.057 0.377,0.095 0.366,0.131 0.352,0.166 0.334,0.2 0.312,0.232 0.289,0.261 0.261,0.289 0.232,0.312 0.2,0.334 0.166,0.352 0.131,0.366 0.095,0.377 0.057,0.385 0.019,0.389 -0.019,0.389 -0.057,0.385 -0.095,0.377 -0.131,0.366 -0.166,0.352 -0.2,0.334 -0.232,0.312 -0.261,0.289 -0.289,0.261 -0.312,0.232 -0.334,0.2 -0.352,0.166 -0.366,0.131 -0.377,0.095 -0.385,0.057 -0.389,0.019 z"
     id="path795"
     style="fill:none;stroke:#000000;stroke-opacity:1" />
  <path
     d="M 14.07,-49.93 H 20 v 3 h 6.07 v -3 H 32 v 3 h 6.07 v -3 H 44 v 3 h 6.07 v -3 H 56 v 3 h 6.07 v -3 H 68 v 3 h 6.07 v -3 H 80 v 3 h 6.07 v -3 H 92 v 3 h 6.07 v -3 H 104 v 3 h 6.07 v -3 H 116 v 3 h 6.07 v -3 H 128 v 3 h 6.07 v -3 H 140 v 3 h 6.07 v -3 H 152 v 3 h 6.07 v -3 H 164 v 3 h 6.07 v -3 H 176 v 3 h 6.07 v -3 H 188 v 3 h 6.07 v -3 H 200 v 3 h 6.07 v -3 H 212 v 3 h 6.07 v -3 H 224 v 3 h 6.07 v -3 H 236 v 3 h 6.07 v -3 H 248 v 3 h 6.07 v -3 H 260 v 3 h 6.07 v -3 H 272 v 3 h 6.07 v -3 H 284 v 3 h 6.07 v -3 h 6 v -9 h 3 v -6.31 h -3 v -6.17 h 3 v -6.31 h -3 v -6.17 h 3 v -6.31 h -3 v -6.17 h 3 v -6.31 h -3 v -6.17 h 3 v -6.31 h -3 v -6.17 h 3 v -6.31 h -3 v -6.17 h 3 v -6.31 h -3 v -6.17 h 3 v -6.31 h -3 v -6.17 h 3 v -6.31 h -3 v -6.17 h 3 v -6.31 h -3 v -6.17 h 3 v -6.31 h -3 v -6.17 h 3 v -6.31 h -3 v -6.17 h 3 V -215 h -3 v -9 h -6 v -3 H 284 v 3 h -5.93 v -3 H 272 v 3 h -5.93 v -3 H 260 v 3 h -5.93 v -3 H 248 v 3 h -5.93 v -3 H 236 v 3 h -5.93 v -3 H 224 v 3 h -5.93 v -3 H 212 v 3 h -5.93 v -3 H 200 v 3 h -5.93 v -3 H 188 v 3 h -5.93 v -3 H 176 v 3 h -5.93 v -3 H 164 v 3 h -5.93 v -3 H 152 v 3 h -5.93 v -3 H 140 v 3 h -5.93 v -3 H 128 v 3 h -5.93 v -3 H 116 v 3 h -5.93 v -3 H 104 v 3 h -5.93 v -3 H 92 v 3 h -5.93 v -3 H 80 v 3 h -5.93 v -3 H 68 v 3 h -5.93 v -3 H 56 v 3 h -5.93 v -3 H 44 v 3 h -5.93 v -3 H 32 v 3 h -5.93 v -3 H 20 v 3 h -5.93 v -3 H 8 v 3 H 2 v 9 h -3 v 6.31 h 3 v 6.17 h -3 v 6.31 h 3 v 6.17 h -3 v 6.31 h 3 v 6.17 h -3 v 6.31 h 3 v 6.17 h -3 v 6.31 h 3 v 6.17 h -3 v 6.31 h 3 v 6.17 h -3 v 6.31 h 3 v 6.17 h -3 v 6.31 h 3 v 6.17 h -3 v 6.31 h 3 v 6.17 h -3 v 6.31 h 3 v 6.17 h -3 v 6.31 h 3 v 6.17 h -3 v 6.31 h 3 v 6.17 h -3 v 6.31 h 3 v 9 h 6 v 3 h 6.07 z"
     id="path4"
     style="fill:none;stroke:#000000;stroke-opacity:1" />
  <path
     d="m 279.308,-87.04785 -0.967,-0.1435 -0.949,-0.2376 -0.92,-0.3295 -0.885,-0.4181 -0.838,-0.5027 -0.786,-0.5825 -0.724,-0.6568 -0.657,-0.7246 -0.583,-0.7854 -0.502,-0.8387 -0.418,-0.8842 -0.33,-0.9208 -0.237,-0.9485 -0.144,-0.9674 -0.048,-0.9767 0.048,-0.9767 0.144,-0.9674 0.237,-0.9485 0.33,-0.9208 0.418,-0.8846 0.502,-0.838 0.583,-0.786 0.657,-0.724 0.724,-0.657 0.786,-0.583 0.838,-0.502 0.885,-0.418 0.92,-0.33 0.949,-0.237 0.967,-0.144 0.977,-0.048 0.977,0.048 0.967,0.144 0.949,0.237 0.92,0.33 0.885,0.418 0.838,0.502 0.786,0.583 0.724,0.657 0.657,0.724 0.583,0.786 0.502,0.838 0.418,0.8846 0.33,0.9208 0.237,0.9485 0.144,0.9674 0.048,0.9767 -0.048,0.9767 -0.144,0.9674 -0.237,0.9485 -0.33,0.9208 -0.418,0.8842 -0.502,0.8387 -0.583,0.7854 -0.657,0.7246 -0.724,0.6568 -0.786,0.5825 -0.838,0.5027 -0.885,0.4181 -0.92,0.3295 -0.949,0.2376 -0.967,0.1435 -0.977,0.048 z"
     id="path1065"
     style="fill:none;stroke:#000000;stroke-opacity:1" />
  <path
     d="m 279.308,-62.047952 -0.967,-0.1435 -0.949,-0.2376 -0.92,-0.3295 -0.885,-0.4181 -0.838,-0.5027 -0.786,-0.5825 -0.724,-0.6568 -0.657,-0.7246 -0.583,-0.7854 -0.502,-0.8387 -0.418,-0.8842 -0.33,-0.9208 -0.237,-0.9485 -0.144,-0.9674 -0.048,-0.9767 0.048,-0.9767 0.144,-0.9674 0.237,-0.948499 0.33,-0.9208 0.418,-0.884601 0.502,-0.837999 0.583,-0.786 0.657,-0.724001 0.724,-0.656999 0.786,-0.583 0.838,-0.501998 0.885,-0.418 0.92,-0.33 0.949,-0.237 0.967,-0.144 0.977,-0.048 0.977,0.048 0.967,0.144 0.949,0.237 0.92,0.33 0.885,0.418 0.838,0.501998 0.786,0.583 0.724,0.656999 0.657,0.724001 0.583,0.786 0.502,0.837999 0.418,0.884601 0.33,0.9208 0.237,0.948499 0.144,0.9674 0.048,0.9767 -0.048,0.9767 -0.144,0.9674 -0.237,0.9485 -0.33,0.9208 -0.418,0.8842 -0.502,0.8387 -0.583,0.7854 -0.657,0.7246 -0.724,0.6568 -0.786,0.5825 -0.838,0.5027 -0.885,0.4181 -0.92,0.3295 -0.949,0.2376 -0.967,0.1435 -0.977,0.048 z"
     id="path1067"
     style="fill:none;stroke:#000000;stroke-opacity:1" />
  <path
     d="m 254.308,-62.047952 -0.967,-0.1435 -0.949,-0.2376 -0.92,-0.3295 -0.885,-0.4181 -0.838,-0.5027 -0.786,-0.5825 -0.724,-0.6568 -0.657,-0.7246 -0.583,-0.7854 -0.502,-0.8387 -0.418,-0.8842 -0.33,-0.9208 -0.237,-0.9485 -0.144,-0.9674 -0.048,-0.9767 0.048,-0.9767 0.144,-0.9674 0.237,-0.948499 0.33,-0.9208 0.418,-0.884601 0.502,-0.837999 0.583,-0.786 0.657,-0.724001 0.724,-0.656999 0.786,-0.583 0.838,-0.501998 0.885,-0.418 0.92,-0.33 0.949,-0.237 0.967,-0.144 0.977,-0.048 0.977,0.048 0.967,0.144 0.949,0.237 0.92,0.33 0.885,0.418 0.838,0.501998 0.786,0.583 0.724,0.656999 0.657,0.724001 0.583,0.786 0.502,0.837999 0.418,0.884601 0.33,0.9208 0.237,0.948499 0.144,0.9674 0.048,0.9767 -0.048,0.9767 -0.144,0.9674 -0.237,0.9485 -0.33,0.9208 -0.418,0.8842 -0.502,0.8387 -0.583,0.7854 -0.657,0.7246 -0.724,0.6568 -0.786,0.5825 -0.838,0.5027 -0.885,0.4181 -0.92,0.3295 -0.949,0.2376 -0.967,0.1435 -0.977,0.048 z"
     id="path1069"
     style="fill:none;stroke:#000000;stroke-opacity:1" />
</svg>
