<?xml version="1.0" encoding="UTF-8" standalone="no"?>
<!-- Created with Inkscape (http://www.inkscape.org/) -->

<svg
   width="210mm"
   height="297mm"
   viewBox="0 0 210 297"
   version="1.1"
   id="svg1"
   inkscape:version="1.4.3 (0d15f75042, 2025-12-25)"
   sodipodi:docname="steppermount.svg"
   xmlns:inkscape="http://www.inkscape.org/namespaces/inkscape"
   xmlns:sodipodi="http://sodipodi.sourceforge.net/DTD/sodipodi-0.dtd"
   xmlns="http://www.w3.org/2000/svg"
   xmlns:svg="http://www.w3.org/2000/svg">
  <sodipodi:namedview
     id="namedview1"
     pagecolor="#ffffff"
     bordercolor="#000000"
     borderopacity="0.25"
     inkscape:showpageshadow="2"
     inkscape:pageopacity="0.0"
     inkscape:pagecheckerboard="0"
     inkscape:deskcolor="#d1d1d1"
     inkscape:document-units="mm"
     inkscape:zoom="1.0449705"
     inkscape:cx="397.14038"
     inkscape:cy="561.25984"
     inkscape:window-width="2560"
     inkscape:window-height="1382"
     inkscape:window-x="0"
     inkscape:window-y="0"
     inkscape:window-maximized="1"
     inkscape:current-layer="layer1" />
  <defs
     id="defs1" />
  <g
     inkscape:label="Layer 1"
     inkscape:groupmode="layer"
     id="layer1">
    <path
       id="rect1"
       style="fill:none;fill-opacity:0.246227;stroke:#000000;stroke-width:0.499998;stroke-linejoin:round"
       d="M 5.0002116 0 C 2.2302116 -6.2665922e-16 0 2.2302116 0 5.0002116 L 0 54.999744 C -6.2665922e-16 57.769744 2.2302116 59.999955 5.0002116 59.999955 L 54.999744 59.999955 C 57.769744 59.999955 59.999955 57.769744 59.999955 54.999744 L 59.999955 37.500037 L 54.999744 37.500037 L 54.999744 22.499919 L 59.999955 22.499919 L 59.999955 5.0002116 C 59.999955 2.2302116 57.769744 3.0947467e-17 54.999744 0 L 5.0002116 0 z " />
    <path
       id="rect2"
       style="fill:none;fill-opacity:0.246227;stroke:#000000;stroke-width:0.499998;stroke-linejoin:round"
       d="M 9.999939,9 C 9.445939,9 9,9.445939 9,9.999939 V 49.99956 c 0,0.554 0.445939,1.00046 0.999939,1.00046 h 15.000118 a 5,5 0 0 0 4.999695,4.99969 5,5 0 0 0 5.000211,-4.99969 h 15.000118 c 0.554,0 0.999939,-0.44646 0.999939,-1.00046 V 9.999939 C 51.00002,9.445939 50.554081,9 50.000081,9 Z" />
  </g>
</svg>
